<?xml version="1.0" standalone="no"?>
<!DOCTYPE svg PUBLIC "-//W3C//DTD SVG 1.1//EN" "http://www.w3.org/Graphics/SVG/1.1/DTD/svg11.dtd" >
<svg xmlns="http://www.w3.org/2000/svg" xmlns:xlink="http://www.w3.org/1999/xlink" version="1.1">
<metadata>
Created by FontForge 20170924 at Fri Dec 11 03:42:17 2020
 By www-data
</metadata>
<defs>
<font id="OriginTechRegular" horiz-adv-x="634" >
  <font-face 
    font-family="Origin Tech"
    font-weight="400"
    font-stretch="normal"
    units-per-em="1000"
    panose-1="0 0 0 0 0 0 0 0 0 0"
    ascent="800"
    descent="-200"
    x-height="639.331"
    cap-height="698.62"
    bbox="-293 -182.125 2227.96 930.928"
    underline-thickness="50"
    underline-position="-100"
    unicode-range="U+000A-F03C"
  />
<missing-glyph horiz-adv-x="527" 
d="M50 700h427v-700h-427v700zM78 680l185 -309l186 309h-371zM251 350l-180 300v-601zM264 329l-185 -308h370zM276 350l181 -303v605z" />
    <glyph glyph-name=".notdef" horiz-adv-x="527" 
d="M50 700h427v-700h-427v700zM78 680l185 -309l186 309h-371zM251 350l-180 300v-601zM264 329l-185 -308h370zM276 350l181 -303v605z" />
    <glyph glyph-name=".null" horiz-adv-x="0" 
 />
    <glyph glyph-name=".null" horiz-adv-x="0" 
 />
    <glyph glyph-name="controlLF" unicode="&#xa;" horiz-adv-x="0" 
 />
    <glyph glyph-name="controlCR" unicode="&#xd;" horiz-adv-x="0" 
 />
    <glyph glyph-name="space" unicode=" " horiz-adv-x="327" 
 />
    <glyph glyph-name="exclam" unicode="!" horiz-adv-x="283" 
d="M66 698.05h150.68v-439.55h-75.3096v-99.8301h-75.3701v539.38zM168.71 93.25v89.4004h47.9697v-182.08h-150.68v92.6797h102.71z" />
    <glyph glyph-name="quotedbl" unicode="&#x22;" horiz-adv-x="221" 
d="M18 663.23v77.6299h77.6201v-77.6299l-55.9404 -70.7598l10.2803 70.7598h-31.96zM125.3 740.86h77.6309v-77.6299l-55.9404 -70.7598l10.2695 70.7598h-31.96v77.6299z" />
    <glyph glyph-name="quotedbl" unicode="&#x201d;" horiz-adv-x="221" 
d="M18 663.23v77.6299h77.6201v-77.6299l-55.9404 -70.7598l10.2803 70.7598h-31.96zM125.3 740.86h77.6309v-77.6299l-55.9404 -70.7598l10.2695 70.7598h-31.96v77.6299z" />
    <glyph glyph-name="quotedbl" unicode="&#x201c;" horiz-adv-x="221" 
d="M18 663.23v77.6299h77.6201v-77.6299l-55.9404 -70.7598l10.2803 70.7598h-31.96zM125.3 740.86h77.6309v-77.6299l-55.9404 -70.7598l10.2695 70.7598h-31.96v77.6299z" />
    <glyph glyph-name="numbersign" unicode="#" horiz-adv-x="865" 
d="M671.21 508.95h159.729l-30.1396 -95.8896h-270.13l30 95.8896l59.8604 190.95h110.55zM629.199 376.561l-27.2998 -88.5703h158.35l-30 -95.8896h-158.35l-59.8604 -190.82h-110.55l59.8604 190.82h-142.87l-59.8701 -190.82h-110.54l59.8604 190.82h-174.93l30 95.8896
h174.93l39.1797 125.07h-173.56l30.1299 95.8896h173.56l59.8701 190.95h110.54l-59.8604 -190.95h101.78l-30 -95.8896h-101.92l-39.1699 -125.07h142.87l27.2998 88.5703h110.55z" />
    <glyph glyph-name="dollar" unicode="$" horiz-adv-x="552" 
d="M354.75 410.74c78.3301 -4.71973 140.671 -69.7705 140.671 -149.271v-66.7002c0 -77.1797 -62.7998 -139.97 -139.97 -139.97h-31.7998v-53.6602h-95.8896v53.6602h-164.01v123.29h164.01v109.83h-31.0801v0.589844c-78.0303 2.80957 -140.681 66.9795 -140.681 145.68
v67.6904c0 78.2695 63.6699 141.96 141.939 141.96h29.8203v55.8604h95.8896v-55.8799h164.01v-123.29h-164.01v-109.01h31.0996v-0.780273zM201.941 411.52l25.8203 0.0205078v109.01h-29.8203c-10.29 0 -18.6602 -8.38965 -18.6602 -18.6699v-67.6904
c0 -12.5 10.1699 -22.6699 22.6602 -22.6699zM372.132 194.771v66.71c0 14.5801 -11.8604 26.4404 -26.4404 26.4404h-22.04v-109.83h31.7998c9.2002 0 16.6807 7.46973 16.6807 16.6797z" />
    <glyph glyph-name="percent" unicode="%" horiz-adv-x="614" 
d="M381.33 699.77h165.34l-314.93 -698.63h-165.34zM496.52 149.21h77.54v-149.21h-176.6v234.59zM215.619 452.06l-99.0605 99.0605h-77.5596v149.22h176.62v-248.28z" />
    <glyph glyph-name="ampersand" unicode="&#x26;" horiz-adv-x="709" 
d="M359.54 411.62l0.00195312 -0.398438h303.64v-123.29h-87.7598l-43.0996 -271.95h-344.34c-77.1904 0 -139.98 68.6396 -139.98 153.02v77.8203c0 66.96 36.7002 124.61 89.1201 150.21c-5 16.1396 -7.83984 33.3496 -7.83984 51.3096v78.96
c0 85.6602 63.6904 155.34 141.96 155.34h351.35v-221.46h-123.28v98.1797h-228.07c-7.44043 0 -18.6709 -12.7803 -18.6709 -32.0605v-78.96c0 -20.6797 12.1797 -36.7197 22.6699 -36.7197h84.2998zM427.032 139.262l23.5723 148.671h-252.86
c-12.4805 0 -26.4609 -17.5703 -26.4609 -41.1104v-77.8203c0 -17.8701 10.0596 -29.7402 16.6992 -29.7402h239.05z" />
    <glyph glyph-name="quotesingle" unicode="'" horiz-adv-x="114" 
d="M18 740.86h77.6299v-77.6299l-55.9502 -70.7598l10.2803 70.7598h-31.96v77.6299z" />
    <glyph glyph-name="quotesingle" unicode="&#x2019;" horiz-adv-x="114" 
d="M18 740.86h77.6299v-77.6299l-55.9502 -70.7598l10.2803 70.7598h-31.96v77.6299z" />
    <glyph glyph-name="quotesingle" unicode="&#x2018;" horiz-adv-x="114" 
d="M18 740.86h77.6299v-77.6299l-55.9502 -70.7598l10.2803 70.7598h-31.96v77.6299z" />
    <glyph glyph-name="parenleft" unicode="(" horiz-adv-x="382" 
d="M202.07 699.77c-10.5801 -4.41016 -36.9707 -33.7217 -39.1807 -98.2617v-516.56c0.379883 -52.8799 14.4697 -87.2695 35.8799 -87.2695h156.71v-95.8896h-156.71c-21.7803 0 -130.5 8.7998 -131.77 182.8l0.0302734 519.16
c3.71973 120.13 70.5195 191.91 132.96 191.91h155.5v-95.8896h-153.42z" />
    <glyph glyph-name="parenright" unicode=")" horiz-adv-x="382" 
d="M314.46 603.75l0.0107422 -1.47852v-517.33c-1.26953 -174.35 -109.979 -183.17 -131.76 -183.17h-156.71v95.8896h156.71c21.3896 0 35.4893 34.4004 35.8691 87.6201v516.21c-2.19043 64.5596 -28.6006 93.8691 -39.1602 98.2793h-153.42v95.8896h155.5
c62.4297 0 129.22 -71.7803 132.96 -191.91z" />
    <glyph glyph-name="asterisk" unicode="*" horiz-adv-x="606" 
d="M256.48 431.92v-168.63l-166.44 -99.04l-49.04 82.46l169.59 100.83l-169.59 100.95l49.04 82.4697zM398.12 347.54l169.589 -100.831l-49.04 -82.46l-166.3 98.9004v-193.56h-95.8896v193.7l47.9404 28.4902l47.9502 28.6299zM393.459 390.039l-47.9404 -28.6299
l-47.9502 -28.4902v293.79h95.8896v-125.02l107.66 64.0098l48.7305 -82.5801l-110.63 -65.9502z" />
    <glyph glyph-name="plus" unicode="+" horiz-adv-x="374" 
d="M220.2 287.67h123.87v-67.3496h-123.87v-123.86h-67.3496v123.86h-123.85v67.3496h123.85v123.85h67.3496v-123.85z" />
    <glyph glyph-name="comma" unicode="," horiz-adv-x="112" 
d="M17 78.2002h77.6299v-77.6299l-55.9502 -70.7695l10.2803 70.7695h-31.96v77.6299z" />
    <glyph glyph-name="hyphen" unicode="-" horiz-adv-x="344" 
d="M329.07 220.32h-315.07v67.3496h315.07v-67.3496z" />
    <glyph glyph-name="period" unicode="." horiz-adv-x="110" 
d="M93.6299 0.570312h-77.6299v77.6299h77.6299v-77.6299z" />
    <glyph glyph-name="slash" unicode="/" horiz-adv-x="421" 
d="M316.5 728.35h94.25l-301.37 -753.41h-94.3799z" />
    <glyph glyph-name="zero" unicode="0" horiz-adv-x="654" 
d="M326.68 704.22c150.11 0 267.699 -96.2686 267.699 -219.179v-225.17h-73.0303v196.91h-77.6504v28.2598c0 32.3301 -50.0498 68.4902 -117.02 68.4902s-117 -36.1602 -117 -68.4902v-225.19h-71.8896v196.93h-78.79v28.2598c0 122.91 117.57 219.18 267.681 219.18z
M493.959 429.391l0.000976562 -196.91h100.42v-28.2598c0 -122.9 -117.59 -219.17 -267.7 -219.17s-267.681 96.2695 -267.681 219.17v225.17h51.4004v-196.91h99.2803v-28.2598c0 -32.3398 50.0303 -68.4902 117 -68.4902s117.02 36.1602 117.02 68.4902v225.17h50.2598z
" />
    <glyph glyph-name="one" unicode="1" horiz-adv-x="355" 
d="M137.07 698.05h150.68v-376.54h-75.3096v196.92h-180.44zM185.04 491.03v-196.92h102.71v-294.68h-150.68v491.6h47.9697z" />
    <glyph glyph-name="two" unicode="2" horiz-adv-x="608" 
d="M178.6 166.87l-30.709 -28.2109l389.06 0.0400391v-149.54h-487.94v144.52l85.7598 78.6201c55.2002 50.6904 116.431 90.5508 175.471 129.041l27.2598 17.8096c43.8096 28.8799 61.8896 64.9102 65 96.8701h64.2402
c-3.45996 -57.8701 -36.8301 -111.351 -93.0996 -148.36c-9.19043 -6.0498 -18.4209 -12.0693 -27.6406 -18.0791c-56.9902 -37.1396 -115.91 -75.5498 -167.4 -122.71zM399.681 492.029c-10 36.5703 -39.4521 59.5898 -78.7617 62.0703h-271.92v150.68h277.55
c105.34 -5.07031 191.09 -72.8799 218.49 -173.01c30.54 -111.37 -18.5 -228.63 -124.8 -298.49l-27.6699 -18.0801c-25.3096 -16.4805 -49.8193 -32.5908 -73.4395 -49.1104l-99.8301 -0.0195312c44.4199 37.1904 93.75 69.3408 141.67 100.581
c9.25 6.01953 18.5098 12.0693 27.7402 18.1289c68.6396 45.1396 107.149 112.649 105.68 185.22l-0.280273 13.4102h-92.5498c-0.519531 2.9502 -1.11914 5.83984 -1.87891 8.62012z" />
    <glyph glyph-name="three" unicode="3" horiz-adv-x="615" 
d="M431.85 703.19c65.1504 0 118.149 -53 118.149 -118.15v-381.84h-53.0898v244.86h-97.5996v104.45h-349.31v150.68h381.85zM469.519 420.66v-244.86h80.4805v-65.6504c0 -67.6504 -55.0596 -122.71 -122.72 -122.71h-377.28v150.69h349.31v131.16h-253.42v151.37h323.63z
" />
    <glyph glyph-name="four" unicode="4" horiz-adv-x="607" 
d="M201.68 702l-0.0595703 -380.979l159.31 -37.1299l-0.00976562 -42.7197l-309.92 72.2695v388.56h150.68zM388.83 698.051h150.69v-698.62h-150.69v235.22l-0.530273 0.120117l0.0302734 70.8799l-159.32 37.1201v83.8799l159.82 -37.2598v308.66z" />
    <glyph glyph-name="five" unicode="5" horiz-adv-x="648" 
d="M441.7 239.66c-5.42969 39.1602 -33.5811 69.1387 -67.4814 69.1191h-318.22l47.9404 383.56h472.91v-150.68h-339.89l-23.3701 -171.55l160.64 0.320312c67.5996 0 123.33 -57.5098 129.561 -130.77h-62.0898zM374.219 459.479c120.86 0 219.158 -104.75 219.158 -233.5
c0 -128.76 -98.3301 -233.51 -219.18 -233.51h-315.06v150.68h315.06c33.9102 0 62.0605 29.9805 67.4805 69.1309h90.0703v13.7002c0 94.7598 -70.6699 171.859 -157.56 171.859l-129.3 -0.25l8.25 61.8896h121.08z" />
    <glyph glyph-name="six" unicode="6" horiz-adv-x="637" 
d="M363.22 459.47c120.85 0 219.17 -104.762 219.17 -233.512s-98.3203 -233.49 -219.17 -233.49h-115.25c-106.41 0 -192.97 86.5596 -192.97 192.97l0.580078 208.03c21.2998 170.38 166.84 298.87 338.55 298.87h171.7v-150.68h-171.7
c-64.5195 0 -122.38 -32.5195 -156.979 -82.7695c0.160156 0.0195312 0.330078 0.0390625 0.490234 0.0585938v-88.5195h125.58c67.5996 0 123.319 -57.5098 129.56 -130.77h-62.0801c-5.42969 39.1504 -33.5801 69.1201 -67.4805 69.1201h-115.25
c-23.3096 0 -42.29 -18.9697 -42.29 -42.2793v-81.0596c0 -23.3096 18.9805 -42.29 42.29 -42.29h115.25c33.9004 0 62.0508 29.96 67.4805 69.1104h90.0498v13.7002c0 94.7695 -70.6699 171.859 -157.53 171.859h-98.1797v61.6504h98.1797z" />
    <glyph glyph-name="seven" unicode="7" horiz-adv-x="534" 
d="M410.45 514.22l-113.601 -221.29l71.1201 -0.0195312l-150.94 -294.03h-167.81l264.57 515.34h96.6602zM41 692.3h455.061v-150.68h-0.410156l-113.61 -221.33l-40.3604 0.00976562l113.63 221.32h-414.31v150.68z" />
    <glyph glyph-name="eight" unicode="8" horiz-adv-x="657" 
d="M506.23 238.74v-67.2324h89.04v-13.7002c0 -93.9404 -76.4404 -170.381 -170.381 -170.381h-193.51c-93.96 0 -170.38 76.4404 -170.38 170.381v80.9102c0 39.3496 12.6396 75.75 33.96 105.54c-21.2598 29.2803 -33.96 65.1504 -33.96 104.03v41.0098h61.6396v-41.0098
c0 -21.96 6.24023 -42.4297 16.8799 -59.9297c4.80957 -7.91992 10.5498 -15.21 17.0498 -21.7402c0.0595703 -0.0595703 0.129883 -0.109375 0.179688 -0.168945c3.01953 -3.00977 6.20996 -5.83008 9.54004 -8.49023
c0.450195 -0.370117 0.900391 -0.730469 1.35059 -1.08008c3.2998 -2.5498 6.71973 -4.95996 10.2793 -7.15039c0.219727 -0.139648 0.410156 -0.279297 0.629883 -0.40918c3.82031 -2.33008 7.79004 -4.4502 11.8896 -6.33008
c0.459961 -0.209961 0.94043 -0.370117 1.39062 -0.580078c3.42969 -1.51953 6.91992 -2.85938 10.5098 -4.03906c1.19043 -0.400391 2.40039 -0.75 3.62012 -1.11035c3.07031 -0.900391 6.18066 -1.66992 9.33105 -2.30957
c1.25977 -0.259766 2.49023 -0.549805 3.75977 -0.769531c4.33008 -0.740234 8.71973 -1.31055 13.2002 -1.56055v-0.730469h180.8c3.73047 0 7.37012 -0.269531 10.9697 -0.699219v-0.0195312c0.0898438 0 0.179688 0 0.259766 -0.0195312
c1.07031 -0.120117 2.11035 -0.310547 3.16992 -0.480469c2.73047 -0.419922 5.4209 -0.959961 8.07129 -1.61035c0.980469 -0.25 1.98047 -0.5 2.96094 -0.769531c3.33984 -0.959961 6.63965 -2.04004 9.81934 -3.36035
c0.0898438 -0.0400391 0.200195 -0.0595703 0.310547 -0.109375c3.5498 -1.48047 6.95996 -3.1709 10.2598 -5.05078c0.290039 -0.160156 0.570312 -0.360352 0.850586 -0.520508c2.99023 -1.74023 5.87988 -3.66016 8.64941 -5.70996
c0.330078 -0.25 0.650391 -0.480469 0.970703 -0.730469c4.17969 -3.19043 7.96973 -6.81055 11.5596 -10.6309c0.580078 -0.629883 1.17969 -1.21973 1.73926 -1.85938c3.4502 -3.87988 6.58984 -8.03027 9.35938 -12.4404
c0.110352 -0.179688 0.270508 -0.330078 0.380859 -0.509766c-0.0302734 -0.00976562 -0.0400391 -0.00976562 -0.0703125 -0.0195312c8.75 -14.1699 13.9199 -30.7598 13.9199 -48.6094zM444.591 157.828l-0.0302734 80.9121c0 17.3896 -14.1396 31.5195 -31.5195 31.5195
h-169.81c-17.4004 0 -31.5508 -14.1504 -31.5508 -31.5303v-80.9004c0 -10.8701 8.83984 -19.7002 19.7002 -19.7002h193.51c10.8604 0 19.7002 8.84961 19.7002 19.6992zM595.271 530.41l-0.00195312 -82.1064c0 -38.8896 -12.6201 -74.8301 -33.8896 -104.11
c21.25 -29.79 33.8896 -66.1299 33.8896 -105.45v-39.8301h-61.6396v39.8203c0 22.6602 -6.36035 43.8301 -17.29 61.96c-4.74023 7.86035 -10.3701 15.1201 -16.7305 21.7002c-0.339844 0.339844 -0.679688 0.649414 -1.00977 0.999023
c-2.76953 2.79004 -5.66992 5.42969 -8.7002 7.94922c-0.55957 0.469727 -1.10938 0.939453 -1.66895 1.38965c-3.2998 2.62988 -6.7002 5.12012 -10.2598 7.41016c-0.139648 0.0996094 -0.269531 0.199219 -0.429688 0.298828
c-3.75977 2.40039 -7.67969 4.58008 -11.71 6.5498c-0.679688 0.339844 -1.38965 0.609375 -2.08008 0.929688c-3.20996 1.49023 -6.46973 2.85059 -9.80957 4.05078c-1.24023 0.469727 -2.5 0.879883 -3.78027 1.29004c-3 0.980469 -6.0498 1.82031 -9.14941 2.56055
c-1.26953 0.30957 -2.5293 0.649414 -3.81934 0.90918c-4.32031 0.870117 -8.69043 1.58984 -13.1504 2v0.959961h-185.37c-2.16016 0 -4.29004 0.179688 -6.41016 0.330078v0.0898438c-1.42969 0.120117 -2.87988 0.120117 -4.29004 0.290039
c-1.03027 0.120117 -2.03027 0.299805 -3.03027 0.469727c-2.59961 0.410156 -5.15918 0.910156 -7.67871 1.54004c-0.929688 0.240234 -1.87988 0.470703 -2.7998 0.730469c-3.2002 0.919922 -6.37012 1.95996 -9.41016 3.21973
c-0.0800781 0.0400391 -0.160156 0.0498047 -0.240234 0.0898438c-3.36035 1.40039 -6.62012 3.02051 -9.75977 4.81055c-0.280273 0.169922 -0.540039 0.339844 -0.830078 0.509766c-2.84961 1.66016 -5.58984 3.48047 -8.21973 5.44043
c-0.320312 0.230469 -0.620117 0.450195 -0.919922 0.680664c-3.96973 3.03027 -7.58984 6.5 -11 10.1396c-0.549805 0.589844 -1.10938 1.14941 -1.63965 1.74902c-3.28027 3.7002 -6.26074 7.66016 -8.89062 11.8701c-0.110352 0.169922 -0.260742 0.320312 -0.371094 0.5
c0.0195312 0.0195312 0.0390625 0.0195312 0.0693359 0.0292969c-8.29004 13.4502 -13.1797 29.1904 -13.1797 46.1201v68.4102h-89.04v13.7002c0 95.2695 77.5 172.779 172.78 172.779h188.69c95.2598 0 172.77 -77.5098 172.77 -172.779zM444.589 448.304v82.1113
c0 12.1797 -9.91016 22.0996 -22.0898 22.0996h-188.69c-12.1797 0 -22.0996 -9.91016 -22.0996 -22.1006v-82.1104c0 -14.8604 12.0996 -26.96 26.96 -26.96h178.97c14.8604 0 26.9502 12.0996 26.9502 26.96z" />
    <glyph glyph-name="nine" unicode="9" horiz-adv-x="636" 
d="M387.76 692.34c106.43 0 192.989 -86.5703 192.979 -192.98l-0.580078 -208.04c-21.2998 -170.38 -166.859 -298.86 -338.569 -298.86h-171.7v150.68h171.7c64.5 0 122.37 32.4902 156.97 82.7305c-3.59961 -0.200195 -126.04 -0.540039 -126.04 -0.540039
c-116.51 0 -211.81 97.4297 -218.52 219.79h61.4902c6.42969 -88.3799 74.4102 -158.14 157.04 -158.14h125.56v90.46c18.3301 4.63965 31.9805 21.1396 31.9805 40.8799v81.0498c0 23.3203 -18.9805 42.29 -42.3105 42.29h-115.23
c-37.7598 0 -68.4902 -37.1699 -68.4902 -82.8203c0 -45.6602 30.7305 -82.8105 68.4902 -82.8105h98.1699v-61.6396h-98.1699c-71.75 0 -130.13 64.79 -130.13 144.45v13.7002h-88.3896c6.71973 122.36 102.02 219.801 218.52 219.801h115.23z" />
    <glyph glyph-name="colon" unicode=":" horiz-adv-x="132" 
d="M104.63 320.77h-77.6299v77.6299h77.6299v-77.6299zM104.63 119.85h-77.6299v77.6299h77.6299v-77.6299z" />
    <glyph glyph-name="semicolon" unicode=";" horiz-adv-x="145" 
d="M111.19 321.91h-77.6299v77.6299h77.6299v-77.6299zM110.62 198.92l-0.000976562 -0.290039h0.570312v-77.6299h-0.790039l-55.7197 -70.4902l10.2402 70.4902h-31.3604v0.290039h-0.55957v77.6299h77.6201z" />
    <glyph glyph-name="less" unicode="&#x3c;" horiz-adv-x="358" 
d="M324.92 314.77l-108.829 -61.5596l108.74 -62.1699l-47.8896 -83.0801l-111.87 63.8096l-46.1396 26.4697l-48.5303 27.6299l-48.4004 27.6904l129.67 73.3701l17.0996 9.66992l108.93 61.6299z" />
    <glyph glyph-name="equal" unicode="=" horiz-adv-x="362" 
d="M338.07 285.39h-315.07v77.6299h315.07v-77.6299zM338.07 191.779h-315.07v47.9502h315.07v-47.9502z" />
    <glyph glyph-name="greater" unicode="&#x3e;" horiz-adv-x="358" 
d="M206.25 326.93l129.671 -73.3701l-48.4004 -27.6904l-48.54 -27.6299l-46.1299 -26.4697l-111.88 -63.8096l-47.8896 83.0801l108.74 62.1699l-108.82 61.5596l47.2197 83.46l108.93 -61.6299z" />
    <glyph glyph-name="question" unicode="?" horiz-adv-x="588" 
d="M149.34 87.6104h102.7l0.0400391 -87.2803l-150.68 -0.0898438l-0.110352 184.97h48.0098zM536.06 530.16c30.5098 -111.45 -18.4287 -228.617 -124.688 -298.527c-9.25 -6.08008 -18.5195 -12.1201 -27.7998 -18.1602
c-29.4502 -19.1904 -57.8906 -37.9307 -85.0508 -57.3711h-121.8l-0.0400391 97.2197c40.7305 31.5898 83.1504 59.3701 124.62 86.3896l27.2598 17.8301c61.5596 40.4902 72.4893 95.1699 62.1797 132.84c-10 36.5498 -39.4004 59.6699 -78.7705 62.0996h-271.97v150.68
l277.55 -0.0898438c105.35 -4.99023 191.13 -72.8701 218.51 -172.91z" />
    <glyph glyph-name="at" unicode="@" horiz-adv-x="708" 
d="M349.55 486.3l150.682 -0.00195312v-207.76h50.2305v268.21h-203.71c-107.85 0 -195.63 -87.7197 -195.68 -195.569l-0.129883 -221.04h488.56v-95.8896h-584.5l0.179688 316.98c0.0800781 160.69 130.89 291.41 291.569 291.41h299.6v-459.99h-445.2v155.26
c0 81.8203 66.5596 148.391 148.399 148.391zM404.342 278.538v111.859h-54.79c-28.9502 0 -52.5098 -23.5596 -52.5098 -52.5098v-59.3496h107.3z" />
    <glyph glyph-name="A" unicode="A" horiz-adv-x="644" 
d="M368.52 382.14l-39.3184 -83.9707h-165.2l204.52 444.66l254.38 -553.29h-316.16l22.0498 47.9502h106.3zM581.801 148.449l41.5098 -90.1387l-138.35 -59.8604l-21.6504 47.2598h-271.64l-21.7803 -47.4004h-165.89l118.9 258.77h165.21l-49.8701 -108.63h343.56z" />
    <glyph glyph-name="B" unicode="B" horiz-adv-x="693" 
d="M586.61 406.81c43.0303 -40.0498 70.1406 -96.9717 70.1406 -160.241c0 -120.85 -98.3301 -219.18 -219.18 -219.18h-78.1904v101.47l-100.18 -0.150391v49.3701h177.81c37.7695 0 68.4893 30.7197 68.4893 68.4893s-30.7197 68.4893 -68.4893 68.4893h-220.33v-227.42
l101.89 0.25v-87.8799h-252.57v657.53h102.74v-191.78h254.57c22.6602 0 41.1006 18.4404 41.1006 41.0908c0 22.6602 -18.4404 41.1006 -41.1006 41.1006h-165.53v-41.0996h-47.9502v191.78h213.47c105.75 0 191.78 -86.0195 191.78 -191.779
c0 -36.6797 -10.54 -70.8701 -28.4697 -100.04z" />
    <glyph glyph-name="C" unicode="C" horiz-adv-x="660" 
d="M103.37 363.01l-0.00195312 20.5586h-44.9199c10.3604 170.53 149.511 308.71 323.601 314.28c88.7002 2.69043 173.851 -29.46 239.44 -90.9795c7.26953 -6.82031 14.1494 -13.9502 20.7197 -21.2803l-111.71 -99.5996
c-33.8896 37.9102 -82.9795 61.9502 -137.71 61.9502c-101.97 0 -184.93 -82.96 -184.93 -184.93c0 -36.5801 10.8203 -70.6201 29.2207 -99.3604l-81.7803 -66.0498c-14.8398 21.2695 -26.7002 44.3896 -35.3799 68.9697c-10.9902 31.0703 -16.5498 63.5 -16.5498 96.4404z
M392.788 147.559c49.4404 0 96.6279 16.8516 134.798 47.5615l96.8203 -120.44c-67.46 -54.2305 -149.29 -80.6406 -230.8 -80.6406c-105.56 0 -210.56 44.2803 -283.1 129.83c-54.0195 63.8799 -82.2793 140.89 -86.5098 218.6h38.9004
c1.91016 -30.5498 8.02051 -60.5898 18.2607 -89.5898c12.5498 -35.4805 30.8799 -68.2803 54.5098 -97.54l12.9004 -15.9902l90.0996 72.7695l7.4502 -6.92969c39.9902 -37.1699 92.0801 -57.6299 146.67 -57.6299z" />
    <glyph glyph-name="D" unicode="D" horiz-adv-x="697" 
d="M561.85 619.03c64.2402 -63.4199 101.229 -153.147 101.229 -246.018c0 -184.93 -140.82 -335.34 -313.84 -335.34h-93.4199v150.68h92.4697c89.3096 0 164.1 84.5195 164.1 184.659c0 52.8701 -20.6797 103.42 -56.4297 138.76
c-30 29.5898 -67.8096 45.8896 -106.72 45.8896h-93.46v-219.08h-93.04v310.38h-57.6396v58.8496l243.32 0.540039c79.7305 0 155.211 -31.7803 213.431 -89.3203zM121.638 607.873v-310.38h93.04v-302h-150.68v612.38h57.6396z" />
    <glyph glyph-name="E" unicode="E" horiz-adv-x="633" 
d="M202.68 237.45v-85.6201h347.03v-150.68h-497.71v372.42h43.9404v-87.8896h137.85v-48.2305h-31.1104zM590.76 549.09l-346.98 -0.000976562v-119.87h346.16l-58.9004 -148.76l-0.820312 -1.91992h-255.35v48.2197h-137.8v87.9404h-43.9697v285.07h497.66v-150.68z" />
    <glyph glyph-name="F" unicode="F" horiz-adv-x="618" 
d="M160.53 608.4l-0.000976562 -259.72l330.69 -0.549805l-59.7305 -150.68h-217.81v-197.4h-150.68v608.35h97.5303zM107.52 697.48h496.57v-150.68h-349.31v-156.96h-53.1504v259.7h-97.5303v46.8096h3.41992v1.12988z" />
    <glyph glyph-name="G" unicode="G" horiz-adv-x="733" 
d="M382.35 190.6c56.0303 0 105.259 29.2002 133.579 73.1201l-117.93 0.519531l54.1104 136.71l222.87 -0.959961l-0.549805 -136.98l-104.35 0.459961c-10.4004 -22.6504 -24.79 -43.5205 -43.0801 -61.4502c-38.7998 -38.04 -90.0801 -59.0303 -144.4 -59.0801
l-27.4004 -0.0302734l-0.0498047 48.4404l22.2002 -0.679688c1.66016 -0.0498047 3.33008 -0.0693359 5 -0.0693359zM596.298 211.1l107.411 0.999023c-23.6504 -55.1201 -61.1807 -103.98 -109.061 -140.561c-61.1699 -46.7402 -134.72 -71.3799 -211.01 -71.3799
c-15.79 0 -31.7002 1.0498 -47.6406 3.18945c-92.9502 12.4502 -175.2 59.9697 -231.62 133.84c-56.4199 73.8398 -80.6396 165.71 -68.1895 258.65c12.46 92.9502 59.9795 175.21 133.84 231.62c153.26 117.08 373.2 87.6299 490.28 -65.6299l-119.74 -91.4805
c-31.9805 41.8701 -78.8203 68.8301 -131.87 75.9404c-53.0303 7.12988 -105.33 -6.58984 -147.19 -38.5703c-41.8799 -31.9697 -68.8496 -78.8096 -75.9492 -131.859c-7.11035 -53.0596 6.59961 -105.329 38.5801 -147.209
c26.4805 -34.6602 63.2002 -58.8906 105.13 -70.3105l0.25 -56.8398l3.51953 -1.33984l27.2598 -2.62988c7.99023 -0.769531 16.1504 -1.16992 24.2705 -1.16992c88.5498 0 166.43 45.7402 211.729 114.74z" />
    <glyph glyph-name="H" unicode="H" horiz-adv-x="749" 
d="M293.31 408.68v-58.5117h195.21v-92.1797h-270.84v-260.27h-150.68v671.23h150.68v-260.27h75.6299zM680.729 696.288l0.959961 0.000976562v-697.66l-150.41 65.3398l-0.269531 0.129883l-1.37012 327.13h-195.2v58.4902h196.57l0.410156 246.3z" />
    <glyph glyph-name="I" unicode="I" horiz-adv-x="300" 
d="M99.0996 698.62h150.68v-315.07h-41.0996v191.78h-109.58v123.29zM167.589 534.24v-191.78h41.0898v-341.64l-150.68 65.2002v468.22h109.59z" />
    <glyph glyph-name="J" unicode="J" horiz-adv-x="609" 
d="M477.61 551.36l0.00195312 -234.59h48.5596v-9.11035c0 -113.01 -60.4102 -212.05 -150.68 -266.71v0.0498047c-0.0302734 -0.0195312 -0.0400391 -0.0292969 -0.0703125 -0.0488281c-46.9805 -28.4902 -102.051 -44.9307 -160.961 -44.9307
c-79.04 0 -154.521 29.7305 -212.461 83.7002l0.820312 0.959961h0.139648l166.98 72.3301c14.3896 -4.11035 29.3193 -6.30078 44.5195 -6.30078c88.9102 0 160.96 72.1904 160.96 160.95h0.0703125v243.7h102.12zM416.593 693.141h150.68v-335.27h-48.5596v234.59h-102.12
v100.68z" />
    <glyph glyph-name="K" unicode="K" horiz-adv-x="661" 
d="M440.45 196.98l-206.438 206.301l-150.68 0.549805v306.02l150.68 -65.2002v-158.91l224.38 224.25h213.02l-330.82 -330.96l182.05 -182.05h-82.1904zM413.122 155.881l82.1201 -0.000976562l153.63 -153.56h-213.15l-229.04 229.04v-233.56h-150.68v364.96
l150.68 -0.580078z" />
    <glyph glyph-name="L" unicode="L" horiz-adv-x="561" 
d="M327.64 191.78v-68.4902h-273.97v571.91l150.68 -64.79v-438.63h123.29zM368.689 150.68l178.08 -0.000976562v-150.68h-452.05v82.1904h273.97v68.4902z" />
    <glyph glyph-name="M" unicode="M" horiz-adv-x="1018" 
d="M950.36 697.21v-697.21h-0.129883l-150.55 65.2002v268.31l-273.11 -273.1l-110.41 110.54v61.9199l-315.06 315.07v150.68h0.269531l425.2 -425.2l423.79 423.83v-0.0400391zM60 0l-0.000976562 520.54l315.07 -315.07v-61.9102l-164.39 164.24v-307.8h-150.68z" />
    <glyph glyph-name="N" unicode="N" horiz-adv-x="737" 
d="M519.13 632.99l150.69 65.3604v-697.94l-218.78 191.38v64.4902l-350.94 305.81v136.58l419.03 -366.29v300.61zM59 0.0507812l-0.000976562 520.939l350.94 -305.8v-64.5l-200.26 175.11v-325.75h-150.68z" />
    <glyph glyph-name="O" unicode="O" horiz-adv-x="730" 
d="M103 286.75l-53.2441 -11.9297c-20.54 79.5996 -14.8096 170.569 22.1904 243.8c5.41992 10.7305 11.3701 21.1006 17.79 31.0703c41.4805 64.3398 103.221 112.16 176.961 136.41c85.1504 27.9902 176.12 21.1406 256.14 -19.2891
c79.3701 -40.0898 138.46 -108.53 166.72 -192.78l-36.2197 -8.07031c-10.2598 27.4404 -24.3896 53.1406 -42.1201 76.6309c-21.5898 28.5898 -47.8096 52.9199 -77.8994 72.3301l-17.2803 11.1396l-60.6396 -94.0498
c-0.179688 0.0898438 -0.339844 0.209961 -0.540039 0.30957c-44.0898 22.2695 -94.21 26.0498 -141.14 10.6299c-46.9199 -15.4102 -85.0498 -48.2197 -107.31 -92.2695c-22.2803 -44.0996 -26.0498 -94.2197 -10.6396 -141.149
c11.4805 -34.9102 32.6709 -64.8105 60.8613 -87.0605l-55.7598 -86.5703c-19.0703 14.4902 -36.0205 31.5098 -50.5508 50.7197c-18.6699 24.7197 -32.7295 52.2793 -41.7695 81.9092zM681.656 430.21c19.6104 -78.9404 12.2627 -169.747 -24.3574 -242.297
c-40.4199 -80.0195 -109.6 -139.5 -194.75 -167.49c-85.1797 -28 -176.14 -21.1396 -256.149 19.29c-78.79 39.8096 -137.521 107.56 -166.021 190.939l35.04 7.83984c10.2695 -27.4404 24.4092 -53.1406 42.1494 -76.6211
c21.5996 -28.5703 47.8193 -52.8906 77.9297 -72.291l17.2695 -11.1201l61.6396 95.71c44.0703 -22.2402 94.1699 -26 141.07 -10.5898c40.6201 13.3496 74.6396 39.7197 97.5098 75.1699c3.5498 5.49023 6.81934 11.2002 9.80957 17.1201
c22.2695 44.0801 26.0391 94.2197 10.6094 141.14c-11.4004 34.6797 -32.3701 64.4492 -60.2998 86.6396l54.7998 84.9697c19.0498 -14.5098 36 -31.5195 50.5195 -50.75c18.6504 -24.71 32.6904 -52.2803 41.7207 -81.9199l5.5498 -18.2197z" />
    <glyph glyph-name="P" unicode="P" horiz-adv-x="685" 
d="M216.68 265.69l130.43 -0.000976562l0.0498047 -47.0801h-130.48v-219.18h-150.68v657.53h101.03v-219.17h49.6504v-172.1zM442.709 698.06c120.86 0 219.18 -98.3389 219.18 -219.188s-98.3301 -219.18 -219.18 -219.18h-54.4502l-0.0595703 47.0996h-130.42v103.6
h184.93c37.7695 0 68.4893 30.7305 68.4893 68.4902c0 37.7695 -30.7197 68.4893 -68.4893 68.4893h-184.93v-68.4902h-49.6602v219.18h234.59z" />
    <glyph glyph-name="Q" unicode="Q" horiz-adv-x="771" 
d="M382 168.64l75.9102 -75.9209c-26.6396 -8.30957 -54.2695 -12.5693 -82.4492 -12.6191l-20.46 -0.0195312l-0.179688 -63.3301c-178.94 10.6299 -322.82 161.939 -322.82 342.279c0 189.14 153.88 343 343 343s342.98 -153.87 342.98 -343
c0 -55.4502 -13.4404 -109.42 -38.3809 -157.62l-118.3 118.3c17.6299 83.6504 -22.8203 171.9 -103.13 210.841c-26.71 12.96 -54.9902 19.0996 -82.8701 19.0996c-70.7998 0 -138.92 -39.5596 -171.82 -107.43c-45.8604 -94.5703 -6.23047 -208.83 88.3398 -254.69
c29.0498 -14.0996 59.96 -20.0596 90.1797 -18.8896zM495.2 327.579l244.661 -244.65l-106.58 -106.58l-67.4102 67.4102c-21.9404 -13.2305 -45.2803 -24.4805 -70.0703 -33.0703c-32.71 -11.3398 -66.2998 -17.6895 -99.9502 -19.6494l0.129883 48.6699
c35.6602 2.30957 70.4004 10.5498 103.54 24.5303c10.5898 4.48047 20.8203 9.58008 30.7803 15.0996l-183.86 183.86z" />
    <glyph glyph-name="R" unicode="R" horiz-adv-x="701" 
d="M257.82 547.94v-69.3604h-49.6602v219.18l234.59 0.860352c120.85 0 219.18 -98.3301 219.18 -219.18c0 -81.8301 -45.1699 -153.21 -111.8 -190.86l-55.4297 84.1201h-236.88v38.25h184.93c37.7695 0 68.4893 30.7305 68.4893 68.4902
c0 37.7695 -30.7197 68.5 -68.4893 68.5h-184.93zM508.87 247.39l157.399 -247.39h-180.14l-138.9 219.17h-130.55v-153.28l-150.68 -65.21v656.84h101.1v-219.17h49.5801v-106.71h236.99l55.3398 -84.1104c0 -0.139648 -0.139648 -0.139648 -0.139648 -0.139648z" />
    <glyph glyph-name="S" unicode="S" horiz-adv-x="678" 
d="M406.61 370.24c90.7803 0 164.39 -72.3291 164.39 -161.56h47.9404c0 -115.07 -95.25 -208.681 -212.33 -208.681h-328.84v148.09h328.83c33.9902 0 61.6406 27.1797 61.6406 60.5898s-27.6504 60.5898 -61.6406 60.5898h-162.27
c-117.08 0 -212.33 93.6104 -212.33 208.681l98.5498 -0.219727c3.41992 -59.3496 80.4795 -107.3 136.13 -107.49h139.93zM277.449 402.831c-60.5498 0 -109.59 48.2197 -109.59 107.67h-102.74c0 115.07 95.21 208.63 212.33 208.63h369.59l-147.95 -148.08h-221.64
c-33.9697 0 -61.6396 -27.1299 -61.6396 -60.5498c0 -33.4297 27.6699 -60.5498 61.6396 -60.5498h162.33c46.1602 0 99.3105 -23.4199 140.82 -61.2295c41.5 -37.8096 71.5 -90 71.5 -147.53l-44.6504 0.269531c-5.07031 85.6201 -93.29 161.51 -167.67 161.37h-162.33z
" />
    <glyph glyph-name="T" unicode="T" horiz-adv-x="640" 
d="M329.5 610.69l0.000976562 -224.27h53.0898v-381.29h-150.69v506.85h-216.9v150.68h149.55v-51.9697h164.95zM205.601 703.741h434.521l-59.7305 -150.68h-156.71v-125.48h-53.0098v224.25h-165.07v51.9102z" />
    <glyph glyph-name="U" unicode="U" horiz-adv-x="719" 
d="M528.86 688.26h137.379v-376.76c0 -36.4199 -6.61035 -72 -19.71 -105.74c-10.6299 -27.5195 -25.1104 -52.96 -43.1602 -75.8496l-72.5098 65.8496l-13.8096 -15.25c-32.4199 -35.79 -76.7402 -58.2305 -124.67 -63.25l0.209961 40.7197
c75.6504 10.1504 136.271 76.8906 136.271 154.811v375.47zM372.819 75.0596c59.3701 0 116.699 22.8311 160.199 63.2109l61.8701 -56.1797c-57.6904 -55.7002 -136 -89.9805 -222.21 -89.9805c-176.85 0 -320.68 143.83 -320.68 320.68v374.79l146.59 -63.4199
l-0.5 -312.66c0 -41.3701 14.7598 -81.5303 41.54 -113.08c26.79 -31.5498 64.04 -52.6201 104.86 -59.3203l6.88965 -1.12988l0.780273 -62.9102h20.6602z" />
    <glyph glyph-name="V" unicode="V" horiz-adv-x="707" 
d="M539.75 699.77l165.891 0.000976562l-294.88 -640.4l-29.1201 62.9502l115.3 251.25l-54.1904 116.52zM442.15 359.841l-115.28 -251.16l29.04 -63.0098l-28.4902 -63.0195l-323.42 703.42h165.75l157.67 -342.73l60.4805 133.08z" />
    <glyph glyph-name="W" unicode="W" horiz-adv-x="1028" 
d="M344.08 312.74l113.55 186.661l199.69 -327.48l-0.110352 0.169922l-47.1602 -102.67l-118.75 195.42l-166.17 -273.15l-1.7998 5.55957l-323.33 703.2h165.75zM857.32 683.331l165.749 -0.000976562l-309.14 -672.38l-1.80957 -5.55957l-47.2803 77.7197l47.1699 102.67
l0.110352 -0.160156l-199.7 327.48l33.5996 55.1904l0.0703125 0.110352l147.08 -241.96z" />
    <glyph glyph-name="X" unicode="X" horiz-adv-x="714" 
d="M623.19 177.3l-70.4102 0.000976562l-376.03 528.77h70.2803l139.17 -195.62l0.280273 -0.410156l139.39 195.62h184.17l0.540039 0.129883l-231.64 -325.75zM516.2 143.061h70.4092l102.06 -143.56h-184.93l-153.84 216.3l-153.83 -216.3h-185.07l246.44 346.3
l-227.13 319.17h114.66z" />
    <glyph glyph-name="Y" unicode="Y" horiz-adv-x="700" 
d="M154.64 554.22l215.75 -303.08h28.5498v-250h-150.68v255.78l-204.25 297.3h110.63zM530.31 712.37h182.88l-286.85 -417.55v-2.58008h-28.5498l-215.75 303.07h-110.63l-80.4102 117.06h182.88l178.21 -259.45z" />
    <glyph glyph-name="Z" unicode="Z" horiz-adv-x="760" 
d="M455.86 360.14l-152.049 -206.71h386.43l-110.82 -150.69h-573.42l373.42 508.08h112.6v-0.410156l-110.41 -150.27h74.25zM87.9619 702.6h671.229v-0.410156l-221.18 -300.96h-74.1602l110.41 150.28v0.410156h-486.3v150.68z" />
    <glyph glyph-name="bracketleft" unicode="[" horiz-adv-x="326" 
d="M299.87 692.92l-136.98 -0.000976562v-684.93h136.98v-95.8896h-232.87v876.71h232.87v-95.8896z" />
    <glyph glyph-name="bracketright" unicode="]" horiz-adv-x="326" 
d="M26 788.81l232.87 0.000976562v-876.71h-232.87v95.8896h136.99v684.93h-136.99v95.8896z" />
    <glyph glyph-name="underscore" unicode="_" horiz-adv-x="465" 
d="M449.93 1.13965h-434.93v67.3604h434.93v-67.3604z" />
    <glyph glyph-name="grave" unicode="`" horiz-adv-x="114" 
d="M18 740.86h77.6201v-77.6299l-55.9404 -70.7598l10.2803 70.7598h-31.96v77.6299z" />
    <glyph glyph-name="a" unicode="a" 
d="M327.42 343.28l-32.3018 -70.29h-165.85l198.15 430.97l248.07 -539.59h-299.97l15.7197 34.2598h102.73zM588.128 136.98l35.21 -76.5791l-138.22 -59.8604l-21.7803 47.4004l-0.00976562 0.00976562h-271.65l-21.79 -47.4102h-165.89l112.68 245.05h165.85
l-49.7197 -108.61h355.32z" />
    <glyph glyph-name="b" unicode="b" horiz-adv-x="654" 
d="M546.31 379.08c42.8096 -40.0195 69.7695 -96.8008 69.7695 -159.9c0 -120.85 -98.3301 -219.17 -219.18 -219.17h-50.79v101.31h-101.03v49.3701h151.82c37.7695 0 68.4893 30.7305 68.4893 68.4902c0 37.7695 -30.7197 68.4893 -68.4893 68.4893h-179.22v-213.75
h101.03v-73.9102h-251.71v671.22h78.7695v-232.87h237.43c22.6602 0 41.1006 18.4404 41.1006 41.0908c0 22.6602 -18.4404 41.1006 -41.1006 41.1006h-165.52v-54.79h-44.5195v205.47h210.04c105.76 0 191.779 -86.0195 191.779 -191.779
c0 -36.8203 -10.6104 -71.1201 -28.6699 -100.37z" />
    <glyph glyph-name="c" unicode="c" horiz-adv-x="630" 
d="M500.19 206l107.49 -105.602c-62.7002 -63.8096 -149.94 -100.39 -239.4 -100.39c-180.47 0 -328.05 143.19 -335.27 321.91h39.5098c3.63965 -77.8604 38.3301 -152.33 96.3701 -206.05l8.70996 -8.05957l90.1104 72.8203
c28.9697 -18.8604 63.4795 -29.9404 100.56 -29.9404c49.2998 0 97.3799 20.1602 131.92 55.3105zM99.5908 335.618l-0.0195312 13.6992h-66.5703c7.21973 178.72 154.81 321.91 335.27 321.91c88.3604 0 174.851 -35.8301 237.311 -98.3105l-106.56 -106.53
c-34.4102 34.4199 -82.0605 54.1602 -130.751 54.1602c-101.97 0 -184.93 -82.96 -184.93 -184.93c0 -54.7803 24.0801 -103.92 62.04 -137.81l-66.3799 -53.6396c-50.5898 51.0703 -79.4102 120.181 -79.4102 191.45z" />
    <glyph glyph-name="d" unicode="d" horiz-adv-x="659" 
d="M522.71 583.56c64.29 -63.3701 101.23 -153.06 101.23 -246.01c0 -184.92 -140.78 -335.34 -313.83 -335.34h-66.5996v150.68h65.6396c89.4004 0 164.11 84.5498 164.11 184.66c0 52.8496 -20.5801 103.439 -56.4502 138.81
c-29.9199 29.5996 -67.7598 45.8496 -106.7 45.8496h-93.4297v-242.6h-73.8203v332.19h-76.8604v60.5596l243.29 0.530273c79.7305 0 155.24 -31.7305 213.42 -89.3301zM115.47 584.41l0.000976562 -332.189h100.64v-251.08h-150.11v583.27h49.4697z" />
    <glyph glyph-name="e" unicode="e" horiz-adv-x="616" 
d="M216.68 264.78v-113.01h347.12v-150.68h-497.8v393.88h44.3701v-87.4902h141.75v-42.7002h-35.4404zM563.8 521.631h-347.12v-106.16h347.12v-2.05957l-58.9004 -148.63h-225.38v70.0996h-141.75v87.4902h-71.7695v249.95h497.8v-150.69z" />
    <glyph glyph-name="f" unicode="f" horiz-adv-x="585" 
d="M140.97 595.3v-245.43h353.63l-59.7002 -150.61h-218.22v-197.53h-150.68v593.57h74.9697zM66.0098 671.86l499.99 -0.000976562v-150.68h-349.32v-143.92h-48.3096v245.44h-102.37z" />
    <glyph glyph-name="g" unicode="g" horiz-adv-x="762" 
d="M495.5 407.76l242.621 0.00878906l-5.33984 -80.2695c-1.75977 -26.6904 -6.58984 -52.5 -13.9902 -77.1797h-112.4l-3.75 -7.70996c-38.8203 -79.7998 -118.561 -132.76 -206.03 -137.779l0.0400391 46.9404c70.2197 4.55957 131.2 45.9092 162.83 105.299h-123.57z
M383.181 77.0283c100.04 0 193.38 56.9902 240.189 145.891h85.9102c-51.3398 -130.46 -178.689 -222.27 -325.56 -222.27c-192.87 0 -349.72 156.98 -349.72 349.86c0 192.87 156.85 349.72 349.72 349.72c82.3301 0 162.47 -29.1797 225.34 -82.3301l-96.9805 -115.2
c-35.8896 30.2695 -81.5098 46.8496 -128.359 46.8496c-109.72 0 -199.04 -89.3203 -199.04 -199.04c0 -104.99 81.5898 -190.99 184.58 -198.45l0.200195 -75.0303h13.7197z" />
    <glyph glyph-name="h" unicode="h" horiz-adv-x="708" 
d="M489.94 672.41h150.69v-670.27l-150.69 65.4805v300.96h-194.91v43.5195h194.91v260.31zM267.631 412.101v-70.9219h195.2v-79.7695h-245.15v-260.27h-150.68v671.23h150.68v-260.27h49.9502z" />
    <glyph glyph-name="i" unicode="i" horiz-adv-x="281" 
d="M64 671.22h150.68v-301.35h-41.0898v205.47h-109.59v95.8799zM146.189 547.95l-0.000976562 -205.479h68.4902v-341.79l-150.68 65.3398v481.93h82.1904z" />
    <glyph glyph-name="i" unicode="&#xef;" horiz-adv-x="281" 
d="M64 671.22h150.68v-301.35h-41.0898v205.47h-109.59v95.8799zM146.189 547.95l-0.000976562 -205.479h68.4902v-341.79l-150.68 65.3398v481.93h82.1904z" />
    <glyph glyph-name="i" unicode="&#xee;" horiz-adv-x="281" 
d="M64 671.22h150.68v-301.35h-41.0898v205.47h-109.59v95.8799zM146.189 547.95l-0.000976562 -205.479h68.4902v-341.79l-150.68 65.3398v481.93h82.1904z" />
    <glyph glyph-name="i" unicode="&#xed;" horiz-adv-x="281" 
d="M64 671.22h150.68v-301.35h-41.0898v205.47h-109.59v95.8799zM146.189 547.95l-0.000976562 -205.479h68.4902v-341.79l-150.68 65.3398v481.93h82.1904z" />
    <glyph glyph-name="i" unicode="&#xec;" horiz-adv-x="281" 
d="M64 671.22h150.68v-301.35h-41.0898v205.47h-109.59v95.8799zM146.189 547.95l-0.000976562 -205.479h68.4902v-341.79l-150.68 65.3398v481.93h82.1904z" />
    <glyph glyph-name="j" unicode="j" horiz-adv-x="580" 
d="M377.28 670.26h150.689v-335.22h-34.7998v248.29h-115.89v86.9297zM465.779 555.93l0.000976562 -248.279h62.04c-1.61035 -111.11 -61.3408 -208.261 -150.541 -262.181c-46.9805 -28.4902 -102.051 -44.9307 -160.951 -44.9307
c-79.04 0 -154.39 29.7305 -212.33 83.5605l168.9 73.0098c13.9805 -3.83008 28.6309 -5.88965 43.4307 -5.88965c88.9004 0 160.95 72.1904 160.95 160.96v243.75h88.5z" />
    <glyph glyph-name="k" unicode="k" horiz-adv-x="665" 
d="M428.79 172.95l-206.409 206.29l-156.38 0.69043v291.8l150.68 -65.21v-158.49l224.39 224.24h213.01l-330.96 -330.95l168.42 -168.37h-62.75zM518.961 145.55l139.91 -139.851h-213.15l-229.04 229.04v-233.56h-150.68v351.36l144.99 -0.650391l206.46 -206.34h101.51z
" />
    <glyph glyph-name="l" unicode="l" horiz-adv-x="559" 
d="M374.22 151.83h171.23v-150.69l-479.4 -0.0498047v0.0498047h-0.0498047v61.6504h308.22v89.04zM346.82 151.83v-61.6504h-280.82l0.0498047 582.14l150.69 -65.3496v-455.14h130.08z" />
    <glyph glyph-name="m" unicode="m" horiz-adv-x="983" 
d="M66 0.870117l-0.000976562 542.27l315.07 -315.07v-83.6396l-164.39 164.24v-307.8h-150.68zM491.479 246.89l423.83 423.841v-669.6l-150.69 65.3398v240.56l-273.14 -273.15l-83.0195 83.1201v122.41l-342.46 342.47v90.2197h0.269531z" />
    <glyph glyph-name="n" unicode="n" horiz-adv-x="703" 
d="M66 0.910156l-0.000976562 543.87l337.24 -293.87v-46.2803l-186.56 163.13v-366.85h-150.68zM635.679 675.511l0.0400391 -674.19l-0.0400391 0.0400391v-0.0898438l-205.04 179.41v82.6904l-364.64 317.74v118.42l419 -366.25v276.89z" />
    <glyph glyph-name="n" unicode="&#xf1;" horiz-adv-x="703" 
d="M66 0.910156l-0.000976562 543.87l337.24 -293.87v-46.2803l-186.56 163.13v-366.85h-150.68zM635.679 675.511l0.0400391 -674.19l-0.0400391 0.0400391v-0.0898438l-205.04 179.41v82.6904l-364.64 317.74v118.42l419 -366.25v276.89z" />
    <glyph glyph-name="o" unicode="o" horiz-adv-x="739" 
d="M110.2 256.04l-3.88965 12.0723l-62.4004 -14.96c-20.1201 77.1699 -12.3398 158.1 22.8203 230.63c80.75 166.52 281.94 236.289 448.44 155.549c80.79 -39.1904 138.72 -106.771 167.819 -184.94l-40.9805 -9.83008c-10.6104 28.7598 -25.54 55.5498 -44.4902 79.8096
c-21.5498 27.5898 -47.5303 50.96 -77.2607 69.4697l-11.6299 7.23047l-60.2998 -96.8896c-25.5996 12.2197 -52.6592 18.0801 -79.3389 18.0801c-68.6904 0 -134.771 -38.3799 -166.69 -104.229c-21.54 -44.4404 -24.5 -94.6201 -8.30957 -141.271
c12.29 -35.4297 34.5205 -65.5498 63.9404 -87.4697l-44.9004 -72.1504c-22.25 15.4697 -41.9404 34.1094 -58.6807 55.5498c-19.5801 25.0498 -34.4297 53.1094 -44.1494 83.3496zM691.53 428.282c21.5498 -76.3604 16.3965 -160.549 -20.873 -237.389
c-39.1104 -80.6504 -107.29 -141.24 -191.99 -170.62c-36.0195 -12.5 -73.2197 -18.7002 -110.239 -18.7002c-50.0596 0 -99.8398 11.3301 -146.189 33.8203c-80.5 39.0303 -141 107.03 -170.44 191.49l36.4404 8.74023c10.6104 -28.7402 25.5508 -55.5303 44.4912 -79.79
c21.5498 -27.5898 47.5303 -50.96 77.2607 -69.4697l11.6299 -7.23047l59.5098 95.5996c2.2998 -1.23047 4.5 -2.60059 6.87012 -3.75098c44.4502 -21.54 94.6504 -24.5205 141.29 -8.33008c46.6797 16.1797 84.25 49.5693 105.79 94.0098
c21.5596 44.4502 24.5195 94.6299 8.3291 141.3c-13.29 38.29 -38.2998 70.29 -71.3496 92.5205l45.1699 72.5898c22.25 -15.4697 41.9502 -34.1094 58.6904 -55.5498c19.5596 -25.0498 34.4199 -53.0898 44.1504 -83.3701l3.88965 -12.0801z" />
    <glyph glyph-name="o" unicode="&#xf8;" horiz-adv-x="739" 
d="M110.2 256.04l-3.88965 12.0723l-62.4004 -14.96c-20.1201 77.1699 -12.3398 158.1 22.8203 230.63c80.75 166.52 281.94 236.289 448.44 155.549c80.79 -39.1904 138.72 -106.771 167.819 -184.94l-40.9805 -9.83008c-10.6104 28.7598 -25.54 55.5498 -44.4902 79.8096
c-21.5498 27.5898 -47.5303 50.96 -77.2607 69.4697l-11.6299 7.23047l-60.2998 -96.8896c-25.5996 12.2197 -52.6592 18.0801 -79.3389 18.0801c-68.6904 0 -134.771 -38.3799 -166.69 -104.229c-21.54 -44.4404 -24.5 -94.6201 -8.30957 -141.271
c12.29 -35.4297 34.5205 -65.5498 63.9404 -87.4697l-44.9004 -72.1504c-22.25 15.4697 -41.9404 34.1094 -58.6807 55.5498c-19.5801 25.0498 -34.4297 53.1094 -44.1494 83.3496zM691.53 428.282c21.5498 -76.3604 16.3965 -160.549 -20.873 -237.389
c-39.1104 -80.6504 -107.29 -141.24 -191.99 -170.62c-36.0195 -12.5 -73.2197 -18.7002 -110.239 -18.7002c-50.0596 0 -99.8398 11.3301 -146.189 33.8203c-80.5 39.0303 -141 107.03 -170.44 191.49l36.4404 8.74023c10.6104 -28.7402 25.5508 -55.5303 44.4912 -79.79
c21.5498 -27.5898 47.5303 -50.96 77.2607 -69.4697l11.6299 -7.23047l59.5098 95.5996c2.2998 -1.23047 4.5 -2.60059 6.87012 -3.75098c44.4502 -21.54 94.6504 -24.5205 141.29 -8.33008c46.6797 16.1797 84.25 49.5693 105.79 94.0098
c21.5596 44.4502 24.5195 94.6299 8.3291 141.3c-13.29 38.29 -38.2998 70.29 -71.3496 92.5205l45.1699 72.5898c22.25 -15.4697 41.9502 -34.1094 58.6904 -55.5498c19.5596 -25.0498 34.4199 -53.0898 44.1504 -83.3701l3.88965 -12.0801z" />
    <glyph glyph-name="o" unicode="&#xf6;" horiz-adv-x="739" 
d="M110.2 256.04l-3.88965 12.0723l-62.4004 -14.96c-20.1201 77.1699 -12.3398 158.1 22.8203 230.63c80.75 166.52 281.94 236.289 448.44 155.549c80.79 -39.1904 138.72 -106.771 167.819 -184.94l-40.9805 -9.83008c-10.6104 28.7598 -25.54 55.5498 -44.4902 79.8096
c-21.5498 27.5898 -47.5303 50.96 -77.2607 69.4697l-11.6299 7.23047l-60.2998 -96.8896c-25.5996 12.2197 -52.6592 18.0801 -79.3389 18.0801c-68.6904 0 -134.771 -38.3799 -166.69 -104.229c-21.54 -44.4404 -24.5 -94.6201 -8.30957 -141.271
c12.29 -35.4297 34.5205 -65.5498 63.9404 -87.4697l-44.9004 -72.1504c-22.25 15.4697 -41.9404 34.1094 -58.6807 55.5498c-19.5801 25.0498 -34.4297 53.1094 -44.1494 83.3496zM691.53 428.282c21.5498 -76.3604 16.3965 -160.549 -20.873 -237.389
c-39.1104 -80.6504 -107.29 -141.24 -191.99 -170.62c-36.0195 -12.5 -73.2197 -18.7002 -110.239 -18.7002c-50.0596 0 -99.8398 11.3301 -146.189 33.8203c-80.5 39.0303 -141 107.03 -170.44 191.49l36.4404 8.74023c10.6104 -28.7402 25.5508 -55.5303 44.4912 -79.79
c21.5498 -27.5898 47.5303 -50.96 77.2607 -69.4697l11.6299 -7.23047l59.5098 95.5996c2.2998 -1.23047 4.5 -2.60059 6.87012 -3.75098c44.4502 -21.54 94.6504 -24.5205 141.29 -8.33008c46.6797 16.1797 84.25 49.5693 105.79 94.0098
c21.5596 44.4502 24.5195 94.6299 8.3291 141.3c-13.29 38.29 -38.2998 70.29 -71.3496 92.5205l45.1699 72.5898c22.25 -15.4697 41.9502 -34.1094 58.6904 -55.5498c19.5596 -25.0498 34.4199 -53.0898 44.1504 -83.3701l3.88965 -12.0801z" />
    <glyph glyph-name="o" unicode="&#xf5;" horiz-adv-x="739" 
d="M110.2 256.04l-3.88965 12.0723l-62.4004 -14.96c-20.1201 77.1699 -12.3398 158.1 22.8203 230.63c80.75 166.52 281.94 236.289 448.44 155.549c80.79 -39.1904 138.72 -106.771 167.819 -184.94l-40.9805 -9.83008c-10.6104 28.7598 -25.54 55.5498 -44.4902 79.8096
c-21.5498 27.5898 -47.5303 50.96 -77.2607 69.4697l-11.6299 7.23047l-60.2998 -96.8896c-25.5996 12.2197 -52.6592 18.0801 -79.3389 18.0801c-68.6904 0 -134.771 -38.3799 -166.69 -104.229c-21.54 -44.4404 -24.5 -94.6201 -8.30957 -141.271
c12.29 -35.4297 34.5205 -65.5498 63.9404 -87.4697l-44.9004 -72.1504c-22.25 15.4697 -41.9404 34.1094 -58.6807 55.5498c-19.5801 25.0498 -34.4297 53.1094 -44.1494 83.3496zM691.53 428.282c21.5498 -76.3604 16.3965 -160.549 -20.873 -237.389
c-39.1104 -80.6504 -107.29 -141.24 -191.99 -170.62c-36.0195 -12.5 -73.2197 -18.7002 -110.239 -18.7002c-50.0596 0 -99.8398 11.3301 -146.189 33.8203c-80.5 39.0303 -141 107.03 -170.44 191.49l36.4404 8.74023c10.6104 -28.7402 25.5508 -55.5303 44.4912 -79.79
c21.5498 -27.5898 47.5303 -50.96 77.2607 -69.4697l11.6299 -7.23047l59.5098 95.5996c2.2998 -1.23047 4.5 -2.60059 6.87012 -3.75098c44.4502 -21.54 94.6504 -24.5205 141.29 -8.33008c46.6797 16.1797 84.25 49.5693 105.79 94.0098
c21.5596 44.4502 24.5195 94.6299 8.3291 141.3c-13.29 38.29 -38.2998 70.29 -71.3496 92.5205l45.1699 72.5898c22.25 -15.4697 41.9502 -34.1094 58.6904 -55.5498c19.5596 -25.0498 34.4199 -53.0898 44.1504 -83.3701l3.88965 -12.0801z" />
    <glyph glyph-name="o" unicode="&#xf4;" horiz-adv-x="739" 
d="M110.2 256.04l-3.88965 12.0723l-62.4004 -14.96c-20.1201 77.1699 -12.3398 158.1 22.8203 230.63c80.75 166.52 281.94 236.289 448.44 155.549c80.79 -39.1904 138.72 -106.771 167.819 -184.94l-40.9805 -9.83008c-10.6104 28.7598 -25.54 55.5498 -44.4902 79.8096
c-21.5498 27.5898 -47.5303 50.96 -77.2607 69.4697l-11.6299 7.23047l-60.2998 -96.8896c-25.5996 12.2197 -52.6592 18.0801 -79.3389 18.0801c-68.6904 0 -134.771 -38.3799 -166.69 -104.229c-21.54 -44.4404 -24.5 -94.6201 -8.30957 -141.271
c12.29 -35.4297 34.5205 -65.5498 63.9404 -87.4697l-44.9004 -72.1504c-22.25 15.4697 -41.9404 34.1094 -58.6807 55.5498c-19.5801 25.0498 -34.4297 53.1094 -44.1494 83.3496zM691.53 428.282c21.5498 -76.3604 16.3965 -160.549 -20.873 -237.389
c-39.1104 -80.6504 -107.29 -141.24 -191.99 -170.62c-36.0195 -12.5 -73.2197 -18.7002 -110.239 -18.7002c-50.0596 0 -99.8398 11.3301 -146.189 33.8203c-80.5 39.0303 -141 107.03 -170.44 191.49l36.4404 8.74023c10.6104 -28.7402 25.5508 -55.5303 44.4912 -79.79
c21.5498 -27.5898 47.5303 -50.96 77.2607 -69.4697l11.6299 -7.23047l59.5098 95.5996c2.2998 -1.23047 4.5 -2.60059 6.87012 -3.75098c44.4502 -21.54 94.6504 -24.5205 141.29 -8.33008c46.6797 16.1797 84.25 49.5693 105.79 94.0098
c21.5596 44.4502 24.5195 94.6299 8.3291 141.3c-13.29 38.29 -38.2998 70.29 -71.3496 92.5205l45.1699 72.5898c22.25 -15.4697 41.9502 -34.1094 58.6904 -55.5498c19.5596 -25.0498 34.4199 -53.0898 44.1504 -83.3701l3.88965 -12.0801z" />
    <glyph glyph-name="o" unicode="&#xf3;" horiz-adv-x="739" 
d="M110.2 256.04l-3.88965 12.0723l-62.4004 -14.96c-20.1201 77.1699 -12.3398 158.1 22.8203 230.63c80.75 166.52 281.94 236.289 448.44 155.549c80.79 -39.1904 138.72 -106.771 167.819 -184.94l-40.9805 -9.83008c-10.6104 28.7598 -25.54 55.5498 -44.4902 79.8096
c-21.5498 27.5898 -47.5303 50.96 -77.2607 69.4697l-11.6299 7.23047l-60.2998 -96.8896c-25.5996 12.2197 -52.6592 18.0801 -79.3389 18.0801c-68.6904 0 -134.771 -38.3799 -166.69 -104.229c-21.54 -44.4404 -24.5 -94.6201 -8.30957 -141.271
c12.29 -35.4297 34.5205 -65.5498 63.9404 -87.4697l-44.9004 -72.1504c-22.25 15.4697 -41.9404 34.1094 -58.6807 55.5498c-19.5801 25.0498 -34.4297 53.1094 -44.1494 83.3496zM691.53 428.282c21.5498 -76.3604 16.3965 -160.549 -20.873 -237.389
c-39.1104 -80.6504 -107.29 -141.24 -191.99 -170.62c-36.0195 -12.5 -73.2197 -18.7002 -110.239 -18.7002c-50.0596 0 -99.8398 11.3301 -146.189 33.8203c-80.5 39.0303 -141 107.03 -170.44 191.49l36.4404 8.74023c10.6104 -28.7402 25.5508 -55.5303 44.4912 -79.79
c21.5498 -27.5898 47.5303 -50.96 77.2607 -69.4697l11.6299 -7.23047l59.5098 95.5996c2.2998 -1.23047 4.5 -2.60059 6.87012 -3.75098c44.4502 -21.54 94.6504 -24.5205 141.29 -8.33008c46.6797 16.1797 84.25 49.5693 105.79 94.0098
c21.5596 44.4502 24.5195 94.6299 8.3291 141.3c-13.29 38.29 -38.2998 70.29 -71.3496 92.5205l45.1699 72.5898c22.25 -15.4697 41.9502 -34.1094 58.6904 -55.5498c19.5596 -25.0498 34.4199 -53.0898 44.1504 -83.3701l3.88965 -12.0801z" />
    <glyph glyph-name="o" unicode="&#xf2;" horiz-adv-x="739" 
d="M110.2 256.04l-3.88965 12.0723l-62.4004 -14.96c-20.1201 77.1699 -12.3398 158.1 22.8203 230.63c80.75 166.52 281.94 236.289 448.44 155.549c80.79 -39.1904 138.72 -106.771 167.819 -184.94l-40.9805 -9.83008c-10.6104 28.7598 -25.54 55.5498 -44.4902 79.8096
c-21.5498 27.5898 -47.5303 50.96 -77.2607 69.4697l-11.6299 7.23047l-60.2998 -96.8896c-25.5996 12.2197 -52.6592 18.0801 -79.3389 18.0801c-68.6904 0 -134.771 -38.3799 -166.69 -104.229c-21.54 -44.4404 -24.5 -94.6201 -8.30957 -141.271
c12.29 -35.4297 34.5205 -65.5498 63.9404 -87.4697l-44.9004 -72.1504c-22.25 15.4697 -41.9404 34.1094 -58.6807 55.5498c-19.5801 25.0498 -34.4297 53.1094 -44.1494 83.3496zM691.53 428.282c21.5498 -76.3604 16.3965 -160.549 -20.873 -237.389
c-39.1104 -80.6504 -107.29 -141.24 -191.99 -170.62c-36.0195 -12.5 -73.2197 -18.7002 -110.239 -18.7002c-50.0596 0 -99.8398 11.3301 -146.189 33.8203c-80.5 39.0303 -141 107.03 -170.44 191.49l36.4404 8.74023c10.6104 -28.7402 25.5508 -55.5303 44.4912 -79.79
c21.5498 -27.5898 47.5303 -50.96 77.2607 -69.4697l11.6299 -7.23047l59.5098 95.5996c2.2998 -1.23047 4.5 -2.60059 6.87012 -3.75098c44.4502 -21.54 94.6504 -24.5205 141.29 -8.33008c46.6797 16.1797 84.25 49.5693 105.79 94.0098
c21.5596 44.4502 24.5195 94.6299 8.3291 141.3c-13.29 38.29 -38.2998 70.29 -71.3496 92.5205l45.1699 72.5898c22.25 -15.4697 41.9502 -34.1094 58.6904 -55.5498c19.5596 -25.0498 34.4199 -53.0898 44.1504 -83.3701l3.88965 -12.0801z" />
    <glyph glyph-name="p" unicode="p" horiz-adv-x="647" 
d="M217.68 418.96l-0.000976562 -139.27h127.85v-45.6602h-127.85v-232.87h-150.68v671.22h79.9004v-253.42h70.7803zM402.608 672.381c120.85 0 219.179 -98.3193 219.179 -219.169s-98.3301 -219.18 -219.18 -219.18h-29.6797v73.0596h-127.85v77.6299h157.53
c37.7695 0 68.5 30.7197 68.5 68.4893c0 37.7598 -30.7305 68.4902 -68.5 68.4902h-184.93v-75.3398h-43.3799v226.02h228.31z" />
    <glyph glyph-name="q" unicode="q" horiz-adv-x="794" 
d="M497.12 85.25c-33.7002 -13.3096 -69.8486 -20.6621 -106.959 -20.6621h-13.6904v-63.5801c-47.6299 1.75977 -95.6201 13.0898 -141.2 35.1699c-85.3096 41.3701 -149.42 113.51 -180.49 203.1s-25.3906 185.91 15.9893 271.24s113.5 149.43 203.09 180.51
s185.92 25.3896 271.25 -15.9707c176.13 -85.4199 249.93 -298.22 164.52 -474.34c-4.19043 -8.65039 -8.77051 -16.9805 -13.5508 -25.1104l-112.99 112.98c33.5801 96.4502 -9.63965 205.25 -103.739 250.86c-28.2002 13.6904 -58.5205 20.5908 -88.9805 20.5908
c-22.5596 0 -45.1895 -3.78027 -67.1191 -11.3799c-51.5596 -17.8896 -93.0693 -54.7793 -116.89 -103.89c-23.8096 -49.0996 -27.0898 -104.529 -9.18945 -156.109c17.8701 -51.5498 54.7803 -93.0693 103.87 -116.869c40.8096 -19.8096 84.9697 -24.6797 126.41 -16.8701z
M510.272 324.367l244.79 -244.788l-106.57 -106.57l-77.5498 77.54c-50.5898 -29.8604 -108.04 -47.04 -167.04 -49.4199v36.3496c49.7402 2.13965 97.7705 15.8994 140.54 39.5791l-182.93 182.93z" />
    <glyph glyph-name="r" unicode="r" horiz-adv-x="695" 
d="M402.65 521.7h-184.98v-75.3398h-43.3301v226.02h228.3c120.85 0 219.18 -98.3203 219.18 -219.17c0 -73.96 -36.9199 -139.34 -93.1895 -179.06l-53.7402 77.46h-229.77v33.1104h157.53c37.7695 0 68.5 30.7197 68.5 68.4893c0 37.7598 -30.7305 68.4902 -68.5 68.4902z
M460.56 324.21l220.41 -323.051h-180.15l-152.58 232.87h-130.56v-167.13l-150.68 -65.3496v670.82l79.96 0.00976562v-253.42h70.7197l0.0400391 -94.75h242.84z" />
    <glyph glyph-name="s" unicode="s" horiz-adv-x="654" 
d="M152.89 486.21l-0.000976562 13.7002h-115.89c6.99023 110.82 99.3105 198.62 211.78 198.62h370v-0.820312l-149.73 -149.86h-220.27c-33.9697 0 -61.6396 -27.6699 -61.6396 -61.6396s27.6699 -61.6494 61.6396 -61.6494h162.33
c112.32 0 204.79 -87.7998 211.78 -198.62h-34.25c-6.99023 91.9102 -83.9707 164.38 -177.53 164.38h-162.33c-52.8799 0 -95.8896 43.0098 -95.8896 95.8896zM561.789 212.24l0.00195312 -13.6992h61.0996c-6.99023 -110.69 -99.46 -198.631 -211.78 -198.631h-328.9
v150.68h328.9c33.9697 0 61.6396 27.6699 61.6396 61.6504c0 33.9697 -27.6699 61.6396 -61.6396 61.6396h-162.33c-112.47 0 -204.79 87.9404 -211.78 198.631h89.3096c6.71973 -61.5098 59.1797 -109.59 122.47 -109.59h162.33c83.0098 0 150.68 -67.5303 150.68 -150.681
z" />
    <glyph glyph-name="t" unicode="t" horiz-adv-x="602" 
d="M305.23 597.04v-224.279h75.2998v-371.62h-150.68v520.55h-216.85v150.68h127.27v-75.3301h164.96zM167.671 672.371h429.711l-59.7305 -150.68h-157.12v-121.54h-47.9004v224.29h-164.96v47.9297z" />
    <glyph glyph-name="u" unicode="u" horiz-adv-x="732" 
d="M528.98 675.74l150.699 -0.000976562v-360.82c0 -75.7695 -27.04 -145.149 -71.5898 -199.409l-78.4102 68.1396l-9.00977 -9.88965c-35.9102 -39.3398 -85.8398 -63.2295 -138.689 -66.7793v44.9805c82.46 8.05957 147 77.5898 147 162.14v361.64zM368.29 79.1396
c61.0498 0 119.841 24.0996 163.301 66.54l58.3896 -50.7402c-57.04 -58.4004 -136.46 -94.6699 -224.15 -94.6699c-173.01 0 -313.83 140.82 -313.83 313.83v361.5l2.0498 -0.820312l148.63 -64.3799v-295.34c0 -87.1104 67.2803 -157.71 151.91 -163.53v-72.3896h13.7002z
" />
    <glyph glyph-name="v" unicode="v" horiz-adv-x="657" 
d="M485.96 668.95h165.881l-272.19 -591.96l-22.6104 48.7695l47.2695 100.48l-60.8496 132.69zM374.11 226.4l-47.3203 -100.561l37.8398 -81.5498l-36.21 -78.7598l-323.42 703.42h165.75z" />
    <glyph glyph-name="w" unicode="w" horiz-adv-x="991" 
d="M453.09 451.62l192.73 -314.359l-40.3701 -87.4502l-110.15 181.29l-166.17 -273.15l-1.7998 5.5498l-323.33 703.21h165.75l178.33 -387.72zM820.71 666.711l165.749 -0.000976562l-323.33 -703.21l-1.80957 -5.5498l-38.7197 63.6602l54.2305 117.48l-207.74 338.83
l26.21 43.04l147.08 -241.97z" />
    <glyph glyph-name="x" unicode="x" horiz-adv-x="694" 
d="M575.47 156.13h-63.1494l-365.42 513.68h63.1504l136.85 -192.33l136.85 192.33h184.79l-229.17 -322.33zM594.95 128.729l90.7197 -127.55h-184.93l-153.84 216.3l-153.83 -216.3h-185.07l246.44 346.3l-229.32 322.33h88.1699l384.91 -541.08h96.75z" />
    <glyph glyph-name="y" unicode="y" horiz-adv-x="721" 
d="M538.31 671.27h182.881l-279.22 -406.43h-29.1104l-215.75 303.08h-127.11l-71 103.35h182.88l178.21 -259.45zM182.98 540.52l215.76 -303.08h35.5996v-236.3h-150.68v255.78l-194.84 283.6h94.1602z" />
    <glyph glyph-name="z" unicode="z" horiz-adv-x="706" 
d="M458.35 343.47l-140.541 -191.1h359.44v-0.269531l-110.54 -150.41h-546.71l353.12 480.52h100.03l-101.88 -138.7h87.1104zM32.8789 660.45h657.531v-0.410156l-212.44 -289.13h-52.5801l101.89 138.69l-494.4 0.169922v150.68z" />
    <glyph glyph-name="braceleft" unicode="{" horiz-adv-x="1194" 
d="M1152.43 683.78l-61.6406 0.00292969v-696.34h61.6396v-82.1904h-143.84v317.36h-248.86v-104.46h-257.58c-14.5801 -29.3701 -44.7998 -49.6504 -79.7402 -49.6504c-49.0996 0 -89.04 39.9404 -89.04 89.04c0 49.0898 39.9404 89.04 89.04 89.04
c33.5703 0 62.8604 -18.7002 78.0205 -46.2305h177.11v127.84h-478.47c-15.1504 -27.5303 -44.4404 -46.2305 -78.0303 -46.2305c-49.0996 0 -89.04 39.9502 -89.04 89.04c0 49.0996 39.9404 89.04 89.04 89.04c34.9502 0 65.1807 -20.29 79.7402 -49.6602h558.95v-104.45
h105.03v168.39h-423.68c-15.1504 -27.54 -44.4404 -46.2402 -78.0303 -46.2402c-49.0898 0 -89.04 39.9502 -89.04 89.04c0 49.0996 39.9502 89.04 89.04 89.04c34.9502 0 65.1807 -20.2803 79.7402 -49.6504h504.16v-250.58h61.6396v460.04h143.84v-82.1904z" />
    <glyph glyph-name="verticalbar" unicode="|" horiz-adv-x="285" 
d="M217.68 -34.2402h-150.68v757.98h150.68v-757.98z" />
    <glyph glyph-name="braceright" unicode="}" horiz-adv-x="1194" 
d="M1072.39 460.04c49.0898 0 89.0391 -39.9434 89.0391 -89.043c0 -49.0898 -39.9502 -89.04 -89.04 -89.04c-33.5801 0 -62.8604 18.7002 -78.0303 46.2305h-478.47v-127.84h177.1c15.1602 27.5303 44.4404 46.2305 78.0303 46.2305
c49.0996 0 89.04 -39.9502 89.04 -89.04c0 -49.0996 -39.9404 -89.04 -89.04 -89.04c-34.9404 0 -65.1807 20.2803 -79.7402 49.6504h-257.58v104.46h-248.87v-317.36h-143.83v82.1904h61.6396v696.34h-61.6396v82.1904h143.83v-460.04h61.6504v250.58h504.16
c14.5703 29.3701 44.79 49.6504 79.7402 49.6504c49.0898 0 89.04 -39.9404 89.04 -89.04c0 -49.0898 -39.9502 -89.04 -89.04 -89.04c-33.5801 0 -62.8701 18.7002 -78.0303 46.2402h-423.68v-168.39h105.03v104.45h558.95c14.5801 29.3701 44.79 49.6602 79.7402 49.6602z
" />
    <glyph glyph-name="asciitilde" unicode="~" horiz-adv-x="321" 
d="M297.01 279.02l4.39941 -32.8496l-118.74 -25.9805l-42.4199 -9.28027l-2.71973 -0.589844v40.8203l-114.13 0.0800781l-4.40039 32.8496l118.73 25.9697l42.4199 9.29004l2.70996 0.580078v-40.8096z" />
    <glyph glyph-name="nonbreakingspace" unicode="&#xa0;" horiz-adv-x="327" 
 />
    <glyph glyph-name="cent" unicode="&#xa2;" horiz-adv-x="515" 
d="M462.42 482.23l-112 -0.000976562v-262.46h112v-123.29h-112v-94.75h-95.8896v94.75h-21.2998c-82.9199 0 -184.229 93.04 -184.229 201.65v112.46c0 111.23 112.83 194.931 186.01 194.931h19.5195v94.7695h95.8896v-94.7695h112v-123.29zM233.72 219.76h20.8291v262.47
h-19.5195c-16.7197 -1.71973 -62.7295 -36.0195 -62.7295 -71.6396v-112.46c0 -42.4199 46.5801 -76.9502 61.4199 -78.3701z" />
    <glyph glyph-name="sterling" unicode="&#xa3;" horiz-adv-x="567" 
d="M335.93 559.86c-16.71 -1.74023 -62.7295 -36.0215 -62.7295 -71.6514v-136.62h112.7v-123.29h-112.7v-107.3h248.54v-123.28h-473.74v123.28h101.92v107.32h-101.92v123.28h101.92v136.62c0 111.23 112.83 194.931 186.01 194.931h185.79v-123.29h-185.79z" />
    <glyph glyph-name="yen" unicode="&#xa5;" horiz-adv-x="595" 
d="M359.45 337.63v-38.5508h130.03v-82.7803h-130.03v-45.0596h130.03v-50.8301h-130.03v-121.56h-123.29v121.56h-136.34v50.8301h136.34v45.0596h-136.34v82.7803h136.34v38.5703l-203.16 347.32h127.34l137.49 -235.06l137.37 235.06h127.34z" />
    <glyph glyph-name="copyright" unicode="&#xa9;" horiz-adv-x="784" 
d="M321.13 315.19c0 -20.0596 16.3203 -36.3711 36.3701 -36.3711h152.8v-95.8896h-152.8c-72.9297 0 -132.25 59.3301 -132.25 132.26v67.6904c0 70.7197 57.5303 128.26 128.25 128.26h152.73v-95.8896h-152.73c-17.8301 0 -32.3701 -14.5195 -32.3701 -32.3691v-67.6904z
M391.75 691.778c190.1 0 344.739 -154.66 344.739 -344.75c0 -190.1 -154.64 -344.75 -344.739 -344.75c-190.09 0 -344.75 154.65 -344.75 344.75c0 190.09 154.66 344.75 344.75 344.75zM391.75 98.168c137.22 0 248.85 111.628 248.85 248.858
s-111.63 248.86 -248.85 248.86c-137.23 0 -248.86 -111.64 -248.86 -248.859s111.63 -248.859 248.86 -248.859z" />
    <glyph glyph-name="softhyphen" unicode="&#xad;" horiz-adv-x="0" 
 />
    <glyph glyph-name="registered" unicode="&#xae;" horiz-adv-x="784" 
d="M535.16 428.06c0 -34.3896 -16.709 -64.9385 -42.459 -83.8389l44.3799 -118.9h-102.33l-72.5996 194.65h69.04c4.51953 0 8.0791 3.57031 8.0791 8.08984v47.2598c0 6.01953 -4.79004 10.8193 -10.8203 10.8193h-86.1602v-260.82h-95.8896v356.71h182.05
c58.7695 0 106.71 -47.8096 106.71 -106.71v-47.2598zM391.751 748.421c190.1 0 344.739 -154.65 344.739 -344.75c0 -190.09 -154.64 -344.75 -344.739 -344.75c-190.09 0 -344.75 154.66 -344.75 344.75c0 190.1 154.66 344.75 344.75 344.75zM391.751 154.811
c137.21 0 248.85 111.64 248.85 248.859s-111.63 248.859 -248.85 248.859c-137.23 0 -248.86 -111.64 -248.86 -248.859s111.63 -248.859 248.86 -248.859z" />
    <glyph glyph-name="Agrave" unicode="&#xc0;" horiz-adv-x="643" 
d="M367.52 384.43l-39.3184 -83.9707h-165.2l204.52 444.65l254.38 -553.28h-316.16l22.0498 47.9404h106.3zM580.801 150.729l41.5098 -90.1299l-138.35 -59.8604l-21.6504 47.25h-271.64l-21.7803 -47.3896h-165.89l118.9 258.76h165.21l-49.8701 -108.63h343.56z
M403.12 772.948l-72.7305 38.1201l-61.8604 84.8896l49.2305 27.8604z" />
    <glyph glyph-name="Aacute" unicode="&#xc1;" horiz-adv-x="643" 
d="M367.52 384.43l-39.3184 -83.9707h-165.2l204.52 444.65l254.38 -553.28h-316.16l22.0498 47.9404h106.3zM580.801 150.729l41.5098 -90.1299l-138.35 -59.8604l-21.6504 47.25h-271.64l-21.7803 -47.3896h-165.89l118.9 258.76h165.21l-49.8701 -108.63h343.56z
M453.9 895.959l-61.8604 -84.8896l-72.7305 -38.1201l85.3604 150.87z" />
    <glyph glyph-name="Acircumflex" unicode="&#xc2;" horiz-adv-x="643" 
d="M367.52 384.43l-39.3184 -83.9707h-165.2l204.52 444.65l254.38 -553.28h-316.16l22.0498 47.9404h106.3zM580.801 150.729l41.5098 -90.1299l-138.35 -59.8604l-21.6504 47.25h-271.64l-21.7803 -47.3896h-165.89l118.9 258.76h165.21l-49.8701 -108.63h343.56z
M331.48 752.209l-49.249 27.8594l36.3701 64.2598l13.9297 24.6299l35.0596 61.9697l16.3398 -28.5596l16.3096 -28.6299l15.6201 -27.2197l37.6396 -66.0098l-49.0195 -28.25l-36.6699 64.1504z" />
    <glyph glyph-name="Atilde" unicode="&#xc3;" horiz-adv-x="643" 
d="M367.52 384.43l-39.3184 -83.9707h-165.2l204.52 444.65l254.38 -553.28h-316.16l22.0498 47.9404h106.3zM580.801 150.729l41.5098 -90.1299l-138.35 -59.8604l-21.6504 47.25h-271.64l-21.7803 -47.3896h-165.89l118.9 258.76h165.21l-49.8701 -108.63h343.56z
M345.181 807.358l-114.142 0.0820312l-4.40039 32.8496l118.74 25.9697l42.4102 9.29004l2.73047 0.589844v-40.8203l114.13 -0.0800781l4.40039 -32.8496l-118.72 -25.9805l-42.4297 -9.28027l-2.71973 -0.580078v40.8096z" />
    <glyph glyph-name="Adieresis" unicode="&#xc4;" horiz-adv-x="643" 
d="M367.52 384.43l-39.3184 -83.9707h-165.2l204.52 444.65l254.38 -553.28h-316.16l22.0498 47.9404h106.3zM580.801 150.729l41.5098 -90.1299l-138.35 -59.8604l-21.6504 47.25h-271.64l-21.7803 -47.3896h-165.89l118.9 258.76h165.21l-49.8701 -108.63h343.56z
M478.791 786.519h-77.6299v77.6299h77.6299v-77.6299zM332.681 786.519h-77.6299v77.6299h77.6299v-77.6299z" />
    <glyph glyph-name="Aring" unicode="&#xc5;" horiz-adv-x="643" 
d="M328.2 300.46l-165.199 -0.000976562l200.22 435.28c-0.0996094 0 -0.199219 -0.00976562 -0.289062 -0.00976562c-41.54 0 -75.3398 33.79 -75.3398 75.3398s33.7998 75.3398 75.3398 75.3398c41.5303 0 75.3398 -33.79 75.3398 -75.3398
c0 -38.6201 -29.2197 -70.4902 -66.6797 -74.8105l250.31 -544.43h-316.16l22.0498 47.9404h106.3l-66.5703 144.66zM342.381 811.069c0 -11.3398 9.21973 -20.5498 20.5498 -20.5498s20.5498 9.21973 20.5498 20.5498s-9.21973 20.5498 -20.5498 20.5498
s-20.5498 -9.21973 -20.5498 -20.5498zM580.801 150.729l41.5098 -90.1299l-138.35 -59.8604l-21.6504 47.25h-271.64l-21.7803 -47.3896h-165.89l118.9 258.76h165.21l-49.8701 -108.63h343.56z" />
    <glyph glyph-name="AE" unicode="&#xc6;" horiz-adv-x="908" 
d="M511.38 551.42l0.00195312 -119.181l0.269531 -0.69043h345.89l-58.9004 -148.76l-0.820312 -1.91992h-216.85l40.96 -89.04h-316.17l22.0596 47.9404h106.3l-66.5801 144.66l-39.3096 -83.9697h-165.2l183.42 398.76l1.09961 2.33008h39.9902l470.82 0.549805v-150.68
h-346.98zM580.802 150.729l0.0292969 -0.0507812h269.83v-150.68h-386.13v43.1602l-2.21973 4.83008h-271.64l-21.7803 -47.3896h-165.89l118.9 258.76h165.21l-49.8701 -108.63h343.56z" />
    <glyph glyph-name="Ccedilla" unicode="&#xc7;" horiz-adv-x="661" 
d="M103.38 365.29v20.5693h-44.9102c10.3496 170.53 149.5 308.71 323.6 314.28c88.6904 2.69043 173.841 -29.4697 239.431 -90.9893c7.28027 -6.82031 14.1504 -13.9404 20.7305 -21.2705l-111.71 -99.5996c-33.8896 37.9004 -82.9893 61.9404 -137.709 61.9404
c-101.98 0 -184.931 -82.9502 -184.931 -184.931c0 -36.5703 10.8203 -70.6104 29.21 -99.3506l-81.7803 -66.0596c-14.8301 21.2803 -26.6904 44.4004 -35.3809 68.9805c-10.9902 31.0596 -16.5498 63.5 -16.5498 96.4297zM527.6 197.39l96.8203 -120.419
c-59.6602 -47.96 -130.57 -74.0801 -202.561 -79.5c0.00976562 -0.94043 0.0292969 -1.87012 0.0390625 -2.69043c0.269531 -17.0996 0.549805 -33.25 -10.5605 -44.5498c-5.70996 -5.82031 -13.3203 -9.02051 -21.4102 -9.02051
c-11.1396 0 -20.5498 -9.41016 -20.5498 -20.54c0 -11.1396 9.41016 -20.5498 20.5498 -20.5498c4.2998 0 8.41992 1.30957 11.9199 3.80957l31.8301 -44.5898c-12.8301 -9.16992 -27.9697 -14.0098 -43.75 -14.0098c-41.5498 0 -75.3398 33.79 -75.3398 75.3398
c0 33.5996 22.1104 62.1299 52.54 71.8203c0 0.480469 -0.00976562 0.94043 -0.0195312 1.37012c-0.0302734 1.17969 -0.0302734 2.33984 -0.0400391 3.51953c-96.4102 6.79004 -190.11 50.4199 -256.561 128.78c-54.0195 63.8701 -82.2793 140.89 -86.5098 218.6h38.9004
c1.91016 -30.5498 8.02051 -60.5898 18.2607 -89.5898c12.5498 -35.4805 30.8799 -68.29 54.5098 -97.5498l12.9004 -15.9805l90.0996 72.7598l7.4502 -6.92969c39.9902 -37.1602 92.0801 -57.6299 146.67 -57.6299c49.4404 0 96.6309 16.8496 134.811 47.5498z
M407.86 -12.0195c5.26953 2.42969 8.69922 5.99902 10.8789 9.35938c-8.36035 -0.549805 -16.7305 -1.01953 -25.1006 -1.01953c-2.17969 0 -4.33984 0.129883 -6.51953 0.169922l-0.370117 -0.549805c1.05957 0.0595703 2.11914 0.0693359 3.18945 0.0693359
c-1.12988 0 -2.22949 -0.0703125 -3.28906 -0.209961l-4.00977 -5.96973c7.2998 -4.91992 16.9902 -5.63965 25.2207 -1.84961z" />
    <glyph glyph-name="Egrave" unicode="&#xc8;" horiz-adv-x="635" 
d="M203.68 236.29l-0.000976562 -85.6094h347.03v-150.68h-497.71v372.43h43.9404v-87.9004h137.84v-48.2402h-31.0996zM591.759 547.94l-346.98 -0.000976562v-119.87h346.16l-58.9004 -148.76l-0.820312 -1.91992h-255.35v48.2197h-137.8v87.9404h-43.9697v285.07h497.66
v-150.68zM389.668 772.949l-72.7295 38.1201l-61.8604 84.8896l49.25 27.8604z" />
    <glyph glyph-name="Eacute" unicode="&#xc9;" horiz-adv-x="635" 
d="M203.68 236.29l-0.000976562 -85.6094h347.03v-150.68h-497.71v372.43h43.9404v-87.9004h137.84v-48.2402h-31.0996zM591.749 547.94l-346.99 -0.000976562v-119.87h346.16l-58.9004 -148.76l-0.820312 -1.91992h-255.34v48.2197h-137.81v87.9404h-43.9697v285.07h497.67
v-150.68zM389.669 895.959l-61.8701 -84.8896l-72.7197 -38.1201l85.3398 150.87z" />
    <glyph glyph-name="Ecircumflex" unicode="&#xca;" horiz-adv-x="635" 
d="M203.68 236.29v-85.6094h347.03v-150.68h-497.71v372.43h43.9404v-87.9004h137.85v-48.2402h-31.1104zM591.76 547.94l-346.98 -0.000976562v-119.87h346.16l-58.9004 -148.76l-0.820312 -1.91992h-255.35v48.2197h-137.8v87.9404h-43.9697v285.07h497.66v-150.68z
M285.979 752.209l-49.2295 27.8594l36.3604 64.2598l13.9297 24.6299l35.0703 61.9697l16.3398 -28.5596l16.2998 -28.6299l15.6201 -27.2197l37.6396 -66.0098l-49.0098 -28.25l-36.6904 64.1504z" />
    <glyph glyph-name="Edieresis" unicode="&#xcb;" horiz-adv-x="635" 
d="M203.68 236.29v-85.6094h347.04v-150.68h-497.72v372.43h43.96v-87.9004h137.83v-48.2402h-31.1104zM591.76 547.94l-346.98 -0.000976562v-119.87h346.16l-58.9004 -148.76l-0.820312 -1.91992h-255.35v48.2197h-137.8v87.9404h-43.9697v285.07h497.66v-150.68z
M434.26 786.52h-77.6299v77.6299h77.6299v-77.6299zM288.149 786.52h-77.6299v77.6299h77.6299v-77.6299z" />
    <glyph glyph-name="Igrave" unicode="&#xcc;" horiz-adv-x="300" 
d="M99.0996 696.34h150.68v-315.06h-41.0996v191.77h-109.58v123.29zM167.589 531.96v-191.78h41.0898v-341.64l-150.68 65.2002v468.22h109.59zM248.569 727.29l-72.71 38.1201l-61.8701 84.8896l49.2402 27.8604z" />
    <glyph glyph-name="Iacute" unicode="&#xcd;" horiz-adv-x="300" 
d="M99.0996 696.34h150.68v-315.06h-41.0996v191.77h-109.58v123.29zM167.589 531.96v-191.78h41.0898v-341.64l-150.68 65.2002v468.22h109.59zM248.589 850.3l-61.8799 -84.8896l-72.7197 -38.1201l85.3496 150.87z" />
    <glyph glyph-name="Icircumflex" unicode="&#xce;" horiz-adv-x="300" 
d="M99.0996 573.05v123.29h150.68v-315.06h-41.0996v191.77h-109.58zM167.59 531.96v-191.78h41.0898v-341.64l-150.68 65.2002v468.22h109.59zM144.899 706.55l-49.2402 27.8594l45.9697 81.2598l6.94043 12.2695l15.8799 28.0703l16.5596 29.2598l16.3496 -28.5596
l16.2998 -28.6299l15.6104 -27.2197l37.6504 -66.0098l-49.0195 -28.25l-36.6797 64.1504z" />
    <glyph glyph-name="Idieresis" unicode="&#xcf;" horiz-adv-x="300" 
d="M99.0996 573.05v123.29h150.68v-315.06h-41.0996v191.77h-109.58zM167.59 531.96v-191.78h41.0898v-341.64l-150.68 65.2002v468.22h109.59zM293.16 740.859h-77.6299v77.6299h77.6299v-77.6299zM147.04 740.859h-77.6299v77.6299h77.6299v-77.6299z" />
    <glyph glyph-name="Ntilde" unicode="&#xd1;" horiz-adv-x="737" 
d="M519.13 632.99l150.69 65.3594v-697.93l-218.78 191.36v64.5l-350.94 305.8v136.59l419.03 -366.3v300.62zM59 0.0498047l-0.000976562 520.939l350.94 -305.81v-64.4902l-200.26 175.11v-325.75h-150.68zM375.069 770.829l-114.141 0.0888672l-4.40039 32.8496
l118.73 25.9697l42.4199 9.29004l2.70996 0.570312v-40.8096l114.15 -0.0800781l4.40039 -32.8496l-118.74 -25.9697l-42.4199 -9.29004l-2.70996 -0.589844v40.8203z" />
    <glyph glyph-name="Ograve" unicode="&#xd2;" horiz-adv-x="730" 
d="M103.02 282.18l-53.2656 -11.9297c-20.5303 79.5996 -14.8203 170.569 22.1895 243.81c5.42969 10.7197 11.3701 21.0898 17.7998 31.0596c41.4805 64.3496 103.221 112.17 176.961 136.41c85.1504 27.9902 176.12 21.1406 256.13 -19.2793
c79.3799 -40.0996 138.479 -108.54 166.739 -192.78l-36.2197 -8.07031c-10.2598 27.4404 -24.3994 53.1309 -42.1191 76.6309c-21.5898 28.5898 -47.8096 52.9102 -77.9092 72.3301l-17.2695 11.1299l-60.6396 -94.0498
c-0.179688 0.0898438 -0.349609 0.219727 -0.540039 0.30957c-44.0898 22.2803 -94.2197 26.0605 -141.149 10.6309c-46.9297 -15.4102 -85.04 -48.2197 -107.3 -92.2695c-22.29 -44.0996 -26.0498 -94.2197 -10.6396 -141.149
c11.4805 -34.9004 32.6709 -64.8105 60.8613 -87.0508l-55.7695 -86.5801c-19.0596 14.5 -36.0098 31.5098 -50.54 50.7295c-18.6699 24.71 -32.7295 52.2695 -41.7695 81.8994zM681.654 425.64c19.6299 -78.9404 12.2842 -169.746 -24.3662 -242.306
c-40.4199 -80.0303 -109.6 -139.5 -194.75 -167.49c-85.1797 -28 -176.14 -21.1396 -256.149 19.29c-78.79 39.8096 -137.521 107.56 -166.03 190.939l35.0498 7.83984c10.2695 -27.4404 24.4092 -53.1406 42.1494 -76.6211
c21.5996 -28.5703 47.8193 -52.8906 77.9297 -72.291l17.2695 -11.1104l61.6396 95.7197c44.0703 -22.25 94.1699 -26 141.07 -10.5898c40.6201 13.3398 74.6396 39.71 97.5098 75.1602c3.5498 5.49023 6.81934 11.21 9.80957 17.1201
c22.2695 44.0898 26.0391 94.2197 10.6094 141.14c-11.3799 34.6797 -32.3496 64.4492 -60.29 86.6396l54.7998 84.9697c19.0498 -14.5 36 -31.5195 50.5195 -50.75c18.6602 -24.71 32.7002 -52.2695 41.7197 -81.9199l5.5498 -18.21zM432.428 727.294l-72.7305 38.1201
l-61.8701 84.8896l49.2402 27.8604z" />
    <glyph glyph-name="Oacute" unicode="&#xd3;" horiz-adv-x="729" 
d="M102.02 282.18l-53.2656 -11.9297c-20.5303 79.5996 -14.8203 170.569 22.1895 243.81c5.42969 10.7197 11.3701 21.0898 17.7998 31.0596c41.4805 64.3496 103.221 112.17 176.961 136.41c85.1504 27.9902 176.12 21.1406 256.13 -19.2793
c79.3799 -40.0996 138.479 -108.54 166.739 -192.78l-36.2197 -8.07031c-10.2598 27.4404 -24.3994 53.1309 -42.1191 76.6309c-21.5898 28.5898 -47.8096 52.9102 -77.9092 72.3301l-17.2695 11.1299l-60.6396 -94.0498
c-0.179688 0.0898438 -0.349609 0.219727 -0.540039 0.30957c-44.0898 22.2803 -94.2197 26.0605 -141.149 10.6309c-46.9297 -15.4102 -85.04 -48.2197 -107.3 -92.2695c-22.29 -44.0996 -26.0498 -94.2197 -10.6396 -141.149
c11.4805 -34.9004 32.6709 -64.8105 60.8613 -87.0508l-55.7695 -86.5801c-19.0596 14.5 -36.0098 31.5098 -50.54 50.7295c-18.6699 24.71 -32.7295 52.2695 -41.7695 81.8994zM680.664 425.64c19.6201 -78.9404 12.2686 -169.746 -24.3613 -242.286
c-40.4297 -80.0303 -109.609 -139.511 -194.76 -167.501c-85.1699 -28 -176.13 -21.1299 -256.149 19.29c-78.79 39.8096 -137.51 107.56 -166.02 190.939l35.04 7.83984c10.2695 -27.4404 24.4092 -53.1406 42.1494 -76.6211
c21.5996 -28.5703 47.8193 -52.8906 77.9297 -72.2803l17.2695 -11.1299l61.6504 95.7197c44.0703 -22.25 94.1602 -26 141.07 -10.5898c40.6104 13.3398 74.6406 39.71 97.501 75.1602c3.5498 5.49023 6.81934 11.21 9.80957 17.1201
c22.2695 44.0898 26.0391 94.2197 10.6191 141.14c-11.3896 34.6797 -32.3594 64.4492 -60.2891 86.6396l54.79 84.9697c19.0596 -14.5 36 -31.5195 50.5195 -50.75c18.6602 -24.71 32.7002 -52.2695 41.7305 -81.9199l5.5498 -18.21zM431.422 850.304l-61.8799 -84.8896
l-72.71 -38.1201l85.3398 150.87z" />
    <glyph glyph-name="Ocircumflex" unicode="&#xd4;" horiz-adv-x="729" 
d="M102.02 282.18l-53.2646 -11.9297c-20.5303 79.5996 -14.8203 170.569 22.1895 243.81c5.42969 10.7197 11.3701 21.0898 17.7998 31.0596c41.4805 64.3496 103.221 112.17 176.961 136.41c85.1504 27.9902 176.101 21.1406 256.131 -19.2793
c79.3701 -40.0996 138.47 -108.54 166.729 -192.78l-36.2197 -8.07031c-10.2598 27.4404 -24.3994 53.1309 -42.1299 76.6309c-21.5898 28.5898 -47.7998 52.9102 -77.8994 72.3301l-17.2695 11.1299l-60.6504 -94.0498
c-0.179688 0.0898438 -0.339844 0.219727 -0.530273 0.30957c-44.0996 22.2803 -94.2197 26.0605 -141.149 10.6309c-46.9199 -15.4102 -85.04 -48.2197 -107.3 -92.2695c-22.2803 -44.0996 -26.04 -94.2197 -10.6299 -141.149
c11.4805 -34.9004 32.6709 -64.8105 60.8613 -87.0508l-55.7695 -86.5801c-19.0596 14.5 -36.0098 31.5098 -50.54 50.7295c-18.6699 24.71 -32.7295 52.2695 -41.7695 81.8994zM680.665 425.64c19.6201 -78.9404 12.2783 -169.746 -24.3613 -242.286
c-40.4297 -80.0303 -109.609 -139.511 -194.76 -167.501c-85.1699 -28 -176.13 -21.1299 -256.149 19.29c-78.79 39.8096 -137.51 107.56 -166.02 190.939l35.04 7.83984c10.2695 -27.4404 24.4092 -53.1406 42.1494 -76.6211
c21.5996 -28.5703 47.8193 -52.8906 77.9297 -72.2803l17.2695 -11.1299l61.6504 95.7197c44.0703 -22.25 94.1602 -26 141.07 -10.5898c40.6104 13.3398 74.6406 39.71 97.501 75.1602c3.5498 5.49023 6.81934 11.21 9.80957 17.1201
c22.2695 44.0898 26.0391 94.2197 10.6191 141.14c-11.3896 34.6797 -32.3594 64.4492 -60.2891 86.6396l54.79 84.9697c19.0596 -14.5 36 -31.5195 50.5195 -50.75c18.6602 -24.71 32.7002 -52.2695 41.7305 -81.9199l5.5498 -18.21zM327.743 706.554l-49.25 27.8594
l36.3604 64.2598l16.5596 29.2695l15.8701 28.0703l16.5703 29.2598l16.3398 -28.5596l16.2998 -28.6299l15.6201 -27.2197l37.6396 -66.0098l-49.0098 -28.25l-36.6904 64.1504z" />
    <glyph glyph-name="Otilde" unicode="&#xd5;" horiz-adv-x="729" 
d="M102.02 282.18l-53.2656 -11.9297c-20.5303 79.5996 -14.8203 170.569 22.1895 243.81c5.42969 10.7197 11.3701 21.0898 17.7998 31.0596c41.4805 64.3496 103.221 112.17 176.961 136.41c85.1504 27.9902 176.12 21.1406 256.13 -19.2793
c79.3799 -40.0996 138.479 -108.54 166.739 -192.78l-36.2197 -8.07031c-10.2598 27.4404 -24.3994 53.1309 -42.1191 76.6309c-21.5898 28.5898 -47.8096 52.9102 -77.9092 72.3301l-17.2695 11.1299l-60.6396 -94.0498
c-0.179688 0.0898438 -0.349609 0.219727 -0.540039 0.30957c-44.0898 22.2803 -94.2197 26.0605 -141.149 10.6309c-46.9297 -15.4102 -85.04 -48.2197 -107.3 -92.2695c-22.29 -44.0996 -26.0498 -94.2197 -10.6396 -141.149
c11.4805 -34.9004 32.6709 -64.8105 60.8613 -87.0508l-55.7695 -86.5801c-19.0596 14.5 -36.0098 31.5098 -50.54 50.7295c-18.6699 24.71 -32.7295 52.2695 -41.7695 81.8994zM680.664 425.64c19.6201 -78.9404 12.2783 -169.746 -24.3613 -242.286
c-40.4297 -80.0303 -109.609 -139.511 -194.76 -167.501c-85.1699 -28 -176.13 -21.1299 -256.149 19.29c-78.79 39.8096 -137.51 107.56 -166.02 190.939l35.04 7.83984c10.2695 -27.4404 24.4092 -53.1406 42.1494 -76.6211
c21.5996 -28.5703 47.8193 -52.8906 77.9297 -72.2803l17.2695 -11.1299l61.6504 95.7197c44.0703 -22.25 94.1602 -26 141.07 -10.5898c40.6104 13.3398 74.6406 39.71 97.501 75.1602c3.5498 5.49023 6.81934 11.21 9.80957 17.1201
c22.2695 44.0898 26.0391 94.2197 10.6191 141.14c-11.3896 34.6797 -32.3594 64.4492 -60.2891 86.6396l54.79 84.9697c19.0596 -14.5 36 -31.5195 50.5195 -50.75c18.6602 -24.71 32.7002 -52.2695 41.7305 -81.9199l5.5498 -18.21zM341.462 770.834l-114.15 0.0888672
l-4.38965 32.8496l118.73 25.9697l42.4297 9.29004l2.70996 0.570312v-40.8096l114.14 -0.0800781l4.38965 -32.8496l-118.72 -25.9697l-42.4297 -9.29004l-2.70996 -0.589844v40.8203z" />
    <glyph glyph-name="Odieresis" unicode="&#xd6;" horiz-adv-x="729" 
d="M102.02 282.18l-53.2646 -11.9297c-20.5303 79.5996 -14.8203 170.569 22.1895 243.81c5.42969 10.7197 11.3701 21.0898 17.7998 31.0596c41.4805 64.3496 103.221 112.17 176.961 136.41c85.1504 27.9902 176.101 21.1406 256.131 -19.2793
c79.3701 -40.0996 138.47 -108.54 166.729 -192.78l-36.2197 -8.07031c-10.2598 27.4404 -24.3994 53.1309 -42.1299 76.6309c-21.5898 28.5898 -47.7998 52.9102 -77.8994 72.3301l-17.2695 11.1299l-60.6504 -94.0498
c-0.179688 0.0898438 -0.339844 0.219727 -0.530273 0.30957c-44.0996 22.2803 -94.2197 26.0605 -141.149 10.6309c-46.9199 -15.4102 -85.04 -48.2197 -107.3 -92.2695c-22.2803 -44.0996 -26.04 -94.2197 -10.6299 -141.149
c11.4805 -34.9004 32.6709 -64.8105 60.8613 -87.0508l-55.7695 -86.5801c-19.0596 14.5 -36.0098 31.5098 -50.54 50.7295c-18.6699 24.71 -32.7295 52.2695 -41.7695 81.8994zM680.655 425.64c19.6299 -78.9404 12.2842 -169.746 -24.3662 -242.286
c-40.4199 -80.0303 -109.6 -139.511 -194.75 -167.501c-85.1797 -28 -176.14 -21.1299 -256.149 19.29c-78.79 39.8096 -137.521 107.56 -166.03 190.939l35.0498 7.83984c10.2695 -27.4404 24.4092 -53.1406 42.1494 -76.6211
c21.5996 -28.5703 47.8193 -52.8906 77.9297 -72.2803l17.2695 -11.1299l61.6396 95.7197c44.0703 -22.25 94.1699 -26 141.07 -10.5898c40.6201 13.3398 74.6396 39.71 97.5098 75.1602c3.5498 5.49023 6.81934 11.21 9.80957 17.1201
c22.2695 44.0898 26.0391 94.2197 10.6094 141.14c-11.3799 34.6797 -32.3496 64.4492 -60.29 86.6396l54.7998 84.9697c19.0498 -14.5 36 -31.5195 50.5195 -50.75c18.6602 -24.71 32.7002 -52.2695 41.7197 -81.9199l5.5498 -18.21zM476.009 740.863h-77.6299v77.6299
h77.6299v-77.6299zM329.879 740.863h-77.6299v77.6299h77.6299v-77.6299z" />
    <glyph glyph-name="multiply" unicode="&#xd7;" horiz-adv-x="331" 
d="M300.41 341.58l-87.5801 -87.5898l87.5801 -87.5801l-47.6299 -47.6299l-87.5801 87.5898l-87.5703 -87.5898l-47.6299 47.6299l87.5703 87.5801l-87.5703 87.5898l47.6299 47.6104l87.5703 -87.5703l87.5801 87.5703z" />
    <glyph glyph-name="Oslash" unicode="&#xd8;" horiz-adv-x="734" 
d="M685.66 425.64c19.6201 -78.9404 12.2783 -169.749 -24.3818 -242.289c-40.4297 -80.0303 -109.6 -139.511 -194.75 -167.501c-85.1797 -28 -176.14 -21.1299 -256.149 19.29c-17.21 8.7002 -33.2598 18.9502 -48.4502 30.1807l-53.4102 -82.5303l-45.9902 29.7598
l57.8203 89.3604c-33.71 34.9697 -59.8496 76.9297 -76 124.17l35.04 7.83984c10.2803 -27.4404 24.4102 -53.1406 42.1504 -76.6211c6.15039 -8.12012 12.7607 -15.79 19.6309 -23.21l23.1299 35.7197c-3.42969 4 -6.76953 8.05957 -9.95996 12.2793
c-18.6699 24.71 -32.7295 52.2695 -41.7695 81.8994l-5.5498 18.2197l-53.2598 -11.9102c-20.5303 79.6104 -14.8203 170.58 22.1895 243.811c5.42969 10.7305 11.3701 21.1006 17.7998 31.0703c41.4805 64.3398 103.221 112.16 176.961 136.41
c73.2598 24.0703 150.779 22.3008 221.949 -4.36914l61.9199 95.6699l45.9902 -29.7695l-58.0596 -89.71c71.3604 -40.9004 124.73 -105.37 151.07 -183.89l-36.2197 -8.07031c-10.2598 27.4404 -24.3994 53.1406 -42.1191 76.6309
c-21.5898 28.5898 -47.8096 52.9199 -77.9092 72.3301l-15.9805 10.3203l-268.41 -414.78l-48.04 -74.5898c-0.0595703 0.0400391 -0.0996094 0.0800781 -0.149414 0.120117l-22.2803 -34.4199c5.57031 -4.13965 11.1504 -8.25977 17.0205 -12.04l17.2695 -11.1299
l61.6396 95.7197c44.0703 -22.25 94.1699 -26 141.07 -10.5898c40.6201 13.3398 74.6396 39.71 97.5098 75.1602c3.5498 5.49023 6.81934 11.21 9.80957 17.1201c22.2695 44.0898 26.0391 94.2197 10.6094 141.14c-11.3799 34.6797 -32.3496 64.4492 -60.29 86.6396
l54.7998 84.9697c19.0498 -14.5 36 -31.5195 50.5195 -50.75c18.6602 -24.71 32.7002 -52.2695 41.7197 -81.9199l5.5498 -18.21zM199.788 304.99c5.41016 -16.4404 13.0293 -31.7012 22.4492 -45.6514l184.86 285.67c-29.5303 5.16992 -60.0801 3.03027 -89.3701 -6.59961
c-46.9297 -15.4102 -85.04 -48.2197 -107.3 -92.2695c-22.29 -44.0996 -26.0498 -94.2197 -10.6396 -141.149z" />
    <glyph glyph-name="Ugrave" unicode="&#xd9;" horiz-adv-x="719" 
d="M528.85 696.21l137.378 -0.00195312v-376.77c0 -36.4199 -6.62012 -72 -19.71 -105.74c-10.6299 -27.5195 -25.1104 -52.9492 -43.1699 -75.8389l-72.5 65.8398l-13.8096 -15.2402c-32.4297 -35.7998 -76.7393 -58.2295 -124.669 -63.2598l0.200195 40.7197
c75.6602 10.1504 136.28 76.8906 136.28 154.811v375.48zM372.817 83.0078c59.3701 0 116.699 22.8203 160.199 63.2002l61.8701 -56.1797c-57.6904 -55.6904 -136 -89.9805 -222.21 -89.9805c-176.85 0 -320.68 143.83 -320.68 320.68v374.79l146.59 -63.4199l-0.5 -312.66
c0 -41.3701 14.7598 -81.5303 41.54 -113.08c26.79 -31.5498 64.04 -52.6094 104.86 -59.3096l6.88965 -1.13965l0.780273 -62.9004h20.6602zM426.416 702.128l-72.7197 38.1201l-61.8799 84.8896l49.25 27.8604z" />
    <glyph glyph-name="Uacute" unicode="&#xda;" horiz-adv-x="719" 
d="M528.85 696.21l137.378 -0.00195312v-376.77c0 -36.4199 -6.62012 -72 -19.71 -105.74c-10.6299 -27.5195 -25.1104 -52.9492 -43.1699 -75.8389l-72.5 65.8398l-13.8096 -15.2402c-32.4297 -35.7998 -76.7393 -58.2295 -124.669 -63.2598l0.200195 40.7197
c75.6602 10.1504 136.28 76.8906 136.28 154.811v375.48zM372.808 83.0078c59.3701 0 116.689 22.8203 160.209 63.2002l61.8701 -56.1797c-57.6904 -55.6904 -136 -89.9805 -222.21 -89.9805c-176.85 0 -320.68 143.83 -320.68 320.68v374.79l146.57 -63.4199
l-0.490234 -312.66c0 -41.3701 14.75 -81.5303 41.5303 -113.08c26.7998 -31.5498 64.0498 -52.6094 104.87 -59.3096l6.88965 -1.13965l0.780273 -62.9004h20.6602zM426.406 825.138l-61.8594 -84.8896l-72.7305 -38.1201l85.3398 150.87z" />
    <glyph glyph-name="Ucircumflex" unicode="&#xdb;" horiz-adv-x="719" 
d="M528.86 696.21h137.379v-376.78c0 -36.4199 -6.61035 -72 -19.71 -105.74c-10.6299 -27.5195 -25.1104 -52.96 -43.1602 -75.8496l-72.5098 65.8496l-13.8096 -15.25c-32.4199 -35.79 -76.7402 -58.2305 -124.67 -63.2607l0.209961 40.7402
c75.6504 10.1504 136.271 76.8906 136.271 154.811v375.48zM372.819 83.0098c59.3701 0 116.699 22.8203 160.199 63.2002l61.8701 -56.1797c-57.6904 -55.6904 -136 -89.9805 -222.21 -89.9805c-176.85 0 -320.68 143.83 -320.68 320.68v374.79l146.59 -63.4199
l-0.5 -312.66c0 -41.3701 14.7598 -81.5303 41.54 -113.08c26.79 -31.5498 64.04 -52.6094 104.86 -59.3096l6.88965 -1.13965l0.780273 -62.9004h20.6602zM359.068 745.59l-36.3311 -64.2021l-49.25 27.8604l85.3604 150.86l16.3398 -28.5596l16.2998 -28.6299
l15.6201 -27.2197l37.6504 -66.0098l-49.0195 -28.25z" />
    <glyph glyph-name="Udieresis" unicode="&#xdc;" horiz-adv-x="719" 
d="M528.86 696.21l137.379 -0.00195312v-376.77c0 -36.4199 -6.61035 -72 -19.71 -105.74c-10.6299 -27.5195 -25.1104 -52.9492 -43.1602 -75.8389l-72.5098 65.8398l-13.8096 -15.2402c-32.4199 -35.7998 -76.7402 -58.2295 -124.67 -63.2598l0.209961 40.7197
c75.6504 10.1504 136.271 76.8906 136.271 154.811v375.48zM372.819 83.0078c59.3701 0 116.699 22.8203 160.199 63.2002l61.8701 -56.1797c-57.6904 -55.6904 -136 -89.9805 -222.21 -89.9805c-176.85 0 -320.68 143.83 -320.68 320.68v374.79l146.59 -63.4199
l-0.5 -312.66c0 -41.3701 14.7598 -81.5303 41.54 -113.08c26.79 -31.5498 64.04 -52.6094 104.86 -59.3096l6.88965 -1.13965l0.780273 -62.9004h20.6602zM471.009 715.698h-77.6299v77.6299h77.6299v-77.6299zM324.889 715.698h-77.6299v77.6299h77.6299v-77.6299z" />
    <glyph glyph-name="Yacute" unicode="&#xdd;" horiz-adv-x="700" 
d="M154.66 554.17l215.749 -303.08h28.5303v-250h-150.68v255.79l-204.25 297.29h110.65zM530.31 712.32l182.88 0.000976562l-286.85 -417.53v-2.61035h-28.54l-215.75 303.08h-110.64l-80.4102 117.06h182.88l178.21 -259.45zM419.39 825.142l-61.8701 -84.8896
l-72.7305 -38.1201l85.3604 150.87z" />
    <glyph glyph-name="germandbls" unicode="&#xdf;" horiz-adv-x="642" 
d="M584.72 526.64l0.0185547 -78.9814c0 -36.0996 -10.2002 -69.6396 -27.5801 -97.4492c17.3398 -27.2598 27.5801 -60.2598 27.5801 -95.8398v-78.9697c0 -95.79 -71.6201 -173.71 -159.66 -173.71h-125.4v150.68h125.4c1.49023 0.700195 8.9707 8.18066 8.9707 23.0303
v78.9697c0 10.3203 -4.26953 16.5205 -6.47949 18.3604h-123.83v150.68l121.33 1.23047c1.49023 0.700195 8.9707 8.18066 8.9707 23.0303v78.9697c0 10.3203 -4.28027 16.5205 -6.48047 18.3604h-206.4c-2.2002 -1.83984 -6.48047 -8.04004 -6.48047 -18.3604v-526.36
h-150.68v526.36c0 93.2197 69.8398 169.04 155.66 169.04h209.41c85.8203 0 155.65 -75.8203 155.65 -169.04z" />
    <glyph glyph-name="agrave" unicode="&#xe0;" 
d="M328.42 343.86l-32.3018 -70.29h-165.85l198.15 430.97l248.07 -539.58h-299.99l15.7305 34.2402h102.74zM589.118 137.561l35.2207 -76.5791l-138.22 -59.8604l-21.7803 47.4004h-271.67l-21.7803 -47.4004h-165.89l112.68 245.05h165.84l-49.71 -108.61h355.31z
M395.648 727.241l-72.71 38.1201l-61.8701 84.8896l49.2402 27.8604z" />
    <glyph glyph-name="aacute" unicode="&#xe1;" 
d="M328.42 343.86l-32.3018 -70.29h-165.85l198.15 430.97l248.07 -539.58h-299.97l15.7197 34.2402h102.73zM589.128 137.561l35.21 -76.5791l-138.22 -59.8604l-21.7803 47.4004h-271.66l-21.79 -47.4004h-165.89l112.68 245.05h165.85l-49.7197 -108.61h355.32z
M395.647 850.251l-61.8604 -84.8896l-72.7197 -38.1201l85.3496 150.87z" />
    <glyph glyph-name="acircumflex" unicode="&#xe2;" 
d="M328.42 343.86l-32.2998 -70.29h-165.83l198.13 430.97l248.08 -539.58h-299.98l15.7197 34.2402h102.73zM589.13 137.561l35.21 -76.5791l-138.22 -59.8604l-21.7803 47.4004h-271.66l-21.79 -47.4004h-165.89l112.68 245.05h165.85l-49.7197 -108.61h355.32z
M291.979 706.501l-49.2402 27.8594l36.3701 64.2598l16.5498 29.2803l15.8701 28.0596l16.5596 29.2598l16.3496 -28.5596l16.2998 -28.6299l15.6104 -27.2197l37.6504 -66.0098l-49.0195 -28.25l-36.6797 64.1504z" />
    <glyph glyph-name="atilde" unicode="&#xe3;" 
d="M328.42 343.86l-32.3018 -70.29h-165.85l198.15 430.97l248.07 -539.58h-299.97l15.7197 34.2402h102.73zM589.118 137.561l35.2207 -76.5791l-138.22 -59.8604l-21.7803 47.4004h-271.66l-21.79 -47.4004h-165.89l112.68 245.05h165.85l-49.7197 -108.61h355.31z
M305.699 761.651l-114.141 0.0820312l-4.40039 32.8496l118.73 25.9697l42.4199 9.29004l2.70996 0.589844v-40.8203l114.15 -0.0800781l4.40039 -32.8496l-118.74 -25.9805l-42.4199 -9.28027l-2.70996 -0.580078v40.8096z" />
    <glyph glyph-name="adieresis" unicode="&#xe4;" 
d="M328.42 343.86l-32.3018 -70.29h-165.85l198.15 430.97l248.07 -539.58h-299.99l15.7305 34.2402h102.73zM589.118 137.561l35.2012 -76.5791l-138.21 -59.8604l-21.7803 47.4004h-271.66l-21.7803 -47.4004h-165.89l112.67 245.05h165.85l-49.71 -108.61h355.31z
M440.239 740.812h-77.6299v77.6299h77.6299v-77.6299zM294.119 740.812h-77.6299v77.6299h77.6299v-77.6299z" />
    <glyph glyph-name="aring" unicode="&#xe5;" 
d="M296.12 273.57h-165.83l191.61 416.78c-38.5 3.2998 -68.8604 35.6602 -68.8604 75.0098c0 41.54 33.8096 75.3398 75.3398 75.3398s75.3398 -33.7998 75.3398 -75.3398c0 -39.3301 -30.2998 -71.6699 -68.7598 -75.0098l241.54 -525.41h-299.98l15.7197 34.2598h102.73
l-66.5498 144.64zM307.83 765.36c0 -11.3301 9.21973 -20.5498 20.5498 -20.5498s20.5498 9.21973 20.5498 20.5498s-9.21973 20.5498 -20.5498 20.5498s-20.5498 -9.21973 -20.5498 -20.5498zM589.13 137.561l35.21 -76.5791l-138.22 -59.8604l-21.7803 47.4004h-271.66
l-21.79 -47.4004h-165.89l112.68 245.05h165.85l-49.7197 -108.61h355.32z" />
    <glyph glyph-name="ae" unicode="&#xe6;" horiz-adv-x="862" 
d="M523.89 137.56l2.10938 0.520508h284.2l-0.0400391 -137.84h-407.59l0.0302734 48.2803h-209.93l-21.7803 -47.4004h-165.89l112.68 245.05h165.84l-49.71 -108.61h290.08zM810.199 519.35h-347.119v-106.16h347.12v-2.05957l-58.9004 -148.63h-219.66
l0.0302734 -0.0400391l44.79 -97.5303h-300l15.7598 34.2402h102.74l-66.5801 144.66l-32.1904 -70.2695h-165.89l182.05 396.02l0.0400391 0.139648v0.30957h497.81v-150.68z" />
    <glyph glyph-name="ccedilla" unicode="&#xe7;" horiz-adv-x="630" 
d="M99.5898 336.2l-0.0195312 13.6992h-66.5703c7.21973 178.72 154.8 321.91 335.27 321.91c88.3496 0 174.85 -35.8301 237.31 -98.3105l-106.56 -106.53c-34.4102 34.4199 -82.0703 54.1602 -130.75 54.1602c-101.97 0 -184.93 -82.96 -184.93 -184.93
c0 -54.7803 24.0801 -103.92 62.04 -137.81l-66.3799 -53.6396c-50.5898 51.0703 -79.4102 120.181 -79.4102 191.45zM365.99 -87.9512c4.30957 0 8.42969 1.33008 11.9395 3.83008l31.7998 -44.6104c-12.8301 -9.15039 -27.96 -14 -43.7402 -14
c-41.54 0 -75.3398 33.8096 -75.3398 75.3496c0 31.3604 19.3896 58.1201 46.71 69.4297c-166.12 15.25 -297.54 152.04 -304.35 320.45h39.5098c3.63965 -77.8604 38.3301 -152.33 96.3701 -206.05l8.70996 -8.05957l90.1104 72.8301
c28.9697 -18.8701 63.4795 -29.9502 100.56 -29.9502c49.2998 0 97.3799 20.1699 131.91 55.3203l107.48 -105.61c-55.71 -56.71 -130.82 -91.8398 -209.641 -98.9795c0.169922 -15.3301 -0.530273 -29.5898 -10.6201 -39.8398
c-5.70996 -5.82031 -13.3096 -9.01074 -21.4092 -9.01074c-11.1299 0 -20.54 -9.41016 -20.54 -20.5498s9.41016 -20.5498 20.54 -20.5498zM368.271 0.588867c-2.5498 0 -5.06055 0.120117 -7.59082 0.19043c7.03027 -3.83984 15.6699 -4.32031 23.2197 -0.860352
c0.709961 0.30957 1.12012 0.790039 1.77051 1.15039c-5.7998 -0.320312 -11.5898 -0.480469 -17.3994 -0.480469z" />
    <glyph glyph-name="egrave" unicode="&#xe8;" horiz-adv-x="616" 
d="M216.68 264.79l-0.000976562 -113.009h347.12v-150.69h-497.8v393.89h44.3701v-87.4902h141.74v-42.7002h-35.4297zM563.799 521.642l-347.12 -0.000976562v-106.17h347.12v-2.0498l-58.9004 -148.63h-225.39v70.0996h-141.74v87.4902h-71.7695v249.94h497.8v-150.68z
M382.198 727.24l-72.7197 38.1201l-61.8799 84.8896l49.25 27.8604z" />
    <glyph glyph-name="eacute" unicode="&#xe9;" horiz-adv-x="616" 
d="M216.68 264.79v-113.009h347.11v-150.69h-497.79v393.89h44.3496v-87.4902h141.75v-42.7002h-35.4199zM563.79 521.642l-347.11 -0.000976562v-106.17h347.11v-2.0498l-58.8896 -148.63h-225.4v70.0996h-141.75v87.4902h-71.75v249.94h497.79v-150.68zM382.189 850.251
l-61.8701 -84.8896l-72.7197 -38.1201l85.3398 150.87z" />
    <glyph glyph-name="ecircumflex" unicode="&#xea;" horiz-adv-x="616" 
d="M216.68 264.79v-113.009h347.12v-150.69h-497.8v393.89h44.3701v-87.4902h141.75v-42.7002h-35.4404zM563.8 521.642l-347.12 -0.000976562v-106.17h347.12v-2.0498l-58.9004 -148.63h-225.38v70.0996h-141.75v87.4902h-71.7695v249.94h497.8v-150.68zM278.52 706.501
l-49.249 27.8584l60.9102 107.65l7.88965 13.9502l16.5596 29.2598l16.3398 -28.5596l16.2998 -28.6299l15.6201 -27.2197l37.6396 -66.0098l-49.0098 -28.25l-36.6904 64.1504z" />
    <glyph glyph-name="edieresis" unicode="&#xeb;" horiz-adv-x="616" 
d="M216.68 264.79l-0.000976562 -113.009h347.12v-150.69h-497.8v393.89h44.3701v-87.4902h141.74v-42.7002h-35.4297zM563.799 521.642l-347.12 -0.000976562v-106.17h347.12v-2.0498l-58.9004 -148.63h-225.39v70.0996h-141.74v87.4902h-71.7695v249.94h497.8v-150.68z
M426.778 740.811h-77.6299v77.6299h77.6299v-77.6299zM280.658 740.811h-77.6299v77.6299h77.6299v-77.6299z" />
    <glyph glyph-name="ugrave" unicode="&#xf9;" horiz-adv-x="732" 
d="M528.97 676.37l150.699 -0.000976562v-360.82c0 -75.7695 -27.04 -145.149 -71.5898 -199.409l-78.4102 68.1396l-9.01953 -9.88965c-35.9004 -39.3496 -85.8301 -63.2393 -138.68 -66.7793v44.9805c82.4502 8.05957 147 77.5898 147 162.14v361.64zM368.289 79.7588
c61.0498 0 119.831 24.1123 163.301 66.542l58.3896 -50.7305c-57.04 -58.4004 -136.46 -94.6807 -224.15 -94.6807c-173.01 0 -313.83 140.83 -313.83 313.84v361.5l2.0498 -0.820312l148.63 -64.3799v-295.36c0 -87.1104 67.2803 -157.71 151.91 -163.53v-72.3799h13.7002
zM433.12 713.591l-72.7295 38.1201l-61.8604 84.8896l49.25 27.8604z" />
    <glyph glyph-name="uacute" unicode="&#xfa;" horiz-adv-x="732" 
d="M528.98 676.37l150.699 -0.000976562v-360.82c0 -75.7695 -27.04 -145.149 -71.5898 -199.409l-78.4102 68.1396l-9.00977 -9.88965c-35.9102 -39.3496 -85.8398 -63.2393 -138.689 -66.7793v44.9805c82.46 8.05957 147 77.5898 147 162.14v361.64zM368.29 79.7588
c61.0498 0 119.841 24.1113 163.301 66.541l58.3896 -50.7305c-57.04 -58.4004 -136.46 -94.6807 -224.15 -94.6807c-173.01 0 -313.83 140.83 -313.83 313.84v361.5l2.0498 -0.820312l148.63 -64.3799v-295.34c0 -87.1299 67.2803 -157.729 151.91 -163.55v-72.3799
h13.7002zM433.121 836.6l-61.8604 -84.8896l-72.7305 -38.1201l85.3604 150.87z" />
    <glyph glyph-name="ucircumflex" unicode="&#xfb;" horiz-adv-x="732" 
d="M528.98 676.37l150.699 -0.000976562v-360.82c0 -75.7695 -27.04 -145.149 -71.5898 -199.409l-78.4102 68.1396l-9.00977 -9.88965c-35.9102 -39.3496 -85.8398 -63.2393 -138.689 -66.7793v44.9805c82.46 8.05957 147 77.5898 147 162.14v361.64zM368.29 79.7588
c61.0498 0 119.841 24.1123 163.301 66.542l58.3896 -50.7305c-57.04 -58.4004 -136.46 -94.6807 -224.15 -94.6807c-173.01 0 -313.83 140.83 -313.83 313.84v361.5l2.0498 -0.820312l148.63 -64.3799v-295.36c0 -87.1104 67.2803 -157.71 151.91 -163.53v-72.3799h13.7002
zM329.441 692.851l-49.249 27.8594l36.3701 64.2598l16.5596 29.2695l15.8799 28.0703l16.5498 29.2598l16.3398 -28.5596l16.3096 -28.6299l15.6201 -27.2197l37.6396 -66.0098l-49.0195 -28.25l-36.6797 64.1504z" />
    <glyph glyph-name="udieresis" unicode="&#xfc;" horiz-adv-x="732" 
d="M528.97 676.37l150.699 -0.000976562v-360.82c0 -75.7695 -27.04 -145.149 -71.5898 -199.409l-78.4102 68.1396l-9.01953 -9.88965c-35.9004 -39.3496 -85.8301 -63.2393 -138.68 -66.7793v44.9805c82.4502 8.05957 147 77.5898 147 162.14v361.64zM368.289 79.7588
c61.0498 0 119.831 24.1123 163.301 66.542l58.3896 -50.7305c-57.04 -58.4004 -136.46 -94.6807 -224.15 -94.6807c-173.01 0 -313.83 140.83 -313.83 313.84v361.5l2.0498 -0.820312l148.63 -64.3799v-295.36c0 -87.1104 67.2803 -157.71 151.91 -163.53v-72.3799h13.7002
zM477.7 727.161h-77.6299v77.6299h77.6299v-77.6299zM331.59 727.161h-77.6299v77.6299h77.6299v-77.6299z" />
    <glyph glyph-name="yacute" unicode="&#xfd;" horiz-adv-x="723" 
d="M428.38 836.6l-61.8701 -84.8896l-72.7197 -38.1201l85.3398 150.87zM539.31 670.14h182.86l-279.22 -406.44h-29.1104l-215.75 303.08h-127.09l-71 103.36h182.87l178.22 -259.45zM183.97 539.38l215.75 -303.08h35.6201v-236.3h-150.69v255.78l-194.83 283.6h94.1504z
" />
    <glyph glyph-name="ydieresis" unicode="&#xff;" horiz-adv-x="723" 
d="M472.97 727.16h-77.6299v77.6299h77.6299v-77.6299zM326.85 727.16h-77.6299v77.6299h77.6299v-77.6299zM539.31 670.141h182.881l-279.22 -406.44h-29.1104l-215.75 303.08h-127.11l-71 103.36h182.88l178.21 -259.45zM183.971 539.381l215.749 -303.08h35.6201v-236.3
h-150.68v255.78l-194.84 283.6h94.1504z" />
    <glyph glyph-name="OE" unicode="&#x152;" horiz-adv-x="956" 
d="M414.37 696.38l497.668 0.00488281v-150.68h-260.13c15.2002 -23.4297 27.6699 -49.04 36.71 -76.1699l-36.1699 -8.08008c-10.2695 27.4004 -24.3799 53.1504 -42.1895 76.5801c-1.91016 2.59961 -3.96973 5.19922 -6.01953 7.66895
c-20.2803 25.3398 -44.5205 47.1201 -71.9209 64.6602l-17.2598 11.2305l-60.5498 -94.1104c-0.269531 0.139648 -0.40918 0.269531 -0.548828 0.269531c-12.7402 6.44043 -26.0205 11.3701 -39.5908 14.6602c-33.2803 8.21973 -68.21 6.98926 -101.64 -3.9707
c-46.8496 -15.4805 -84.9297 -48.2207 -107.26 -92.3311s-26.0303 -94.25 -10.6807 -141.09c11.5 -34.9404 32.7402 -64.8008 60.96 -87.1309l-55.7598 -86.5703c-19.1797 14.5195 -36.0195 31.5 -50.5498 50.6797c-18.7598 24.7998 -32.7295 52.3301 -41.7793 81.9199
l-5.61035 18.2197l-53.29 -11.9199c-20.5498 79.5898 -14.79 170.68 22.1904 243.84c5.48047 10.8203 11.3701 21.0898 17.8105 31.0898c41.5098 64.3799 103.29 112.189 176.99 136.439c48.7598 16.0303 99.3096 20.5498 148.619 13.9697v0.820312zM686.019 275.154
c-5.48047 -32.1904 -15.3496 -63.4209 -29.7295 -91.7812c-6.16016 -12.1904 -12.8799 -23.8301 -20.4102 -34.9297h235.2v-150.68h-497.8v1.78027c-5.62012 -0.410156 -11.1006 -0.549805 -16.7109 -0.549805c-51.9199 0 -103.43 12.0596 -151.1 36.1592
c-78.7598 39.7305 -137.529 107.54 -166.02 190.96l34.9297 7.80957c10.2695 -27.4004 24.5195 -53.1504 42.1895 -76.5703c21.6396 -28.6299 47.8096 -53.0195 77.9395 -72.3291l17.2598 -11.0996l61.6504 95.6201c31.3701 -15.7598 65.75 -22.1895 99.8604 -19.0391
c13.8301 1.23047 27.6699 4.11035 41.2295 8.49023c40.6904 13.4199 74.6602 39.7295 97.5303 75.1992c3.57031 5.48047 6.85059 11.2402 9.73047 17.1299c5.07031 10 9.18066 20.4102 12.3311 30.96c3.96973 13.4199 6.43945 27.1201 7.39941 41.0898
c1.37012 23.0195 -1.50977 46.4395 -9.04004 69.0391c-11.3701 34.6602 -32.3301 64.5205 -60.2803 86.7109l54.7998 84.9297c13.8301 -10.54 26.5703 -22.46 38.0801 -35.4697c4.37988 -4.94043 8.49023 -10 12.46 -15.3496
c18.6299 -24.6504 32.6104 -52.1904 41.6504 -81.9102l1.63965 -5.48047h290.41l-58.9004 -148.77l-0.830078 -1.91992h-165.47z" />
    <glyph glyph-name="Scaron" unicode="&#x160;" horiz-adv-x="678" 
d="M406.61 367.96c90.7803 0 164.391 -72.3291 164.391 -161.56h47.9297c0 -115.07 -95.25 -208.681 -212.33 -208.681h-328.85v148.09h328.85c33.9902 0 61.6406 27.1797 61.6406 60.5898s-27.6504 60.5898 -61.6406 60.5898h-162.27
c-117.08 0 -212.33 93.6104 -212.33 208.681l98.5498 -0.219727c3.41992 -59.3496 80.4795 -107.3 136.13 -107.49h139.93zM277.45 400.551c-60.5498 0 -109.59 48.2197 -109.59 107.67h-102.74c0 115.07 95.21 208.63 212.33 208.63h69.1396l-11.1104 19.6299
l-6.9502 12.2695l-45.9697 81.2598l49.25 27.8604l36.3203 -64.2002l36.6904 64.1504l49.0098 -28.25l-37.6602 -66.0098l-15.6104 -27.2197l-11.0996 -19.4902h257.58l-147.95 -148.08h-221.64c-33.9697 0 -61.6396 -27.1299 -61.6396 -60.5498
s27.6699 -60.5498 61.6396 -60.5498h162.33c46.1602 0 99.3105 -23.4199 140.82 -61.2295c41.5 -37.8096 71.5 -90 71.5 -147.53l-44.6504 0.269531c-5.07031 85.6201 -93.29 161.51 -167.67 161.37h-162.33z" />
    <glyph glyph-name="Ydieresis" unicode="&#x178;" horiz-adv-x="700" 
d="M154.66 554.17l215.751 -303.08h28.5498v-250h-150.69v255.79l-204.24 297.29h110.63zM530.312 712.32l182.88 0.000976562l-286.84 -417.53v-2.61035h-28.5498l-215.75 303.08h-110.63l-80.4199 117.06h182.88l178.21 -259.45zM463.972 715.701h-77.6299v77.6299
h77.6299v-77.6299zM317.861 715.701h-77.6299v77.6299h77.6299v-77.6299z" />
    <glyph glyph-name="zcaron" unicode="&#x17e;" horiz-adv-x="705" 
d="M306.94 752.04l-36.3701 64.2686l49.25 27.8701l36.3301 -64.21l36.6699 64.1504l49.0303 -28.25l-37.6504 -66.0098l-15.6104 -27.2197l-16.3203 -28.6299l-16.3398 -28.5596l-16.5498 29.2598l-15.8799 28.0703zM458.351 342.328l-140.541 -191.089h359.44v-0.280273
l-110.54 -150.41h-546.71l353.12 480.52h100.03l-101.88 -138.7h87.1104zM32.8799 659.31h657.531v-0.410156l-212.44 -289.13h-52.5801l101.89 138.7l-494.4 0.160156v150.68z" />
    <glyph glyph-name="Euro" unicode="&#x20ac;" horiz-adv-x="536" 
d="M490.3 562.78h-174.622c-17.6797 -17.1396 -48.3896 -71.25 -64.2598 -128.71h99.0996v-74.79h-109.28v-32.4297c0 -5.86035 0.30957 -11.8105 0.769531 -17.7803h108.49v-74.79h-93.0898c16.1504 -50.4697 40.71 -93.7393 55.8799 -108.47h176.98v-123.28h-188.07
c-81.0596 0 -145.47 123.71 -171.6 231.75h-89.5996v74.79h77.6201c-0.389648 6.13965 -0.649414 12.1201 -0.649414 17.7803v32.4297h-76.96v74.79h84.6504c22.4404 109.89 91.9404 252 178.341 252h186.3v-123.29z" />
    <glyph glyph-name="o.alt1" unicode="&#xf001;" horiz-adv-x="1092" 
d="M461.05 269.4l-62.0703 -14.8916v-0.290039h-166.09v145.55h-99.79c-6.88965 -26.5098 -30.8096 -46.2295 -59.46 -46.2295c-33.9805 0 -61.6406 27.6504 -61.6406 61.6406s27.6602 61.6406 61.6406 61.6406c29.8896 0 54.8398 -21.3799 60.4395 -49.6494h126.21v-145.55
h132.54c-12.0195 68.7803 -2.40918 139.4 28.6504 203.45c80.75 166.52 281.94 236.289 448.431 155.529c80.7998 -39.1904 138.729 -106.761 167.819 -184.94l-40.9697 -9.82031c-10.6201 28.75 -25.5498 55.5498 -44.4902 79.8096
c-21.5498 27.5801 -47.54 50.9502 -77.2598 69.46l-11.6299 7.23047l-60.2998 -96.8896c-25.6104 12.2197 -52.6602 18.0898 -79.3506 18.0898c-68.6797 0 -134.76 -38.3896 -166.68 -104.239c-21.5498 -44.4297 -24.5098 -94.6094 -8.30957 -141.27
c12.2803 -35.4199 34.5205 -65.5498 63.9404 -87.46l-44.9004 -72.1504c-22.25 15.46 -41.9502 34.1104 -58.6904 55.54c-19.5703 25.0596 -34.4199 53.1094 -44.1504 83.3594zM73.6396 380.929c18.8896 0 34.25 15.3701 34.25 34.25s-15.3604 34.25 -34.25 34.25
s-34.2393 -15.3701 -34.2393 -34.25s15.3496 -34.25 34.2393 -34.25zM1046.29 429.549c21.5498 -76.3604 16.3984 -160.531 -20.8711 -237.381c-39.1104 -80.6602 -107.29 -141.25 -191.99 -170.63c-36.0195 -12.4902 -73.2197 -18.7002 -110.239 -18.7002
c-50.0596 0 -99.8398 11.3301 -146.189 33.8203c-80.5 39.0303 -141 107.03 -170.44 191.49l36.4404 8.74023c10.6104 -28.7305 25.54 -55.5303 44.4902 -79.79c21.5498 -27.5898 47.5303 -50.96 77.2607 -69.46l11.6299 -7.24023l59.5098 95.5996
c2.2998 -1.23047 4.5 -2.60059 6.87012 -3.75098c44.4502 -21.5303 94.6504 -24.5205 141.29 -8.33008c46.6797 16.1797 84.2393 49.5801 105.789 94.0205c21.5596 44.4502 24.5195 94.6201 8.3291 141.3c-13.29 38.2803 -38.2998 70.2803 -71.3496 92.5205l45.1699 72.5801
c22.25 -15.46 41.9502 -34.1104 58.6904 -55.54c19.5596 -25.0596 34.4199 -53.0996 44.1504 -83.3691l3.88965 -12.0801z" />
    <glyph glyph-name="a.alt1" unicode="&#xf003;" horiz-adv-x="905" 
d="M859.02 136.46l35.21 -76.5801l-138.22 -59.8604l-21.7803 47.4004l-0.0195312 0.00976562h-271.65l-21.7803 -47.4102h-165.89l112.68 245.07h165.84l-49.7197 -108.63h355.33zM563.369 272.399l-330.48 -0.000976562v145.55h-99.7998
c-6.88965 -26.5098 -30.7998 -46.2295 -59.4502 -46.2295c-33.9805 0 -61.6406 27.6504 -61.6406 61.6406c0 33.9805 27.6602 61.6406 61.6406 61.6406c29.8896 0 54.8398 -21.3799 60.4395 -49.6602h126.21v-145.54h152.43l185.59 403.64l248.07 -539.59h-299.97
l15.7197 34.2598h102.73l-66.5498 144.65l-32.2998 -70.2803h-2.63965v-0.0800781zM73.6387 399.108c18.8896 0 34.25 15.3701 34.25 34.25c0 18.8701 -15.3604 34.2402 -34.25 34.2402s-34.2393 -15.3701 -34.2393 -34.2402c0 -18.8799 15.3496 -34.25 34.2393 -34.25z" />
    <glyph glyph-name="a.alt2" unicode="&#xf004;" horiz-adv-x="998" 
d="M327.42 342.76l-32.3115 -70.2803h-165.84l198.15 430.96l248.07 -539.59h-299.99l15.7305 34.2598h102.73zM942.288 37.3896c34 0 61.6611 -27.6387 61.6611 -61.6289s-27.6602 -61.6406 -61.6406 -61.6406c-29.8799 0 -54.8203 21.3799 -60.4307 49.6494h-126.21
v145.55h-155.06l22.7305 -49.4199l-138.22 -59.8701l-21.7803 47.4004v0.00976562h-271.66l-21.79 -47.4102h-165.89l112.68 245.06h165.85l-49.7197 -108.63h219.76v0.240234h330.48v-145.54h99.79c6.88965 26.5 30.8096 46.2305 59.4492 46.2305zM942.289 -58.499
c18.8896 0 34.25 15.3701 34.25 34.25c0 18.8701 -15.3604 34.2402 -34.25 34.2402s-34.2393 -15.3701 -34.2393 -34.2402c0 -18.8799 15.3496 -34.25 34.2393 -34.25z" />
    <glyph glyph-name="b.alt1" unicode="&#xf005;" horiz-adv-x="1003" 
d="M896.12 378.56c42.7998 -40.0195 69.7578 -96.8027 69.7578 -159.913c0 -120.85 -98.3301 -219.18 -219.17 -219.18h-50.7998v101.32h-101.02v49.3701h151.82c37.7598 0 68.4902 30.7197 68.4902 68.4893c0 37.7598 -30.7305 68.4902 -68.4902 68.4902h-179.22v-213.75
h101.03v-73.9199h-251.72v410.77h-185.91v145.54h-99.7998c-6.88965 -26.5 -30.7998 -46.2305 -59.4502 -46.2305c-33.9805 0 -61.6406 27.6602 -61.6406 61.6406c0 33.9902 27.6602 61.6504 61.6406 61.6504c29.8896 0 54.8398 -21.3896 60.4395 -49.6592h126.21v-145.53
h158.51v233.06h78.7695v-232.87h237.44c22.6602 0 41.0898 18.4404 41.0898 41.0908c0 22.6602 -18.4297 41.1006 -41.0898 41.1006h-165.52v-54.7998h-44.5195v205.48h210.04c105.75 0 191.78 -86.0195 191.78 -191.779c0 -36.8203 -10.6201 -71.1201 -28.6699 -100.37z
M71.6377 536.946c18.8799 0 34.25 15.3701 34.25 34.2402c0 18.8799 -15.3604 34.25 -34.25 34.25s-34.2393 -15.3701 -34.2393 -34.25c0 -18.8701 15.3496 -34.2402 34.2393 -34.2402z" />
    <glyph glyph-name="b.alt2" unicode="&#xf006;" horiz-adv-x="945" 
d="M883.36 49.9502c34 0 61.6504 -27.6602 61.6504 -61.6406c0 -33.9902 -27.6602 -61.6504 -61.6504 -61.6504c-29.8896 0 -54.8301 21.3896 -60.4297 49.6592h-126.21v145.55h-103.48c-35.8301 -72.3701 -110.26 -122.37 -196.34 -122.37h-50.79v101.31h-101.03v49.3701
h151.82c37.7695 0 68.4893 30.7305 68.4893 68.5c0 37.7598 -30.7197 68.4902 -68.4893 68.4902h-179.22v-213.75h101.03v-73.9199h-251.71v671.23h78.7695v-232.88h237.43c22.6602 0 41.1006 18.4404 41.1006 41.1006c0 22.6504 -18.4404 41.0908 -41.1006 41.0908h-165.52
v-54.79h-44.5195v205.48h210.04c105.76 0 191.779 -86.0303 191.779 -191.78c0 -36.8203 -10.6104 -71.1299 -28.6699 -100.37c42.8096 -40.0303 69.7695 -96.8105 69.7695 -159.9c0 -24.2803 -4.13965 -47.5801 -11.4492 -69.4199h119.49v-145.54h99.79
c6.88965 26.5 30.8096 46.2305 59.4492 46.2305zM883.36 -45.9395c18.8896 0 34.25 15.3701 34.25 34.25c0 18.8701 -15.3604 34.2402 -34.25 34.2402s-34.2393 -15.3701 -34.2393 -34.2402c0 -18.8799 15.3496 -34.25 34.2393 -34.25z" />
    <glyph glyph-name="c.alt1" unicode="&#xf007;" horiz-adv-x="1021" 
d="M891.47 205.48l107.48 -105.602c-62.7002 -63.8096 -149.94 -100.39 -239.391 -100.39c-180.48 0 -328.061 143.19 -335.28 321.91h39.5098c3.63965 -77.8604 38.3301 -152.33 96.3701 -206.05l8.70996 -8.05957l90.1104 72.8203
c28.9902 -18.8604 63.4902 -29.9404 100.58 -29.9404c49.2998 0 97.3799 20.1602 131.91 55.3105zM490.87 348.589l-257.979 -0.00292969v145.55h-99.7998c-6.88965 -26.5098 -30.7998 -46.2295 -59.4502 -46.2295c-33.9805 0 -61.6406 27.6504 -61.6406 61.6406
s27.6602 61.6406 61.6406 61.6406c29.8896 0 54.8398 -21.3799 60.4395 -49.6494h126.21v-145.55h166.3c20.2402 165.83 161.76 294.72 332.97 294.72c88.3496 0 174.84 -35.8301 237.31 -98.3105l-106.56 -106.54c-34.4102 34.4297 -82.0703 54.1699 -130.75 54.1699
c-101.98 0 -184.931 -82.96 -184.931 -184.93c0 -54.7803 24.0801 -103.92 62.04 -137.81l-66.3896 -53.6396c-50.5898 51.0703 -79.4102 120.181 -79.4102 191.45v13.4902zM73.6611 475.296c18.8701 0 34.2393 15.3701 34.2393 34.25s-15.3496 34.25 -34.2393 34.25
s-34.25 -15.3701 -34.25 -34.25s15.3604 -34.25 34.25 -34.25z" />
    <glyph glyph-name="c.alt2" unicode="&#xf008;" horiz-adv-x="1014" 
d="M99.5898 335.1l-0.0195312 13.6992h-66.5703c7.21973 178.72 154.81 321.91 335.27 321.91c88.3604 0 174.851 -35.8301 237.311 -98.3105l-106.56 -106.54c-34.4102 34.4297 -82.0605 54.1699 -130.751 54.1699c-101.97 0 -184.93 -82.96 -184.93 -184.93
c0 -54.7803 24.0801 -103.92 62.04 -137.81l-66.3799 -53.6396c-50.5898 51.0703 -79.4102 120.181 -79.4102 191.45zM945.99 104.679c34.1104 0 61.6543 -27.54 61.6543 -61.6504c0 -33.9697 -27.54 -61.6396 -61.6504 -61.6396
c-29.8604 0 -54.9307 21.5098 -60.541 49.7295h-126.03v145.47h-140.41c-7.9502 -12.46 -16.71 -24.3799 -26.2998 -35.4795c-4.11035 -4.74023 -8.66992 -9.16016 -13.0996 -13.6699l28.0596 -27.5596c-62.7002 -63.8096 -149.95 -100.39 -239.4 -100.39
c-180.48 0 -328.051 143.19 -335.271 321.91h39.5098c3.63965 -77.8604 38.3193 -152.33 96.3691 -206.05l8.70996 -8.05957l90.1201 72.8203c28.9697 -18.8604 63.4795 -29.9404 100.56 -29.9404c49.2998 0 97.3799 20.1602 131.92 55.3105l59.9004 -58.8496
c4.03027 4.09961 8.16992 8.09961 11.9297 12.4297c4.7998 5.62012 9.45996 11.5098 13.7002 17.5293c6.58008 8.76953 12.4697 17.9492 17.6699 27.3994c0 0.139648 0.139648 0.139648 0.139648 0.269531l0.549805 -0.269531h182.74v-145.48h99.5801
c6.84961 26.5801 30.96 46.1699 59.5898 46.1699zM945.994 8.78906c18.9102 0 34.25 15.4805 34.25 34.2402c0 18.9102 -15.3398 34.25 -34.25 34.25c-18.7598 0 -34.2402 -15.3398 -34.2402 -34.25c0 -18.7598 15.4805 -34.2402 34.2402 -34.2402z" />
    <glyph glyph-name="d.alt1" unicode="&#xf009;" horiz-adv-x="972" 
d="M834.8 583.06c64.29 -63.3701 101.23 -153.091 101.23 -246.021c0 -184.91 -140.78 -335.34 -313.83 -335.34h-66.5996v150.69h65.6396c89.4004 0 164.11 84.5498 164.11 184.649c0 52.8496 -20.5801 103.439 -56.4502 138.81
c-29.9199 29.5996 -67.75 45.8496 -106.7 45.8496h-93.4199v-242.6h-73.8203v332.19h-76.8701v60.5596l243.29 0.530273c79.7402 0 155.24 -31.7197 213.42 -89.3193zM427.56 583.889l0.000976562 -332.191h100.64v-251.08h-150.11v556.03h-185.2v145.54h-99.7998
c-6.88965 -26.5 -30.7998 -46.2305 -59.4502 -46.2305c-33.9805 0 -61.6406 27.6602 -61.6406 61.6406c0 33.9902 27.6602 61.6504 61.6406 61.6504c29.8896 0 54.8398 -21.3896 60.4395 -49.6592h126.21v-145.55h207.19v-0.150391h0.0800781zM33.6406 683.357
c18.8896 0 34.25 15.3701 34.25 34.2402c0 18.8799 -15.3604 34.25 -34.25 34.25s-34.2393 -15.3701 -34.2393 -34.25c0 -18.8701 15.3496 -34.2402 34.2393 -34.2402z" />
    <glyph glyph-name="d.alt2" unicode="&#xf00a;" horiz-adv-x="944" 
d="M116.48 583.89l0.000976562 -332.189h100.64v-251.08h-150.11v583.27h49.4697zM882.172 53.3105c34.1104 0 61.6406 -27.5391 61.6104 -61.6592c0 -33.9697 -27.5303 -61.6396 -61.6406 -61.6396c-29.8604 0 -54.9307 21.5 -60.5508 49.7197h-126.02v145.48h-141.39
c-57.5801 -75.3301 -145.16 -123.521 -243.08 -123.521h-66.5996v150.68h65.6504c89.3896 0 164.1 84.5498 164.1 184.66c0 52.8496 -20.5703 103.439 -56.4502 138.81c-29.9199 29.5996 -67.75 45.8496 -106.7 45.8496h-93.4199v-242.6h-73.8203v332.18h-76.8604v60.5703
l243.28 0.530273c79.7402 0 155.25 -31.7305 213.43 -89.3301c64.2998 -63.3701 101.24 -153.08 101.24 -246c0 -68.0898 -19.1396 -131.46 -51.8994 -184.42h149.94v-145.48h99.5898c6.84961 26.5801 30.96 46.1699 59.5898 46.1699zM882.172 -42.5781
c18.9004 0 34.2402 15.4805 34.2402 34.2402c0 18.9102 -15.3398 34.25 -34.2402 34.25c-18.7695 0 -34.25 -15.3398 -34.25 -34.25c0 -18.7598 15.4805 -34.2402 34.25 -34.2402z" />
    <glyph glyph-name="e.alt1" unicode="&#xf00b;" horiz-adv-x="934" 
d="M534.35 263.7v-113.01h347.11v-150.68h-497.79v393.87h44.3496v-87.4805h141.76v-42.7002h-35.4297zM881.46 671.23l0.000976562 -150.692h-347.11v-106.17h347.12v-2.0498l-58.9004 -148.63h-225.4v70.0898h-141.75v87.5h-71.7695v0.0898438h-153.76v145.55h-99.7998
c-6.88965 -26.5098 -30.7998 -46.2295 -59.4502 -46.2295c-33.9805 0 -61.6406 27.6504 -61.6406 61.6406s27.6602 61.6406 61.6406 61.6406c29.8896 0 54.8398 -21.3799 60.4395 -49.6494h126.21v-145.55h126.36v222.46h497.81zM70.6611 548.078
c18.8896 0 34.2393 15.3701 34.2393 34.25s-15.3496 34.25 -34.2393 34.25s-34.25 -15.3701 -34.25 -34.25s15.3604 -34.25 34.25 -34.25z" />
    <glyph glyph-name="e.alt2" unicode="&#xf00c;" horiz-adv-x="945" 
d="M138.78 333.8v87.4795h-71.7695v249.95h497.81v-150.68h-347.12v-106.16h347.12v-2.05957l-58.9102 -148.63h-225.38v70.0996h-141.75zM883.36 51.1689c34.1104 0 61.6504 -27.5293 61.6309 -61.6396c0 -33.9805 -27.5303 -61.6504 -61.6406 -61.6504
c-29.8604 0 -54.9307 21.5098 -60.5508 49.7295h-126.02v145.48h-131.98v-123.08h-497.8v393.88h44.3701v-87.4902h141.75v-42.7002h-35.4199v-113.01h347.12v-0.209961h159.37v-145.47h99.5801c6.84961 26.5703 30.96 46.1602 59.5898 46.1602zM883.36 -44.7197
c18.9102 0 34.25 15.4805 34.25 34.25c0 18.9004 -15.3398 34.2402 -34.25 34.2402c-18.7598 0 -34.2402 -15.3398 -34.2402 -34.2402c0 -18.7695 15.4805 -34.25 34.2402 -34.25z" />
    <glyph glyph-name="f.alt1" unicode="&#xf00d;" horiz-adv-x="695" 
d="M250.87 594.22l-0.000976562 -245.43h353.62l-59.7002 -150.62h-218.22v-197.53h-150.68v593.58h74.9805zM175.889 670.771l499.99 -0.000976562v-150.68h-349.31v-143.91h-48.2998v245.25h-276.38v145.54h-99.7998c-6.88965 -26.5 -30.7998 -46.2305 -59.4502 -46.2305
c-33.9805 0 -61.6406 27.6602 -61.6406 61.6504c0 33.9805 27.6602 61.6406 61.6406 61.6406c29.8896 0 54.8398 -21.3799 60.4297 -49.6602h126.22v-145.55h146.6v21.9502zM-157.361 748.14c18.8896 0 34.25 15.3701 34.25 34.25
c0 18.8701 -15.3604 34.2402 -34.25 34.2402s-34.2393 -15.3701 -34.2393 -34.2402c0 -18.8799 15.3496 -34.25 34.2393 -34.25z" />
    <glyph glyph-name="f.alt2" unicode="&#xf00e;" horiz-adv-x="852" 
d="M168.38 621.62l-102.381 -0.000976562v49.1504h499.99v-150.68h-349.31v-143.91h-48.2998v245.44zM777.419 249.719c33.9805 0 61.6289 -27.6592 61.6289 -61.6494c0 -33.9805 -27.6602 -61.6406 -61.6504 -61.6406c-29.8896 0 -54.8301 21.3896 -60.4404 49.6592h-126.2
v145.55h-106.93l-48.9297 -123.47h-218.22v-197.53h-150.68v593.58h74.9805v-245.43h146.71v0.240234h330.48v-145.54h99.79c6.88965 26.5 30.8096 46.2305 59.46 46.2305zM777.417 153.83c18.8896 0 34.2393 15.3701 34.2393 34.2402
c0 18.8799 -15.3496 34.25 -34.2393 34.25s-34.25 -15.3701 -34.25 -34.25c0 -18.8701 15.3604 -34.2402 34.25 -34.2402z" />
    <glyph glyph-name="g.alt1" unicode="&#xf00f;" horiz-adv-x="1127" 
d="M860.77 406.66l242.62 0.0195312l-5.33984 -80.2803c-1.75977 -26.6797 -6.58984 -52.4893 -13.9902 -77.1689h-112.4l-3.75 -7.71973c-38.8203 -79.79 -118.561 -132.75 -206.03 -137.78l0.0498047 46.9502c70.21 4.55957 131.19 45.8994 162.82 105.3h-123.56z
M748.449 75.9395c100.02 0 193.359 56.9805 240.189 145.87h85.9102c-51.3398 -130.46 -178.689 -222.27 -325.56 -222.27c-192.87 0 -349.72 156.99 -349.72 349.86c0 10.8896 0.55957 21.6592 1.5498 32.2988h-168.93v145.55h-99.7998
c-6.88965 -26.5098 -30.7998 -46.2295 -59.4502 -46.2295c-33.9805 0 -61.6406 27.6602 -61.6406 61.6406c0 33.9902 27.6602 61.6406 61.6406 61.6406c29.8799 0 54.8203 -21.3799 60.4307 -49.6494h126.22v-145.54h145.17c28.4297 164.51 172.01 290.029 344.529 290.029
c82.3301 0 162.47 -29.1797 225.34 -82.3301l-96.9805 -115.2c-35.8896 30.2695 -81.5098 46.8496 -128.359 46.8496c-109.72 0 -199.04 -89.3203 -199.04 -199.04c0 -104.99 81.6104 -190.99 184.58 -198.45l0.200195 -75.0303h13.7197zM72.6396 508.409
c18.8896 0 34.25 15.3701 34.25 34.25s-15.3604 34.25 -34.25 34.25s-34.2393 -15.3701 -34.2393 -34.25s15.3496 -34.25 34.2393 -34.25z" />
    <glyph glyph-name="g.alt2" unicode="&#xf010;" horiz-adv-x="1107" 
d="M383.18 75.9404c100.02 0 193.36 56.9805 240.2 145.891h85.9199c-51.3604 -130.47 -178.71 -222.27 -325.58 -222.27c-192.87 0 -349.72 156.98 -349.72 349.86c0 192.87 156.85 349.72 349.72 349.72c82.3301 0 162.47 -29.1797 225.34 -82.3301l-96.9805 -115.2
c-35.8896 30.2695 -81.5098 46.8496 -128.359 46.8496c-109.72 0 -199.04 -89.3203 -199.04 -199.04c0 -104.99 81.5898 -190.99 184.58 -198.45l0.200195 -75.0303h13.7197zM1033.43 177.23c33.9902 0 61.6621 -27.6592 61.6621 -61.6494
c0 -33.9805 -27.6602 -61.6406 -61.6504 -61.6406c-29.8896 0 -54.8301 21.3799 -60.4297 49.6602h-126.21v145.54h-240.43l-3.71973 -7.62988c-38.8203 -79.79 -118.561 -132.75 -206.021 -137.78l0.0400391 46.9502c70.2197 4.55957 131.189 45.8994 162.819 105.3
h-123.56l59.5898 150.68h242.6l-5.33984 -80.2695c-1.12988 -17.0098 -3.62012 -33.6201 -7.11035 -49.8506h148.52v-145.55h99.79c6.88965 26.5098 30.8096 46.2402 59.4492 46.2402zM1033.43 81.3418c18.8896 0 34.25 15.3701 34.25 34.2402
c0 18.8799 -15.3604 34.25 -34.25 34.25s-34.25 -15.3701 -34.25 -34.25c0 -18.8701 15.3604 -34.2402 34.25 -34.2402z" />
    <glyph glyph-name="h.alt1" unicode="&#xf011;" horiz-adv-x="1041" 
d="M823.19 671.32l150.68 -0.000976562v-670.27l-150.68 65.4805v300.95h-194.92v43.54h194.92v260.3zM600.87 411.02v-70.9229h195.21v-79.7695h-245.15v-260.27h-150.69v386.21h-168.35v145.54h-99.7998c-6.88965 -26.5 -30.7998 -46.2305 -59.4502 -46.2305
c-33.9805 0 -61.6406 27.6602 -61.6406 61.6406c0 33.9902 27.6602 61.6504 61.6406 61.6504c29.8896 0 54.8193 -21.3896 60.4297 -49.6592h126.22v-145.53h140.95v257.61h150.69v-260.27h49.9404zM72.6396 512.977c18.8896 0 34.25 15.3701 34.25 34.2402
c0 18.8799 -15.3604 34.25 -34.25 34.25s-34.2393 -15.3701 -34.2393 -34.25c0 -18.8701 15.3496 -34.2402 34.2393 -34.2402z" />
    <glyph glyph-name="h.alt2" unicode="&#xf012;" horiz-adv-x="1038" 
d="M267.63 411.02v-70.9316h195.2v-79.7598h-245.15v-260.27h-150.68v671.23h150.68v-260.27h49.9502zM964.99 190.918c33.9902 0 61.6514 -27.6475 61.6514 -61.6377s-27.6602 -61.6406 -61.6504 -61.6406c-29.8896 0 -54.8301 21.3799 -60.4404 49.6494h-126.2v145.55
h-137.72v-261.78l-150.69 65.4805v300.96h-194.91v43.5195h194.91v260.3h150.69v-381.08h165.12v-145.55h99.79c6.88965 26.5098 30.8096 46.2295 59.4492 46.2295zM964.991 95.0312c18.8896 0 34.25 15.3701 34.25 34.25s-15.3604 34.25 -34.25 34.25
s-34.2393 -15.3701 -34.2393 -34.25s15.3496 -34.25 34.2393 -34.25z" />
    <glyph glyph-name="i.alt1" unicode="&#xf013;" horiz-adv-x="605" 
d="M386.54 670.13h150.689v-301.36h-41.0996v205.48h-109.59v95.8799zM468.739 546.85l0.000976562 -205.472h68.4902v-341.8l-150.69 65.3496v454.9h-166.65v145.54h-99.7998c-6.88965 -26.5 -30.7998 -46.2305 -59.4502 -46.2305
c-33.9805 0 -61.6406 27.6602 -61.6406 61.6406c0 33.9902 27.6602 61.6504 61.6406 61.6504c29.8896 0 54.8398 -21.3896 60.4395 -49.6592h126.21v-145.55h220.88v-0.370117h0.570312zM60.6406 646.538c18.8896 0 34.25 15.3701 34.25 34.2402
c0 18.8799 -15.3604 34.25 -34.25 34.25s-34.2393 -15.3701 -34.2393 -34.25c0 -18.8701 15.3496 -34.2402 34.2393 -34.2402z" />
    <glyph glyph-name="i.alt2" unicode="&#xf014;" horiz-adv-x="582" 
d="M173.59 368.77v205.48h-109.59v95.8799h150.68v-301.36h-41.0898zM507.8 242.29c33.9902 0 61.6299 -27.6475 61.6299 -61.6377s-27.6602 -61.6406 -61.6406 -61.6406c-29.8896 0 -54.8398 21.3799 -60.4395 49.6494h-126.2v145.55h-106.47v-314.63l-150.68 65.3496
v481.92h82.1904v-205.24h202.37v-145.55h99.79c6.88965 26.5098 30.8096 46.2295 59.4492 46.2295zM507.8 146.403c18.8799 0 34.25 15.3701 34.25 34.25s-15.3604 34.25 -34.25 34.25s-34.2393 -15.3701 -34.2393 -34.25s15.3496 -34.25 34.2393 -34.25z" />
    <glyph glyph-name="j.alt1" unicode="&#xf015;" horiz-adv-x="595" 
d="M391.38 669.17h150.68v-335.22h-34.79v248.29h-115.89v86.9297zM479.869 554.84l0.000976562 -248.271h62.04c-1.59961 -111.11 -61.3398 -208.261 -150.53 -262.181c-46.9902 -28.4902 -102.05 -44.9307 -160.96 -44.9307c-79.04 0 -154.38 29.7305 -212.32 83.5605
l168.9 73.0098c13.9697 -3.83008 28.6299 -5.88965 43.4199 -5.88965c88.9102 0 160.96 72.2002 160.96 160.96v216.73h-161.49v145.54h-99.7998c-6.88965 -26.5 -30.7998 -46.2305 -59.4502 -46.2305c-33.9805 0 -61.6406 27.6602 -61.6406 61.6406
c0 33.9902 27.6602 61.6504 61.6406 61.6504c29.8896 0 54.8193 -21.3896 60.4297 -49.6592h126.22v-145.56h220.88v-0.370117h1.7002zM70.6396 654.538c18.8896 0 34.25 15.3701 34.25 34.2402c0 18.8799 -15.3604 34.25 -34.25 34.25s-34.2393 -15.3701 -34.2393 -34.25
c0 -18.8701 15.3496 -34.2402 34.2393 -34.2402z" />
    <glyph glyph-name="j.alt2" unicode="&#xf016;" horiz-adv-x="903" 
d="M491.17 333.95l-0.000976562 248.29h-115.89v86.9297h150.69v-335.22h-34.7998zM829.369 208.34c33.9902 0 61.6299 -27.6777 61.6299 -61.6582c0 -33.9902 -27.6504 -61.6504 -61.6406 -61.6504c-29.8896 0 -54.8193 21.3896 -60.4189 49.6592h-126.22v145.55h-118.52
c-9.84961 -100 -66.8496 -186.25 -148.92 -235.86c-46.9805 -28.5 -102.051 -44.9297 -160.961 -44.9297c-79.04 0 -154.38 29.7197 -212.32 83.5596l168.9 73.0098c13.9697 -3.83984 28.6299 -5.88965 43.4199 -5.88965c88.9102 0 160.96 72.1904 160.96 160.96v243.75
h88.4902v-247.19h206.36v-145.55h99.79c6.88965 26.5098 30.8096 46.2402 59.4492 46.2402zM829.369 112.452c18.8896 0 34.25 15.3701 34.25 34.2402c0 18.8799 -15.3604 34.25 -34.25 34.25s-34.2393 -15.3701 -34.2393 -34.25
c0 -18.8701 15.3496 -34.2402 34.2393 -34.2402z" />
    <glyph glyph-name="k.alt1" unicode="&#xf017;" horiz-adv-x="1014" 
d="M868.38 144.47l139.911 -139.86h-213.15l-229.03 229.04v-233.56h-150.69v351.37l144.99 -0.650391l206.46 -206.34h101.51zM447.371 378.699l-215.48 -0.00195312v145.55h-99.7998c-6.88965 -26.5098 -30.7998 -46.2295 -59.4502 -46.2295
c-33.9805 0 -61.6406 27.6504 -61.6406 61.6406s27.6602 61.6406 61.6406 61.6406c29.8799 0 54.8203 -21.3799 60.4307 -49.6494h126.22v-145.55h156.13v264.53l150.69 -65.2002v-158.51l224.38 224.25h213.01l-330.96 -330.96l168.43 -168.36h-62.7598l-206.41 206.29z
M72.6406 505.407c18.8896 0 34.25 15.3701 34.25 34.25s-15.3604 34.25 -34.25 34.25s-34.2393 -15.3701 -34.2393 -34.25s15.3496 -34.25 34.2393 -34.25z" />
    <glyph glyph-name="k.alt2" unicode="&#xf018;" horiz-adv-x="958" 
d="M429.79 171.87l-206.409 206.279l-156.38 0.700195v291.78l150.68 -65.2002v-158.5l224.39 224.25h213.01l-330.96 -330.96l168.42 -168.35h-62.75zM898.161 45.9492c34 0 61.6406 -27.6582 61.6406 -61.6387c0 -33.9902 -27.6602 -61.6406 -61.6406 -61.6406
c-29.8896 0 -54.8398 21.3799 -60.4395 49.6494h-126.2v145.55h-164.95l113.3 -113.26h-213.15l-229.04 229.04v-233.56h-150.68v351.37l144.99 -0.650391l205.66 -205.54h321.26v-145.55h99.7998c6.88965 26.5098 30.7998 46.2295 59.4502 46.2295zM898.162 -49.9385
c18.8896 0 34.2393 15.3701 34.2393 34.25c0 18.8701 -15.3496 34.2402 -34.2393 34.2402s-34.25 -15.3701 -34.25 -34.2402c0 -18.8799 15.3604 -34.25 34.25 -34.25z" />
    <glyph glyph-name="l.alt1" unicode="&#xf019;" horiz-adv-x="899" 
d="M713.46 150.75l171.23 0.000976562v-150.69l-479.41 -0.0703125v0.0703125h-0.0400391v61.6299h308.22v89.0596zM577.061 89.0312l-344.17 -0.00292969v145.55h-98.7998c-3.83008 -26.5098 -18.0996 -46.2295 -46.75 -46.2295
c-33.9805 0 -75.3408 27.6602 -75.3408 61.6406c0 33.9902 27.6602 61.6406 61.6406 61.6406c29.8896 0 54.8398 -21.3799 60.4395 -49.6494h126.21v-145.54h144.95l0.0400391 554.79l150.69 -65.3398v-455.16h130.09v-61.6396h-109v-0.0595703zM73.6406 215.738
c18.8896 0 34.25 15.3701 34.25 34.25s-15.3604 34.25 -34.25 34.25s-34.2393 -15.3701 -34.2393 -34.25s15.3496 -34.25 34.2393 -34.25z" />
    <glyph glyph-name="l.alt2" unicode="&#xf01a;" horiz-adv-x="713" 
d="M347.82 150.75l0.000976562 -61.6602h-280.82l0.0400391 582.13l150.68 -65.3301v-455.14h130.1zM867.951 -38.5303c34 0 61.6523 -27.6475 61.6523 -61.6377s-27.6602 -61.6406 -61.6504 -61.6406c-29.8896 0 -54.8301 21.3799 -60.4404 49.6494h-126.2v145.55h-134.86
v-33.3398l-479.41 -0.0595703v0.0595703h-0.0400391v61.6396h308.22v89.04h171.23v-89.9404h162.26v-145.55h99.79c6.88965 26.5098 30.8096 46.2295 59.4492 46.2295zM867.953 -134.417c18.8896 0 34.25 15.3701 34.25 34.25s-15.3604 34.25 -34.25 34.25
s-34.2393 -15.3701 -34.2393 -34.25s15.3496 -34.25 34.2393 -34.25z" />
    <glyph glyph-name="m.alt1" unicode="&#xf01b;" horiz-adv-x="1317" 
d="M400.67 541.95l0.000976562 0.0888672l315.06 -315.06v-83.6504l-164.38 164.25v-307.81h-150.68v514.78h-179.78v145.55h-99.7998c-6.88965 -26.5098 -30.7998 -46.2402 -59.4502 -46.2402c-33.9805 0 -61.6406 27.6602 -61.6406 61.6504
c0 33.9805 27.6602 61.6406 61.6406 61.6406c29.8896 0 54.8398 -21.3799 60.4395 -49.6602h126.21v-145.54h152.38zM61.6406 641.259c18.8896 0 34.25 15.3701 34.25 34.25c0 18.8701 -15.3604 34.2402 -34.25 34.2402s-34.2393 -15.3701 -34.2393 -34.2402
c0 -18.8799 15.3496 -34.25 34.2393 -34.25zM826.141 245.799l423.841 423.831v-669.6l-150.69 65.3496v240.56l-273.15 -273.15l-83.0098 83.1201v122.41l-342.46 342.46v90.2197h0.269531z" />
    <glyph glyph-name="m.alt2" unicode="&#xf01c;" horiz-adv-x="1104" 
d="M67 -0.230469l-0.000976562 542.27l315.07 -315.06v-83.6504l-164.39 164.25v-307.81h-150.68zM1254.94 -5.4209c33.9805 0 61.6406 -27.6572 61.6406 -61.6377c0 -33.9902 -27.6602 -61.6406 -61.6406 -61.6406c-29.8896 0 -54.8301 21.3799 -60.4297 49.6494h-126.22
v145.55h-151.98v-66.4697l-150.69 65.3496v1.12012h-0.410156v27.4004h0.410156v212.04l-273.14 -273.15l-83.0195 83.1201v122.41l-342.46 342.46v90.2197h0.269531l425.21 -425.2l423.83 423.83v-575.73h179.38v-145.55h99.79
c6.88965 26.5098 30.8096 46.2295 59.46 46.2295zM1254.94 -101.308c18.8896 0 34.2393 15.3701 34.2393 34.25s-15.3496 34.25 -34.2393 34.25s-34.25 -15.3701 -34.25 -34.25s15.3604 -34.25 34.25 -34.25z" />
    <glyph glyph-name="n.alt1" unicode="&#xf01d;" horiz-adv-x="1038" 
d="M970.14 674.41l0.0400391 -674.181l-0.0400391 0.0400391v-0.0996094l-205.05 179.41v82.7002l-364.63 317.74v118.42l419 -366.26v276.89zM400.68 543.659l-0.000976562 -0.163086l337.03 -293.69v-46.2695l-186.55 163.12v-366.84h-150.68v516.44h-179.59v145.55
h-99.7998c-6.88965 -26.5098 -30.7998 -46.2295 -59.4502 -46.2295c-33.9805 0 -61.6406 27.6504 -61.6406 61.6406s27.6602 61.6406 61.6406 61.6406c29.8799 0 54.8203 -21.3799 60.4404 -49.6494h126.21v-145.55h152.19v0.0302734l0.0195312 -0.0302734h0.179688z
M61.6387 642.966c18.8799 0 34.25 15.3701 34.25 34.25s-15.3604 34.25 -34.25 34.25s-34.2393 -15.3701 -34.2393 -34.25s15.3496 -34.25 34.2393 -34.25z" />
    <glyph glyph-name="n.alt2" unicode="&#xf01e;" horiz-adv-x="1029" 
d="M67 -0.179688l-0.000976562 543.869l337.23 -293.88v-46.2695l-186.55 163.12v-366.84h-150.68zM960.339 111.02c33.9805 0 61.6406 -27.6592 61.6406 -61.6396c0 -33.9902 -27.6602 -61.6504 -61.6406 -61.6504c-29.8896 0 -54.8301 21.3896 -60.4297 49.6592h-126.22
v145.55h-136.98l0.00976562 -182.71l-0.0400391 0.0400391v-0.0996094l-205.05 179.41v82.7002l-364.63 317.74v118.42l419 -366.26v276.89l150.68 65.3398l0.0302734 -464.08h164.38v-145.54h99.79c6.88965 26.5 30.8096 46.2305 59.46 46.2305zM960.339 15.1309
c18.8896 0 34.2393 15.3701 34.2393 34.25c0 18.8701 -15.3496 34.2402 -34.2393 34.2402s-34.25 -15.3701 -34.25 -34.2402c0 -18.8799 15.3604 -34.25 34.25 -34.25z" />
    <glyph glyph-name="o.alt2" unicode="&#xf01f;" horiz-adv-x="1102" 
d="M110.21 257.32l-3.89941 12.0723l-62.4004 -14.96c-20.1201 77.1699 -12.3398 158.1 22.8203 230.63c80.75 166.52 281.94 236.289 448.431 155.549c80.7998 -39.1904 138.729 -106.771 167.829 -184.94l-40.96 -9.83008
c-10.6201 28.7598 -25.5498 55.5498 -44.5 79.8096c-21.54 27.5898 -47.5303 50.96 -77.2607 69.4697l-11.6299 7.23047l-60.2998 -96.8896c-25.5996 12.2197 -52.6494 18.0801 -79.3398 18.0801c-68.6797 0 -134.76 -38.3799 -166.68 -104.229
c-21.5498 -44.4404 -24.5098 -94.6201 -8.31934 -141.271c12.29 -35.4297 34.54 -65.5498 63.9502 -87.4697l-44.9102 -72.1504c-22.2402 15.4697 -41.9404 34.1094 -58.6807 55.5498c-19.5801 25.0498 -34.4199 53.1094 -44.1504 83.3496zM1028.12 330.133
c33.9902 0 61.6426 -27.6562 61.6426 -61.6367c0 -33.9902 -27.6504 -61.6406 -61.6406 -61.6406c-29.8896 0 -54.8398 21.3799 -60.4395 49.6494h-126.2v145.55h-143.45c13.3301 -68.75 5.49023 -142.16 -27.3496 -209.88
c-39.0996 -80.6504 -107.279 -141.24 -191.979 -170.62c-36.0303 -12.5 -73.2207 -18.7002 -110.251 -18.7002c-50.0498 0 -99.8301 11.3301 -146.19 33.8203c-80.4902 39.0303 -141 107.03 -170.43 191.49l36.4297 8.74023c10.6201 -28.7402 25.5498 -55.5303 44.5 -79.79
c21.54 -27.5898 47.5303 -50.96 77.2607 -69.4697l11.6299 -7.23047l59.5 95.5996c2.2998 -1.23047 4.50977 -2.60059 6.87988 -3.75098c44.4502 -21.54 94.6406 -24.5205 141.291 -8.33008c46.6797 16.1797 84.2393 49.5693 105.789 94.0098
c21.5596 44.4502 24.5195 94.6299 8.3291 141.3c-13.29 38.29 -38.2998 70.29 -71.3594 92.5205l45.1797 72.5898c22.25 -15.4697 41.9502 -34.1094 58.6904 -55.5498c19.5596 -25.0498 34.4199 -53.0898 44.1504 -83.3701l3.88965 -12.0801l65.0898 15.5996v0.5h2.05957
l0.419922 0.0898438c0.00976562 -0.0302734 0.00976562 -0.0703125 0.0292969 -0.0898438h177.28v-145.55h99.7998c6.88965 26.5098 30.8096 46.2295 59.4492 46.2295zM1028.12 234.247c18.8896 0 34.25 15.3701 34.25 34.25s-15.3604 34.2402 -34.25 34.2402
s-34.25 -15.3604 -34.25 -34.2402s15.3604 -34.25 34.25 -34.25z" />
    <glyph glyph-name="p.alt1" unicode="&#xf020;" horiz-adv-x="964" 
d="M534.36 384.71l0.0195312 -105.03h127.84v-45.6602h-127.84v-232.87h-150.69v391.49h-151.8v145.55h-99.7998c-6.88965 -26.5098 -30.8096 -46.2402 -59.4492 -46.2402c-33.9902 0 -61.6406 27.6602 -61.6406 61.6504c0 33.9805 27.6504 61.6406 61.6406 61.6406
c29.8896 0 54.8398 -21.3799 60.4395 -49.6602h126.2v-145.54h124.41v252.34h79.9102v-252.34h71.3496v-27.4004h-0.589844v-7.92969zM72.6299 519.35c18.8701 0 34.2393 15.3701 34.2393 34.25c0 18.8701 -15.3496 34.2402 -34.2393 34.2402
s-34.25 -15.3701 -34.25 -34.2402c0 -18.8799 15.3604 -34.25 34.25 -34.25zM719.289 672.38c120.85 0 219.179 -98.3291 219.179 -219.179s-98.3301 -219.18 -219.18 -219.18h-29.6797v73.0596h-127.85v77.6299h157.53c37.7695 0 68.5 30.7197 68.5 68.4893
s-30.7305 68.4893 -68.5 68.4893h-184.93v-75.3398h-43.3799v226.03h228.31z" />
    <glyph glyph-name="p.alt2" unicode="&#xf021;" horiz-adv-x="881" 
d="M217.68 418.95l-0.000976562 -139.271h127.85v-45.6602h-127.85v-232.87h-150.68v671.23h79.9004v-253.43h70.7803zM808.579 162.33c34 0 61.6387 -27.6592 61.6387 -61.6494c0 -33.9805 -27.6504 -61.6406 -61.6406 -61.6406
c-29.8896 0 -54.8193 21.3799 -60.4189 49.6602h-126.22v145.54h-214.81c-1.51953 -0.0400391 -3 -0.230469 -4.51953 -0.230469h-29.6797v73.0498h-127.85v77.6299h157.53c37.7695 0 68.4893 30.7305 68.4893 68.5c0 37.7598 -30.7197 68.4902 -68.4893 68.4902h-184.93
v-75.3398h-43.3799v226.02h228.31c120.85 0 219.18 -98.3301 219.18 -219.17c0 -82.2998 -45.6602 -154.09 -112.93 -191.55h140.47v-145.55h99.7998c6.88965 26.5098 30.8096 46.2402 59.4492 46.2402zM808.578 66.4414c18.8896 0 34.25 15.3701 34.25 34.2402
c0 18.8799 -15.3604 34.25 -34.25 34.25s-34.25 -15.3701 -34.25 -34.25c0 -18.8701 15.3604 -34.2402 34.25 -34.2402z" />
    <glyph glyph-name="q.alt1" unicode="&#xf022;" horiz-adv-x="1132" 
d="M835.24 85.2402c-33.7002 -13.3096 -69.8271 -20.6543 -106.927 -20.6543h-13.7002v-63.5898c-47.6299 1.75977 -95.6104 13.0898 -141.19 35.1797c-85.3096 41.3604 -149.409 113.5 -180.489 203.09c-2.66992 7.7002 -4.96973 15.4502 -7.09961 23.2305h-152.94v145.55
h-99.79c-6.90039 -26.5098 -30.8105 -46.2295 -59.4609 -46.2295c-33.9805 0 -61.6406 27.6504 -61.6406 61.6406s27.6602 61.6406 61.6406 61.6406c29.8896 0 54.8398 -21.3799 60.4395 -49.6494h126.21v-145.55h119.09c-14.1904 74.4502 -4.16016 151.181 29.5098 220.61
c41.3799 85.3301 113.5 149.43 203.09 180.51s185.92 25.4004 271.25 -15.9697c176.13 -85.4102 249.93 -298.22 164.52 -474.34c-4.2002 -8.65039 -8.77051 -16.9707 -13.5508 -25.1104l-112.99 112.98c33.5801 96.46 -9.63965 205.25 -103.739 250.87
c-28.2002 13.6797 -58.5205 20.5801 -88.9805 20.5801c-22.5596 0 -45.1895 -3.78027 -67.1299 -11.3799c-51.5596 -17.8896 -93.0596 -54.7793 -116.88 -103.89c-23.6201 -48.71 -26.9805 -103.64 -9.57031 -154.859h1.05957v-2.95996
c18.1104 -50.7402 54.6406 -91.6201 103.19 -115.16c40.8096 -19.8096 84.9697 -24.6699 126.41 -16.8701zM73.6631 389.205c18.8701 0 34.2393 15.3701 34.2393 34.25s-15.3496 34.25 -34.2393 34.25s-34.25 -15.3701 -34.25 -34.25s15.3604 -34.25 34.25 -34.25z
M848.402 324.355l244.8 -244.789l-106.58 -106.57l-77.54 77.5498c-50.5898 -29.8701 -108.06 -47.0498 -167.04 -49.4297v36.3604c49.7305 2.12988 97.7607 15.8896 140.53 39.5693l-182.93 182.93z" />
    <glyph glyph-name="q.alt2" unicode="&#xf023;" horiz-adv-x="797" 
d="M497.12 85.2402c-33.7002 -13.3096 -69.8291 -20.6514 -106.959 -20.6514h-13.6904v-63.5898c-47.6299 1.75977 -95.6201 13.0898 -141.2 35.1797c-85.3096 41.3604 -149.42 113.5 -180.49 203.09s-25.3906 185.92 15.9893 271.24
c41.3799 85.3301 113.5 149.43 203.09 180.51s185.92 25.4004 271.25 -15.9697c176.13 -85.4102 249.93 -298.22 164.52 -474.34c-4.19043 -8.65039 -8.77051 -16.9707 -13.5508 -25.1104l-112.99 112.98c33.5801 96.46 -9.63965 205.25 -103.739 250.87
c-28.2002 13.6797 -58.5205 20.5801 -88.9805 20.5801c-22.5596 0 -45.1895 -3.78027 -67.1191 -11.3799c-51.5596 -17.8896 -93.0693 -54.7793 -116.89 -103.89c-23.8096 -49.0898 -27.0898 -104.53 -9.18945 -156.11c17.8701 -51.54 54.7803 -93.0596 103.87 -116.869
c40.8096 -19.8096 84.9697 -24.6699 126.41 -16.8701zM914.041 -19.4521c33.9805 0 61.6504 -27.6484 61.6504 -61.6289c0 -33.9902 -27.6504 -61.6504 -61.6406 -61.6504c-29.8896 0 -54.8193 21.3896 -60.4189 49.6592h-126.22v144.98l-78.9102 -78.9004l-77.54 77.5498
c-50.5898 -29.8604 -108.06 -47.04 -167.04 -49.4297v36.3604c49.7402 2.13965 97.7598 15.8896 140.529 39.5801l-182.93 182.93l148.77 64.3799l244.79 -244.79l-0.290039 -0.290039v-144.99h99.79c6.88965 26.5098 30.8096 46.2402 59.46 46.2402zM914.041 -115.34
c18.8896 0 34.2393 15.3701 34.2393 34.2402c0 18.8799 -15.3496 34.25 -34.2393 34.25s-34.25 -15.3701 -34.25 -34.25c0 -18.8701 15.3604 -34.2402 34.25 -34.2402z" />
    <glyph glyph-name="r.alt1" unicode="&#xf024;" horiz-adv-x="1027" 
d="M734.14 521.69h-184.98v-75.3398h-43.3301v226.03h228.3c120.85 0 219.18 -98.3301 219.18 -219.18c0 -73.96 -36.9199 -139.34 -93.1895 -179.05l-53.7402 77.4502h-229.77v33.1104h157.53c37.7695 0 68.5 30.7197 68.5 68.4893s-30.7305 68.4893 -68.5 68.4893z
M792.049 324.2l220.41 -323.051h-180.15l-152.58 232.87h-130.56v-167.15l-150.68 -65.3398v389.96h-166.6v145.54h-99.7998c-6.88965 -26.5 -30.7998 -46.2305 -59.4502 -46.2305c-33.9805 0 -61.6406 27.6602 -61.6406 61.6504c0 33.9805 27.6602 61.6406 61.6406 61.6406
c29.8896 0 54.8193 -21.3799 60.4297 -49.6602h126.22v-145.55h139.2v253.48l79.96 0.0195312v-253.43h70.7197l0.0400391 -94.75h242.84zM72.6387 518.199c18.8896 0 34.25 15.3701 34.25 34.25c0 18.8701 -15.3604 34.2402 -34.25 34.2402
s-34.2393 -15.3701 -34.2393 -34.2402c0 -18.8799 15.3496 -34.25 34.2393 -34.25z" />
    <glyph glyph-name="r.alt2" unicode="&#xf025;" horiz-adv-x="955" 
d="M217.73 324.2h242.83l220.41 -323.05h-180.14l-152.57 232.87h-130.58v-167.13l-150.68 -65.3398v670.81l79.96 0.0195312v-253.43h70.7197zM880.561 202.28c34 0 61.6113 -27.6494 61.6113 -61.6396s-27.6602 -61.6406 -61.6406 -61.6406
c-29.8896 0 -54.8193 21.3799 -60.4297 49.6494h-126.21v145.55h-165.19c-0.0302734 -0.0302734 -0.0605469 -0.0498047 -0.0908203 -0.0693359l-0.0400391 0.0703125h-0.759766v1.11035l-52.9404 76.29h-229.76v33.1104h157.53c37.7695 0 68.4893 30.7197 68.4893 68.4893
s-30.7197 68.4893 -68.4893 68.4893h-184.97v-75.3398h-43.3301v226.03h228.3c120.85 0 219.18 -98.3301 219.18 -219.18c0 -58.8496 -23.4297 -112.22 -61.3301 -151.6h160.82v-145.55h99.79c6.88965 26.5098 30.8096 46.2295 59.46 46.2295zM880.562 106.392
c18.8896 0 34.2393 15.3701 34.2393 34.25s-15.3496 34.25 -34.2393 34.25s-34.25 -15.3701 -34.25 -34.25s15.3604 -34.25 34.25 -34.25z" />
    <glyph glyph-name="s.alt1" unicode="&#xf026;" horiz-adv-x="1019" 
d="M518.87 487.91l-0.000976562 13.7002h-115.89c6.99023 110.82 99.3203 198.63 211.78 198.63h370v-0.820312l-149.73 -149.87h-220.27c-33.9697 0 -61.6396 -27.6699 -61.6396 -61.6396s27.6699 -61.6396 61.6396 -61.6396h162.33
c112.33 0 204.79 -87.8096 211.78 -198.63h-34.25c-6.98047 91.9199 -83.9707 164.38 -177.53 164.38h-162.33c-52.8701 0 -95.8896 43.0195 -95.8896 95.8896zM927.77 213.94l0.000976562 -13.709h61.0996c-6.99023 -110.69 -99.4502 -198.631 -211.78 -198.631h-328.9
v150.68h328.9c33.9697 0 61.6396 27.6797 61.6396 61.6494s-27.6699 61.6396 -61.6396 61.6396h-162.33c-103.41 0 -189.59 74.4102 -208.27 172.42h-178.6v145.55h-99.7998c-6.88965 -26.5098 -30.7998 -46.2295 -59.4502 -46.2295
c-33.9805 0 -61.6406 27.6602 -61.6406 61.6406c0 33.9902 27.6602 61.6406 61.6406 61.6406c29.8896 0 54.8193 -21.3799 60.4297 -49.6494h126.22v-145.54h220.88v-1.19043h16.1299c6.70996 -61.5 59.1797 -109.59 122.46 -109.59h162.33
c83.0098 0 150.68 -67.5303 150.68 -150.681zM68.6406 574.712c18.8896 0 34.25 15.3701 34.25 34.2402c0 18.8799 -15.3604 34.25 -34.25 34.25s-34.2393 -15.3701 -34.2393 -34.25c0 -18.8701 15.3496 -34.2402 34.2393 -34.2402z" />
    <glyph glyph-name="s.alt2" unicode="&#xf027;" horiz-adv-x="1000" 
d="M561.79 212.23l0.00195312 -13.6992h61.0996c-6.99023 -110.68 -99.46 -198.63 -211.78 -198.63h-328.9v150.69h328.9c33.9697 0 61.6396 27.6699 61.6396 61.6396s-27.6699 61.6396 -61.6396 61.6396h-162.33c-112.47 0 -204.79 87.9502 -211.78 198.63h89.3096
c6.71973 -61.5098 59.1797 -109.59 122.47 -109.59h162.33c83.0098 0 150.68 -67.5303 150.68 -150.681zM928.252 153.781c33.9902 0 61.6504 -27.6602 61.6504 -61.6504c0 -33.9805 -27.6602 -61.6406 -61.6504 -61.6406c-29.8896 0 -54.8301 21.3799 -60.4297 49.6602
h-126.21v145.54h-152.4v0.240234h-0.570312c-6.99023 91.9102 -83.9707 164.38 -177.53 164.38h-162.33c-52.8799 0 -95.8896 43.0098 -95.8896 95.8896v13.7002h-115.89c6.99023 110.82 99.3105 198.63 211.78 198.63h370v-0.830078l-149.73 -149.86h-220.27
c-33.9697 0 -61.6396 -27.6699 -61.6396 -61.6396s27.6699 -61.6396 61.6396 -61.6396h162.33c102.95 0 189.01 -73.8398 208.08 -171.47h149.82v-145.55h99.79c6.88965 26.5098 30.8096 46.2402 59.4492 46.2402zM928.252 57.8916c18.8896 0 34.25 15.3701 34.25 34.2402
c0 18.8799 -15.3604 34.25 -34.25 34.25s-34.2393 -15.3701 -34.2393 -34.25c0 -18.8701 15.3496 -34.2402 34.2393 -34.2402z" />
    <glyph glyph-name="t.alt1" unicode="&#xf028;" horiz-adv-x="767" 
d="M305.53 597.03l164.939 -0.00195312v-224.28h75.2998v-371.62h-150.68v520.55h-216.85v48.9004h-170.35v145.55h-99.7998c-6.88965 -26.5098 -30.7998 -46.2295 -59.4502 -46.2295c-33.9805 0 -61.6406 27.6504 -61.6406 61.6406s27.6602 61.6406 61.6406 61.6406
c29.8896 0 54.8398 -21.3799 60.4297 -49.6494h126.22v-145.55h142.95v74.3799h127.29v-75.3301zM-151.36 697.288c18.8896 0 34.25 15.3701 34.25 34.25s-15.3604 34.25 -34.25 34.25s-34.2393 -15.3701 -34.2393 -34.25s15.3496 -34.25 34.2393 -34.25zM332.93 672.358
h429.689l-59.7197 -150.68h-157.13v-121.54h-47.8896v224.29h-164.95v47.9297z" />
    <glyph glyph-name="t.alt2" unicode="&#xf029;" horiz-adv-x="758" 
d="M301.37 599.33l0.000976562 -217.43h74.2998v-360.26h-148.69v504.64h-213.98v146.08h125.59v-73.0303h162.78zM684.091 336.42c33.9902 0 61.6436 -27.6592 61.6436 -61.6396c0 -33.9902 -27.6504 -61.6504 -61.6406 -61.6504
c-29.8896 0 -54.8301 21.3896 -60.4404 49.6592h-126.2v145.55h-152.4v0.120117h-16.6396v217.44h-162.78v46.46h424.02l-58.9404 -146.08h-155.04v-90.5498h149.18v-145.54h99.79c6.88965 26.5 30.8096 46.2305 59.4492 46.2305zM684.094 240.531
c18.8896 0 34.25 15.3701 34.25 34.25c0 18.8701 -15.3604 34.2402 -34.25 34.2402s-34.25 -15.3701 -34.25 -34.2402c0 -18.8799 15.3604 -34.25 34.25 -34.25z" />
    <glyph glyph-name="u.alt1" unicode="&#xf02a;" horiz-adv-x="1067" 
d="M863.46 675.75l150.699 -0.00195312v-360.82c0 -75.7695 -27.04 -145.149 -71.5898 -199.409l-78.4102 68.1299l-9.01953 -9.88965c-35.9004 -39.3398 -85.8301 -63.2295 -138.68 -66.7793v44.9902c82.4502 8.0498 147 77.5898 147 162.13v361.65zM702.759 79.1279
c61.0596 0 119.852 24.1084 163.292 66.5488l58.3896 -50.7402c-57.04 -58.4004 -136.46 -94.6699 -224.14 -94.6699c-173.02 0 -313.84 140.82 -313.84 313.83v114.93h-156.57v145.55h-99.7998c-6.88965 -26.5 -30.7998 -46.2305 -59.4502 -46.2305
c-33.9805 0 -61.6406 27.6602 -61.6406 61.6406c0 33.9902 27.6602 61.6504 61.6406 61.6504c29.8896 0 54.8398 -21.3896 60.4395 -49.6592h126.22v-145.56h129.18v219.17l2.0498 -0.820312l148.63 -64.3799v-295.34c0 -87.1104 67.2695 -157.71 151.899 -163.53v-72.3896
h13.7002zM70.6611 555.746c18.8896 0 34.2393 15.3701 34.2393 34.2402c0 18.8799 -15.3496 34.25 -34.2393 34.25s-34.25 -15.3701 -34.25 -34.25c0 -18.8701 15.3604 -34.2402 34.25 -34.2402z" />
    <glyph glyph-name="u.alt2" unicode="&#xf02b;" horiz-adv-x="1006" 
d="M368.29 79.1299c61.0498 0 119.841 24.1104 163.301 66.54l58.3896 -50.7402c-57.04 -58.4004 -136.46 -94.6699 -224.15 -94.6699c-173.01 0 -313.83 140.82 -313.83 313.83v361.5l2.0498 -0.820312l148.63 -64.3799v-295.34c0 -87.1104 67.2803 -157.71 151.91 -163.53
v-72.3896h13.7002zM946.651 43.6104c33.9902 0 61.6396 -27.6396 61.6396 -61.6299c0 -33.9805 -27.6504 -61.6406 -61.6406 -61.6406c-29.8896 0 -54.8301 21.3799 -60.4404 49.6602h-126.2v145.54h-151.92c-0.00976562 0 -0.00976562 -0.00976562 -0.00976562 -0.00976562
l-0.0195312 0.00976562h-0.429688v0.389648l-77.9502 67.7197l-9.00977 -9.88965c-35.9102 -39.3398 -85.8398 -63.2295 -138.689 -66.7793v44.9902c82.46 8.0498 147 77.5898 147 162.13v361.65h150.69v-360.82c0 -63.5898 -19.2402 -122.56 -51.7002 -172h159.44v-145.55
h99.79c6.88965 26.5098 30.8096 46.2295 59.4492 46.2295zM946.65 -52.2793c18.8896 0 34.25 15.3701 34.25 34.25s-15.3604 34.25 -34.25 34.25s-34.25 -15.3701 -34.25 -34.25s15.3604 -34.25 34.25 -34.25z" />
    <glyph glyph-name="v.alt1" unicode="&#xf02c;" horiz-adv-x="943" 
d="M771.95 668.95l165.89 -0.000976562l-272.17 -591.97l-22.6299 48.7803l47.2695 100.48l-60.8496 132.7zM660.1 226.39l-47.3184 -100.543l37.8301 -81.5498l-36.2002 -78.7695l-169.03 367.62h-212.49v145.54h-99.7998
c-6.88965 -26.5 -30.7998 -46.2305 -59.4502 -46.2305c-33.9805 0 -61.6406 27.6602 -61.6406 61.6406c0 33.9902 27.6602 61.6504 61.6406 61.6504c29.8896 0 54.8398 -21.3896 60.4395 -49.6592h126.22v-145.55h172.5l-141.8 308.41h165.75zM73.6611 459.856
c18.8896 0 34.2393 15.3701 34.2393 34.2402c0 18.8799 -15.3496 34.25 -34.2393 34.25s-34.25 -15.3701 -34.25 -34.25c0 -18.8701 15.3604 -34.2402 34.25 -34.2402z" />
    <glyph glyph-name="v.alt2" unicode="&#xf02d;" horiz-adv-x="742" 
d="M374.11 226.39l-47.3203 -100.54l37.8398 -81.5703l-36.21 -78.75l-323.42 703.42h165.75zM718.45 4.80957c33.9805 0 61.6387 -27.6602 61.6387 -61.6504c0 -33.9805 -27.6602 -61.6406 -61.6406 -61.6406c-29.8896 0 -54.8398 21.3799 -60.4395 49.6602h-126.21v145.54
h-152.39v0.820312l-22.3701 48.2197l47.2695 100.48l-60.8496 132.7l142.48 310h165.89l-259.7 -564.82h167.07v-145.55h99.79c6.90039 26.5098 30.8105 46.2402 59.4609 46.2402zM718.448 -91.0801c18.8896 0 34.2393 15.3701 34.2393 34.2402
c0 18.8799 -15.3496 34.25 -34.2393 34.25s-34.25 -15.3701 -34.25 -34.25c0 -18.8701 15.3604 -34.2402 34.25 -34.2402z" />
    <glyph glyph-name="w.alt1" unicode="&#xf02e;" horiz-adv-x="1269" 
d="M729.83 450.99l192.741 -314.35l-40.3896 -87.4404l-110.15 181.27l-166.16 -273.14l-1.80957 5.55957l-130.87 284.64h-240.3v145.55h-99.7998c-6.88965 -26.5098 -30.7998 -46.2402 -59.4502 -46.2402c-33.9805 0 -61.6406 27.6602 -61.6406 61.6504
c0 33.9805 27.6602 61.6406 61.6406 61.6406c29.8896 0 54.8398 -21.3799 60.4395 -49.6602h126.22v-145.56h200.31l-179.86 391.18h165.75l178.33 -387.71zM73.6611 374.24c18.8896 0 34.2393 15.3701 34.2393 34.25c0 18.8701 -15.3496 34.2402 -34.2393 34.2402
s-34.25 -15.3701 -34.25 -34.2402c0 -18.8799 15.3604 -34.25 34.25 -34.25zM1097.46 666.09h165.749l-323.33 -703.2l-1.80957 -5.55957l-38.7197 63.6699l54.2305 117.46l-207.74 338.83l26.21 43.0498l147.07 -241.96z" />
    <glyph glyph-name="w.alt2" unicode="&#xf02f;" horiz-adv-x="1124" 
d="M454.08 450.99l192.74 -314.35l-40.3799 -87.4404l-110.14 181.27l-166.16 -273.14l-1.82031 5.55957l-323.32 703.2h165.76l178.32 -387.71zM1066.6 39.0508c33.9805 0 61.6104 -27.6582 61.6104 -61.6387c0 -33.9902 -27.6504 -61.6406 -61.6406 -61.6406
c-29.8896 0 -54.8301 21.3799 -60.4404 49.6494h-126.2v145.55h-147.73l-68.0801 -148.08l-1.80957 -5.55957l-38.7197 63.6699l54.2305 117.46l-207.74 338.83l26.21 43.0498l147.08 -241.98l178.34 387.73h165.75l-242.64 -527.72h162.53v-145.55h99.7998
c6.88965 26.5098 30.7998 46.2295 59.4502 46.2295zM1066.6 -56.8369c18.8896 0 34.2393 15.3701 34.2393 34.25c0 18.8701 -15.3496 34.2402 -34.2393 34.2402s-34.25 -15.3701 -34.25 -34.2402c0 -18.8799 15.3604 -34.25 34.25 -34.25z" />
    <glyph glyph-name="x.alt1" unicode="&#xf030;" horiz-adv-x="998" 
d="M879.27 156.13h-63.1504l-365.42 513.68h63.1504l136.84 -192.33l136.85 192.33h184.79l-229.17 -322.33zM898.749 128.729l90.7109 -127.543h-184.93l-153.84 216.3l-153.83 -216.3h-185.07l236.26 331.99h-315.16v145.55h-99.7998
c-6.88965 -26.5098 -30.7998 -46.2295 -59.4502 -46.2295c-33.9805 0 -61.6406 27.6504 -61.6406 61.6406s27.6602 61.6406 61.6406 61.6406c29.8896 0 54.8398 -21.3799 60.4395 -49.6494h126.21v-145.54h288.62l-219.99 309.23h88.1602l384.91 -541.09h96.7598z
M73.6396 459.887c18.8896 0 34.25 15.3701 34.25 34.25s-15.3604 34.25 -34.25 34.25s-34.2393 -15.3701 -34.2393 -34.25s15.3496 -34.25 34.2393 -34.25z" />
    <glyph glyph-name="x.alt2" unicode="&#xf031;" horiz-adv-x="1054" 
d="M499.2 128.73h96.75l90.7197 -127.54h-184.93l-153.84 216.3l-153.83 -216.3h-185.07l246.44 346.29l-229.32 322.33h88.1699zM987.59 84.1904c34 0 61.6514 -27.6602 61.6514 -61.6504c0 -33.9805 -27.6602 -61.6406 -61.6504 -61.6406
c-29.8896 0 -54.8301 21.3799 -60.4297 49.6602h-126.21v145.54h-289.38v2.48047l-363.67 511.23h63.1504l136.85 -192.33l136.85 192.33h184.79l-229.17 -322.33l116.63 -163.98h271.35v-145.55h99.79c6.88965 26.5098 30.8096 46.2402 59.4492 46.2402zM987.591 -11.6992
c18.9004 0 34.25 15.3701 34.25 34.2402c0 18.8799 -15.3496 34.25 -34.25 34.25c-18.8896 0 -34.2393 -15.3701 -34.2393 -34.25c0 -18.8701 15.3496 -34.2402 34.2393 -34.2402z" />
    <glyph glyph-name="y.alt1" unicode="&#xf032;" horiz-adv-x="1044" 
d="M862.08 671.28h182.871l-279.22 -406.44h-29.1104l-215.75 303.08h-127.11l-71 103.36h182.88l178.22 -259.45zM506.751 540.521l215.751 -303.079h35.5996v-236.3h-150.68v255.78l-177.97 259.06h-210.97v143.95h-98.7002
c-6.82031 -26.21 -30.4805 -45.7197 -58.8105 -45.7197c-33.6104 0 -60.9707 27.3496 -60.9707 60.9697s27.3604 60.9697 60.9707 60.9697c29.5596 0 54.2295 -21.1504 59.7695 -49.1201h124.85v-143.94h258.68v-2.57031h2.48047zM60.9717 641.302
c18.6904 0 33.8809 15.2002 33.8809 33.8799c0 18.6904 -15.1904 33.8809 -33.8809 33.8809c-18.6797 0 -33.8701 -15.1904 -33.8701 -33.8809c0 -18.6797 15.1904 -33.8799 33.8701 -33.8799z" />
    <glyph glyph-name="y.alt2" unicode="&#xf033;" horiz-adv-x="853" 
d="M182.98 540.52l215.76 -303.08h35.5996v-236.3h-150.68v255.78l-194.84 283.6h94.1602zM779.17 192.859c34 0 61.6523 -27.6602 61.6523 -61.6504c0 -33.9805 -27.6602 -61.6406 -61.6504 -61.6406c-29.8896 0 -54.8301 21.3799 -60.4404 49.6602h-126.2v145.54h-179.79
v0.240234l-215.63 302.91h-127.11l-71 103.36h182.88l178.21 -259.45l178.22 259.45h182.88l-260.45 -379.11h159.19v-145.55h99.79c6.88965 26.5098 30.8096 46.2402 59.4492 46.2402zM779.172 96.9697c18.8896 0 34.25 15.3701 34.25 34.2402
c0 18.8799 -15.3604 34.25 -34.25 34.25s-34.2393 -15.3701 -34.2393 -34.25c0 -18.8701 15.3496 -34.2402 34.2393 -34.2402z" />
    <glyph glyph-name="z.alt1" unicode="&#xf034;" horiz-adv-x="1064" 
d="M814.14 343.47l-140.551 -191.089h359.45v-0.280273l-110.54 -150.41h-546.71l353.12 480.52h100.03l-101.88 -138.7h87.1104zM388.659 660.451l657.513 -0.000976562v-0.410156l-212.44 -289.13h-52.5801l101.89 138.7l-377.79 0.120117v-0.599609h-285.78v143.95
h-98.6904c-6.83008 -26.21 -30.4805 -45.7197 -58.8105 -45.7197c-33.6201 0 -60.9697 27.3604 -60.9697 60.9707c0 33.6201 27.3496 60.9697 60.9697 60.9697c29.5596 0 54.25 -21.1602 59.7803 -49.1201h124.85v-143.94h142.06v124.21zM61.9814 634.45
c18.6904 0 33.8809 15.2002 33.8809 33.8799c0 18.6904 -15.1904 33.8809 -33.8809 33.8809c-18.6797 0 -33.8701 -15.1904 -33.8701 -33.8809c0 -18.6797 15.1904 -33.8799 33.8701 -33.8799z" />
    <glyph glyph-name="z.alt2" unicode="&#xf035;" horiz-adv-x="1028" 
d="M426.39 370.91l101.88 138.7l-494.39 0.160156v150.68h657.53v-0.410156l-212.44 -289.13h-52.5801zM966.06 53.5801c33.9902 0 61.6387 -27.6475 61.6387 -61.6377s-27.6504 -61.6406 -61.6406 -61.6406c-29.8896 0 -54.8193 21.3799 -60.4189 49.6494h-126.22v145.55
h-120.71l-91 -123.81h-546.71l353.13 480.52h100.03l-101.89 -138.7h87.1104l-0.0302734 -0.0400391l-140.54 -191.09h280.82v0.519531h207.19v-145.55h99.79c6.88965 26.5098 30.8096 46.2295 59.4492 46.2295zM966.058 -42.3066c18.8896 0 34.25 15.3701 34.25 34.25
s-15.3604 34.25 -34.25 34.25s-34.25 -15.3701 -34.25 -34.25s15.3604 -34.25 34.25 -34.25z" />
    <glyph glyph-name="c.alt3" unicode="&#xf036;" horiz-adv-x="630" 
d="M347.57 282.3c-20.3096 8.37012 -34.6689 28.3486 -34.6689 51.6582c0 30.8096 25.0703 55.8799 55.8906 55.8799c0.0302734 0 0.0703125 -0.0195312 0.100586 -0.0195312c0.0400391 0 0.0703125 0.0195312 0.0898438 0.0195312h0.0292969
c14.8398 0 28.8496 -5.82031 39.4395 -16.4102s16.4199 -24.6094 16.4199 -39.4492c0 -30.8096 -25.0596 -55.8896 -55.8594 -55.9092c-0.0400391 0 -0.0703125 0.0195312 -0.110352 0.0195312s-0.0703125 -0.0195312 -0.110352 -0.0195312
c-2.03027 0 -3.94043 0.400391 -5.9209 0.600586c-1.63965 0.179688 -3.31934 0.179688 -4.93945 0.5c-3.32031 0.650391 -6.48047 1.66992 -9.55078 2.88965c-0.259766 0.0898438 -0.549805 0.129883 -0.80957 0.240234zM99.5713 333.958v13.6992h-66.5703
c7.21973 178.72 154.79 321.92 335.26 321.92c88.3496 0 174.85 -35.8398 237.31 -98.3203l-106.56 -106.53c-34.4102 34.4199 -82.0703 54.1602 -130.75 54.1602c-101.97 0 -184.93 -82.96 -184.93 -184.93c0 -54.7803 24.0801 -103.92 62.04 -137.81l-66.3799 -53.6396
c-50.5898 51.0703 -79.4199 120.181 -79.4199 191.45zM500.191 204.348l107.481 -105.61c-62.7002 -63.7998 -149.95 -100.39 -239.4 -100.39c-180.48 0 -328.051 143.19 -335.271 321.91h39.5195c3.63965 -77.8604 38.3301 -152.32 96.3701 -206.051l8.70996 -8.05957
l90.1104 72.8301c28.9697 -18.8701 63.4795 -29.9502 100.56 -29.9502c49.2998 0 97.3799 20.1699 131.92 55.3203zM267.723 214.087l29.8721 24.2422l0.0498047 0.0595703c-29.2002 21.75 -48.2402 56.4297 -48.2402 95.5693c0 55.5498 38.2305 102.189 89.7207 115.38
c0.219727 0.0595703 0.439453 0.169922 0.65918 0.219727c0.230469 0.0595703 0.480469 0.0898438 0.720703 0.139648c3.91992 0.950195 7.91016 1.70996 11.96 2.25977c0.839844 0.139648 1.68945 0.370117 2.51953 0.480469c0.540039 0 1.05957 0.139648 1.46973 0.139648
h0.0390625c1.37012 0.129883 2.60059 0.269531 3.9707 0.40918c2.87988 0.129883 5.75977 0.269531 8.62988 0.269531l3.07031 -0.240234c3.91016 -0.129883 7.78027 -0.429688 11.6299 -0.939453l2.42969 -0.19043c1.91016 -0.269531 3.83008 -0.549805 5.75 -0.959961
c7.80957 -1.37012 15.3398 -3.7002 22.5996 -6.70996c3.55957 -1.50977 6.98926 -3.14941 10.2793 -5.06934c3.55957 -1.63965 6.97949 -3.69922 10.1299 -6.0293c6.58008 -4.24023 12.7402 -9.31055 18.3604 -14.9307c22.5996 -22.5996 35.0693 -52.5996 35.0693 -84.2393
c0 -31.3701 -12.3301 -61.1006 -34.6602 -83.5605c0 -0.139648 -0.269531 -0.40918 -0.40918 -0.548828c-1.29004 -1.29004 -2.75 -2.32031 -4.09961 -3.55078c-2.04004 -1.87988 -4.11035 -3.7002 -6.27051 -5.41992c-2.07031 -1.65039 -4.15039 -3.2207 -6.30078 -4.7207
c-1.74023 -1.2002 -3.5498 -2.2998 -5.33984 -3.41016c-4.25977 -2.65039 -8.66016 -5 -13.2002 -7.07031c-1.57031 -0.719727 -3.12988 -1.45996 -4.75 -2.12012c-2.62988 -1.0498 -5.26953 -2.03027 -7.96973 -2.89062
c-2.99023 -0.969727 -6.02051 -1.76953 -9.06055 -2.50977c-1.2998 -0.299805 -2.53027 -0.790039 -3.83008 -1.0498c-3.84961 -0.769531 -7.76953 -1.33984 -11.7393 -1.74023c-4.03027 -0.429688 -8.07031 -0.639648 -12.1406 -0.639648
c-16.0703 0 -31.3799 3.24023 -45.3799 9.02051l-0.0595703 -0.0703125l-32.0498 -25.8896c-8.36035 4.7998 -16.1699 10.2803 -23.4297 16.3105zM276.795 333.959c0 -25.4404 10.4121 -48.4912 27.1719 -65.1416l0.19043 0.200195
c4.79004 -4.7998 10.1396 -9.04004 15.8896 -12.4697c8.76953 -5.75 18.6299 -9.71973 28.7695 -12.0498h0.129883c0.69043 -0.280273 1.51074 -0.410156 2.19043 -0.549805c3.01953 -0.549805 5.88965 -1.09961 8.90918 -1.36914
c3.00977 -0.280273 6.0293 -0.410156 9.03906 -0.410156h0.139648c2.88965 0 5.75977 0.150391 8.62988 0.419922c2.49023 0.259766 4.95996 0.689453 7.41016 1.13965c0.490234 0.0996094 1 0.119141 1.49023 0.229492
c0.160156 0.0302734 0.320312 0.0800781 0.470703 0.110352c17.6699 3.7002 34.1602 12.5498 46.9297 25.54l0.00976562 -0.0195312c17.3799 17.4004 26.8398 40.1201 26.8398 64.3701c0 24.3799 -9.58984 47.3994 -27.1299 64.7998
c-0.129883 0.129883 -0.129883 0.129883 -0.269531 0.129883c-0.00976562 0.0195312 -0.00976562 0.0195312 -0.0292969 0.0292969l-0.00976562 -0.00976562c-0.110352 0.120117 -0.25 0.219727 -0.360352 0.319336c-2.62988 2.61035 -5.41992 4.94043 -8.26953 7.1709
c-1.29004 1 -2.58984 1.96973 -3.91992 2.88965c-1.66016 1.16016 -3.37012 2.2002 -5.10059 3.25c-3.23047 1.92969 -6.56055 3.67969 -10.001 5.21973c-0.969727 0.419922 -1.92969 0.889648 -2.91016 1.2793c-2.24023 0.910156 -4.50977 1.71973 -6.80957 2.43945
c-1.55957 0.480469 -3.14941 0.890625 -4.73926 1.29102c-7.44043 1.91992 -15.0801 3.03027 -22.8203 3.03027c-2.13965 0 -4.23926 -0.169922 -6.34961 -0.320312c-21.9902 -1.80957 -43.1904 -11.4092 -58.6807 -27.1494l-0.19043 0.19043
c-16.4404 -16.5996 -26.6201 -39.4092 -26.6201 -64.5596z" />
    <glyph glyph-name="o.alt3" unicode="&#xf037;" horiz-adv-x="738" 
d="M110.02 254.19l-3.8877 12.0898l-62.25 -14.9199c-19.3799 74.5303 -13.4902 156.04 22.6699 230.6c80.7695 166.51 281.909 236.26 448.469 155.529v-0.00976562c80.79 -39.1904 138.72 -106.75 167.819 -184.93l-40.9805 -9.82031
c-10.6104 28.7402 -25.54 55.5303 -44.4805 79.79c-21.5303 27.5801 -47.5205 50.96 -77.2705 69.4697l-11.6299 7.23047l-60.2998 -96.8896c-25.5996 12.2305 -52.6699 18.0801 -79.3398 18.0801c-68.6904 0 -134.771 -38.3799 -166.7 -104.22
c-39.2598 -80.9502 -13.8594 -176.71 55.6709 -228.71l-44.9404 -72.2002c-22.25 15.46 -41.9502 34.1104 -58.7002 55.5508c-19.5596 25.0596 -34.4092 53.0996 -44.1494 83.3594zM691.372 426.431c21.5596 -76.3604 16.4121 -160.552 -20.8574 -237.392
c-57.9502 -119.46 -177.88 -189.13 -302.52 -189.13c-49.0801 0 -98.8604 10.79 -145.92 33.5996c-83.0703 40.2998 -142.051 110.58 -170.281 191.561l36.2998 8.7002c10.6104 -28.75 25.5508 -55.5498 44.4805 -79.8096c21.5596 -27.5996 47.54 -50.9697 77.2705 -69.46
l11.6299 -7.24023l59.5098 95.6201c2.30957 -1.25 4.48926 -2.62988 6.86914 -3.78027c91.7305 -44.4502 202.591 -6.00977 247.101 85.71c40.5996 83.7305 11.9697 183.211 -63.0605 233.811l45.1797 72.5996c22.2598 -15.4697 41.96 -34.1094 58.7002 -55.5498
c19.5596 -25.0498 34.4092 -53.1094 44.1494 -83.3496l3.88965 -12.0898zM309.655 218.979l-17.1289 -27.54c-8.20996 4.25 -16.0195 9.17969 -23.1494 14.7998l17.1299 27.5303l14.5195 23.4199c7.12012 -5.75 14.9297 -10.8203 23.1494 -14.79l-0.0595703 -0.0800781
c14.04 -6.33984 29.8398 -9.95996 44.4297 -9.95996c56.8701 0 103.15 46.2695 103.15 103.149c0 23.6201 -8.20996 46.7002 -23.0801 65.0098l21.2695 17.29c18.8301 -23.1904 29.2002 -52.4102 29.2002 -82.2998c0 -71.9902 -58.5596 -130.55 -130.54 -130.55
c-19.7803 0 -40.4502 5.15039 -58.8506 14.0801zM443.217 442.399l-14.5186 -23.292c-7.40039 5.33984 -15.6201 9.72949 -24.25 12.8799l0.0800781 0.129883c-11.4805 4.28027 -23.7109 6.54004 -35.9805 6.54004c-56.8799 0 -103.149 -46.2695 -103.149 -103.149
c0 -20.6602 6.11035 -40.6299 17.6699 -57.7402l-22.6904 -15.3301c-14.6504 21.6396 -22.3809 46.9199 -22.3809 73.0703c0 71.9805 58.5596 130.551 130.55 130.551c17.3799 0 34.6299 -3.7002 50.6104 -10.4307l17.3496 27.8604
c1.08984 -0.410156 2.0498 -0.820312 3.14941 -1.37012c7.25977 -3.55957 14.2402 -7.5293 20.6807 -12.0488zM368.658 393.207c0.00976562 0 0.0205078 -0.00292969 0.0107422 -0.00292969c14.8398 0 28.8496 -5.82031 39.4395 -16.4102s16.4199 -24.6094 16.4199 -39.459
c0.0195312 -14.8398 -5.82031 -28.8594 -16.4102 -39.459c-10.5898 -10.5898 -24.5996 -16.4297 -39.4492 -16.4297h-0.0703125c-0.00976562 0 -0.0498047 0.0195312 -0.0693359 0.0195312c-0.00976562 0 -0.0400391 -0.0195312 -0.0595703 -0.0195312
c-30.8301 0 -55.8896 25.0703 -55.8896 55.8799c0 30.8203 25.0596 55.8906 55.8896 55.8906c0.0498047 0 0.0996094 -0.00976562 0.15918 -0.00976562h0.0292969z" />
    <glyph glyph-name="u.alt3" unicode="&#xf038;" horiz-adv-x="732" 
d="M528.98 675.79l150.689 -0.00195312v-360.81c0 -75.7695 -27.0596 -145.149 -71.6094 -199.409l-78.4102 68.1299l-9.00977 -9.88965c-35.8799 -39.3398 -85.8203 -63.2295 -138.67 -66.7793v44.9902c82.4697 8.0498 147.01 77.5898 147.01 162.13v361.64z
M368.29 79.1777c61.0596 0 119.84 24.1113 163.31 66.5518l58.3799 -50.7402c-57.04 -58.4004 -136.46 -94.6699 -224.15 -94.6699c-173.01 0 -313.83 140.82 -313.83 313.83v361.51l2.0498 -0.820312l9.17969 -3.98047l8.5 -3.7002l22.7402 -9.86035l1.63965 -0.679688
l1.23047 -0.549805l21.2305 -9.17969l84.1104 -36.4404v-295.34c0 -87.1104 67.2803 -157.71 151.91 -163.53v-72.4004h13.7002zM368.271 301.369c-11.3398 0 -20.5498 9.20996 -20.5498 20.5498l0.0195312 212.33c0 11.3398 9.2002 20.5498 20.5498 20.5498
c11.3398 0 20.54 -9.20996 20.54 -20.5498l-0.00976562 -212.33c0 -11.3398 -9.20996 -20.5498 -20.5498 -20.5498zM354.591 224.85c-49.2803 6.98047 -87.3496 49.3213 -87.3496 100.491v200.92c0 56.0098 45.5801 101.59 101.61 101.59
c56.0098 0 101.59 -45.5801 101.59 -101.59v-200.92c0 -51.5596 -38.6299 -94.1699 -88.46 -100.65l-0.00976562 -37.1904h-27.4004zM294.642 526.261v-200.92c0 -40.9102 33.29 -74.2002 74.21 -74.2002c40.9004 0 74.1904 33.29 74.1904 74.2002v200.92
c0 40.9004 -33.29 74.1904 -74.1904 74.1904c-40.9199 0 -74.21 -33.29 -74.21 -74.1904z" />
    <glyph glyph-name="braceleft.alt1" unicode="&#xf039;" horiz-adv-x="1420" 
d="M1281.03 336.475c0 -223.793 50.9863 -337.691 72.2598 -347.472c-0.260742 0.123047 -1.24707 0.438477 -2.61719 0.438477v-82.1914c-45.9307 0 -78.917 39.6709 -102.177 97.5059v-7.61621h-609.886l-123.287 146.684h-279.546
c-14.5752 -29.3691 -44.7939 -49.6562 -79.7393 -49.6562c-49.0957 0 -89.041 39.9453 -89.041 89.041s39.9453 89.041 89.041 89.041c33.5752 0 62.8623 -18.6982 78.0264 -46.2324h319.531l123.287 -146.684h548.626c-6.34277 27.0547 -11.3564 55.6299 -15.2607 84.4512
v-20.8213h-314.094c-15.1504 -27.5342 -44.4375 -46.2324 -78.0264 -46.2324c-49.0957 0 -89.041 39.9453 -89.041 89.041s39.9453 89.041 89.041 89.041c34.9453 0 65.1777 -20.2871 79.7393 -49.6572h305.71c-1.98633 23.5615 -3.28809 46.6162 -4.01367 68.4932h-559.119
c-15.1504 -27.5342 -44.4375 -46.2324 -78.0264 -46.2324c-49.0957 0 -89.041 39.9453 -89.041 89.041s39.9453 89.041 89.041 89.041c34.9453 0 65.1777 -20.2871 79.7393 -49.6562h557.297c0.670898 21.8213 1.91699 44.8896 3.83496 68.4922h-307.135
c-15.1504 -27.5342 -44.4375 -46.2324 -78.0264 -46.2324c-49.0957 0 -89.041 39.9453 -89.041 89.041s39.9453 89.041 89.041 89.041c34.9453 0 65.1777 -20.2871 79.7393 -49.6562h312.381v-17.3975c3.80859 28.2188 8.71289 56.1914 14.877 82.7529h-548.242
l-123.287 -146.684h-319.531c-15.1504 -27.5342 -44.4375 -46.2324 -78.0264 -46.2324c-49.0957 0 -89.041 39.9453 -89.041 89.041s39.9453 89.041 89.041 89.041c34.9453 0 65.1777 -20.2871 79.7393 -49.6572h279.546l123.287 146.684h609.872v-5.9043
c23.2598 57.835 56.2461 97.5195 102.177 97.5195v-82.1914c1.37012 0 2.35645 0.31543 2.63086 0.452148c-21.2598 -9.79395 -72.2598 -123.684 -72.2598 -347.477z" />
    <glyph glyph-name="braceright.alt1" unicode="&#xf03a;" horiz-adv-x="1420" 
d="M139.26 336.475c0 223.793 -50.9863 337.678 -72.2598 347.472c0.260742 -0.123047 1.24707 -0.438477 2.61719 -0.438477v82.1914c45.9307 0 78.917 -39.6709 102.177 -97.5195v7.61621h609.899l123.287 -146.684h279.546
c14.5752 29.3691 44.7939 49.6562 79.7393 49.6562c49.0957 0 89.041 -39.9453 89.041 -89.041s-39.9453 -89.041 -89.041 -89.041c-33.5752 0 -62.8623 18.6982 -78.0264 46.2324h-319.531l-123.287 146.684h-548.626c6.34277 -27.0547 11.3564 -55.6299 15.2607 -84.4512
v20.8213h314.094c15.1504 27.5342 44.4375 46.2324 78.0264 46.2324c49.0957 0 89.041 -39.9453 89.041 -89.041s-39.9453 -89.041 -89.041 -89.041c-34.9453 0 -65.1777 20.2871 -79.7393 49.6572h-305.71c1.98633 -23.5615 3.28809 -46.6162 4.01367 -68.4932h559.119
c15.1504 27.5342 44.4375 46.2324 78.0264 46.2324c49.0957 0 89.041 -39.9453 89.041 -89.041s-39.9453 -89.041 -89.041 -89.041c-34.9453 0 -65.1777 20.2871 -79.7393 49.6562h-557.311c-0.670898 -21.8213 -1.91699 -44.8896 -3.83496 -68.4922h307.135
c15.1504 27.5342 44.4375 46.2324 78.0264 46.2324c49.0957 0 89.041 -39.9453 89.041 -89.041s-39.9453 -89.041 -89.041 -89.041c-34.9453 0 -65.1777 20.2871 -79.7393 49.6562h-312.381v17.3975c-3.80859 -28.2188 -8.71289 -56.1914 -14.877 -82.7529h548.242
l123.287 146.684h319.531c15.1504 27.5342 44.4375 46.2324 78.0264 46.2324c49.0957 0 89.041 -39.9453 89.041 -89.041s-39.9453 -89.041 -89.041 -89.041c-34.9453 0 -65.1777 20.2871 -79.7393 49.6572h-279.546l-123.287 -146.684h-609.886v5.9043
c-23.2598 -57.835 -56.2461 -97.5195 -102.177 -97.5195v82.1914c-1.35645 0 -2.34277 -0.31543 -2.61719 -0.438477c21.2598 9.79395 72.2598 123.684 72.2598 347.477z" />
    <glyph glyph-name="braceleft.alt2" unicode="&#xf03b;" horiz-adv-x="1935" 
d="M1878.63 -4.04297c49.0957 0 89.041 -39.9443 89.041 -89.04s-39.9453 -89.041 -89.041 -89.041c-33.5889 0 -62.876 18.6982 -78.04 46.2324h-189.409l-123.287 260.271h-932.157c-15.0684 -27.8486 -44.5342 -46.8076 -78.3555 -46.8076
c-49.0957 0 -89.041 39.9453 -89.041 89.041s39.9453 89.041 89.041 89.041c34.7256 0 64.7803 -20.0137 79.4648 -49.082h983.061l123.287 -260.271h135.697c14.5752 29.3691 44.7939 49.6562 79.7393 49.6562zM654.899 283.339v164.384h-420.818
c-15.1641 -27.5342 -44.4512 -46.2324 -78.04 -46.2324c-49.0957 0 -89.041 39.9453 -89.041 89.041s39.9453 89.041 89.041 89.041c34.9453 0 65.1777 -20.2871 79.7393 -49.6572h419.12v156.108h603.447c14.7803 28.7529 44.6982 48.5195 79.1914 48.5195
c49.0957 0 89.041 -39.9453 89.041 -89.041s-39.9453 -89.041 -89.041 -89.041c-34.041 0 -63.6572 19.2188 -78.6299 47.3691h-521.817v-238.313h651.255c14.7256 28.918 44.7256 48.8086 79.3281 48.8086c49.0957 0 89.041 -39.9453 89.041 -89.041
s-39.9453 -89.041 -89.041 -89.041c-33.9316 0 -63.4658 19.0957 -78.4932 47.0957h-734.282zM2138.9 901.198c49.0957 0 89.0557 -39.9443 89.0557 -89.04s-39.9453 -89.041 -89.041 -89.041c-34.9453 0 -65.1777 20.2871 -79.7393 49.6572h-393.49l-123.287 -328.765
h-580.283c-14.877 -28.4521 -44.6299 -47.9453 -78.9033 -47.9453c-49.0957 0 -89.041 39.9453 -89.041 89.041s39.9453 89.041 89.041 89.041c34.2598 0 64.0264 -19.4932 78.9033 -47.9453h523.297l123.287 328.765h452.161
c15.1641 27.5342 44.4512 46.2324 78.04 46.2324z" />
    <glyph glyph-name="braceright.alt2" unicode="&#xf03c;" horiz-adv-x="1935" 
d="M1457.56 255.654c49.0957 0 89.041 -39.9463 89.041 -89.042s-39.9453 -89.041 -89.041 -89.041c-33.8213 0 -63.2871 18.959 -78.3555 46.8076h-932.157l-123.287 -260.271h-189.409c-15.1641 -27.5342 -44.4512 -46.2324 -78.04 -46.2324
c-49.0957 0 -89.041 39.9453 -89.041 89.041s39.9453 89.041 89.041 89.041c34.9453 0 65.1777 -20.2871 79.7393 -49.6562h135.697l123.287 260.271h983.061c14.6846 29.0684 44.7529 49.082 79.4648 49.082zM1778.9 579.568c49.0957 0 89.041 -39.9326 89.041 -89.0283
s-39.9453 -89.041 -89.041 -89.041c-33.5889 0 -62.876 18.6982 -78.04 46.2324h-420.818v-164.382h-734.282c-15.0137 -28 -44.5615 -47.0957 -78.4932 -47.0957c-49.0957 0 -89.041 39.9453 -89.041 89.041s39.9453 89.041 89.041 89.041
c34.6162 0 64.6025 -19.9043 79.3281 -48.8086h651.255v238.3h-521.817c-14.9727 -28.1504 -44.5889 -47.3691 -78.6299 -47.3691c-49.0957 0 -89.041 39.9453 -89.041 89.041s39.9453 89.041 89.041 89.041c34.5068 0 64.4111 -19.7666 79.1914 -48.5195h603.447v-156.108
h419.12c14.5752 29.3691 44.7939 49.6562 79.7393 49.6562zM392.557 444.007l-123.286 328.763h-393.49c-14.5752 -29.3691 -44.7939 -49.6562 -79.7393 -49.6562c-49.0957 0 -89.041 39.9453 -89.041 89.041s39.9453 89.041 89.041 89.041
c33.5889 0 62.876 -18.6982 78.04 -46.2324h452.161l123.287 -328.765h523.311c14.877 28.4521 44.6299 47.9453 78.9033 47.9453c49.0957 0 89.041 -39.9453 89.041 -89.041s-39.9453 -89.041 -89.041 -89.041c-34.2598 0 -64.0264 19.4932 -78.9033 47.9453h-580.283z" />
  </font>
</defs>
</svg>
